#N canvas 435 296 871 720 10;
#X obj 53 -15 inlet;
#X msg 343 448 11;
#X msg 313 448 10;
#X obj 605 -15 inlet;
#X obj 605 116 * 12;
#X obj 605 85 + 1;
#X msg 619 47 4;
#X obj 619 16 loadbang;
#X obj 53 105 - 60;
#X obj 206 24 s keyboard-abs-velocity-\$0;
#X obj 74 77 r keyboard-abs-transposition-\$0;
#X obj 605 143 s keyboard-abs-transposition-\$0;
#X obj 63 620 outlet;
#X obj 63 590 + 60;
#X obj 63 541 r keyboard-abs-pitch-class-\$0;
#X obj 84 564 r keyboard-abs-transposition-\$0;
#X obj 206 -15 inlet;
#X obj 579 623 outlet;
#X obj 594 559 r keyboard-abs-velocity-\$0;
#X obj 579 592 i;
#X obj 579 507 r keyboard-abs-pitch-class-\$0;
#X msg 579 537 bang;
#X msg 764 563 127;
#X obj 764 537 loadbang;
#X obj 647 301 > 0;
#X obj 478 297 tgl 15 0 empty empty empty 17 7 0 10 -262144 -1 -1 0
1;
#X obj 647 265 r keyboard-abs-velocity-\$0;
#X obj 647 373 s keyboard-abs-tgl1-\$0;
#X obj 53 131 s keyboard-abs-pitch-class-\$0;
#X obj 124 286 tglclick12;
#X obj 124 277 tglclick12;
#X obj 128 269 tglclick8;
#X obj 118 267 tglclick10;
#X obj 128 262 tglclick8;
#X obj 128 248 tglclick8;
#X obj 128 255 tglclick8;
#X obj 118 258 tglclick10;
#X obj 118 248 tglclick10;
#X msg 13 448 0;
#X msg 73 448 2;
#X msg 133 448 4;
#X msg 163 448 5;
#X msg 283 448 9;
#X msg 223 448 7;
#X msg 43 448 1;
#X msg 103 448 3;
#X msg 193 448 6;
#X msg 253 448 8;
#X obj 13 500 s keyboard-abs-pitch-class-\$0;
#X obj 112 286 tglclick12;
#X obj 112 277 tglclick12;
#X obj 107 267 tglclick10;
#X obj 107 258 tglclick10;
#X obj 107 248 tglclick10;
#X obj 100 286 tglclick12;
#X obj 100 277 tglclick12;
#X obj 96 267 tglclick10;
#X obj 96 258 tglclick10;
#X obj 96 248 tglclick10;
#X obj 76 286 tglclick12;
#X obj 76 277 tglclick12;
#X obj 80 269 tglclick8;
#X obj 70 267 tglclick10;
#X obj 80 262 tglclick8;
#X obj 80 248 tglclick8;
#X obj 80 255 tglclick8;
#X obj 70 258 tglclick10;
#X obj 70 248 tglclick10;
#X obj 64 286 tglclick12;
#X obj 64 277 tglclick12;
#X obj 60 267 tglclick10;
#X obj 60 258 tglclick10;
#X obj 60 248 tglclick10;
#X obj 88 286 tglclick12;
#X obj 88 277 tglclick12;
#X obj 88 269 tglclick8;
#X obj 88 262 tglclick8;
#X obj 88 248 tglclick8;
#X obj 88 255 tglclick8;
#X obj 52 286 tglclick12;
#X obj 52 277 tglclick12;
#X obj 52 262 tglclick8;
#X obj 52 269 tglclick8;
#X obj 52 248 tglclick8;
#X obj 52 255 tglclick8;
#N canvas 975 422 344 434 white-keys 0;
#X obj 96 26 r keyboard-abs-pitch-class-\$0;
#X obj 96 365 outlet;
#X obj 96 53 sel 0 2 4 5 7 9 11;
#X obj 111 325 outlet;
#X obj 126 285 outlet;
#X obj 141 245 outlet;
#X obj 156 205 outlet;
#X obj 171 165 outlet;
#X obj 186 125 outlet;
#X obj 27 108 inlet;
#N canvas 1199 468 450 300 white-keys-sub 0;
#X obj 94 55 inlet;
#X obj 94 208 outlet;
#X obj 254 47 r keyboard-abs-tgl1-\$0;
#X obj 254 76 tgl 15 0 empty empty empty 17 7 0 10 -262144 -1 -1 0
1;
#X obj 94 128 spigot;
#X obj 221 128 spigot;
#X obj 127 105 == 1;
#X obj 254 105 == 0;
#X obj 320 128 loadbang;
#X obj 94 154 openPath images/CF-inout1.gif;
#X obj 221 154 openPath images/CF-inout0.gif;
#X connect 0 0 4 0;
#X connect 0 0 5 0;
#X connect 2 0 3 0;
#X connect 3 0 7 0;
#X connect 3 0 6 0;
#X connect 4 0 9 0;
#X connect 5 0 10 0;
#X connect 6 0 4 1;
#X connect 7 0 5 1;
#X connect 8 0 10 0;
#X connect 9 0 1 0;
#X connect 10 0 1 0;
#X restore 96 345 pd white-keys-sub;
#N canvas 1288 689 450 300 white-keys-sub 0;
#X obj 85 54 inlet;
#X obj 85 207 outlet;
#X obj 245 46 r keyboard-abs-tgl1-\$0;
#X obj 245 75 tgl 15 0 empty empty empty 17 7 0 10 -262144 -1 -1 0
1;
#X obj 85 127 spigot;
#X obj 212 127 spigot;
#X obj 118 104 == 1;
#X obj 245 104 == 0;
#X obj 85 153 openPath images/DGA1.gif;
#X obj 212 153 openPath images/DGA0.gif;
#X obj 311 127 loadbang;
#X connect 0 0 4 0;
#X connect 0 0 5 0;
#X connect 2 0 3 0;
#X connect 3 0 7 0;
#X connect 3 0 6 0;
#X connect 4 0 8 0;
#X connect 5 0 9 0;
#X connect 6 0 4 1;
#X connect 7 0 5 1;
#X connect 8 0 1 0;
#X connect 9 0 1 0;
#X connect 10 0 9 0;
#X restore 111 305 pd white-keys-sub;
#N canvas 1288 689 450 300 white-keys-sub 0;
#X obj 115 54 inlet;
#X obj 115 207 outlet;
#X obj 275 46 r keyboard-abs-tgl1-\$0;
#X obj 275 75 tgl 15 0 empty empty empty 17 7 0 10 -262144 -1 -1 0
1;
#X obj 115 127 spigot;
#X obj 242 127 spigot;
#X obj 148 104 == 1;
#X obj 275 104 == 0;
#X obj 341 127 loadbang;
#X obj 115 153 openPath images/EB1.gif;
#X obj 242 153 openPath images/EB0.gif;
#X connect 0 0 4 0;
#X connect 0 0 5 0;
#X connect 2 0 3 0;
#X connect 3 0 7 0;
#X connect 3 0 6 0;
#X connect 4 0 9 0;
#X connect 5 0 10 0;
#X connect 6 0 4 1;
#X connect 7 0 5 1;
#X connect 8 0 10 0;
#X connect 9 0 1 0;
#X connect 10 0 1 0;
#X restore 126 265 pd white-keys-sub;
#N canvas 1100 685 542 300 white-keys-sub 0;
#X obj 106 46 inlet;
#X obj 106 199 outlet;
#X obj 106 145 openPath images/EB1.gif;
#X obj 233 145 openPath images/EB0.gif;
#X obj 266 67 tgl 15 0 empty empty empty 17 7 0 10 -262144 -1 -1 0
1;
#X obj 106 119 spigot;
#X obj 233 119 spigot;
#X obj 139 96 == 1;
#X obj 266 96 == 0;
#X obj 331 117 loadbang;
#X obj 266 38 r keyboard-abs-tgl1-\$0;
#X connect 0 0 5 0;
#X connect 0 0 6 0;
#X connect 2 0 1 0;
#X connect 3 0 1 0;
#X connect 4 0 8 0;
#X connect 4 0 7 0;
#X connect 5 0 2 0;
#X connect 6 0 3 0;
#X connect 7 0 5 1;
#X connect 8 0 6 1;
#X connect 9 0 3 0;
#X connect 10 0 4 0;
#X restore 186 105 pd white-keys-sub;
#N canvas 1286 690 450 300 white-keys-sub 0;
#X obj 84 45 inlet;
#X obj 84 198 outlet;
#X obj 244 37 r keyboard-abs-tgl1-\$0;
#X obj 244 66 tgl 15 0 empty empty empty 17 7 0 10 -262144 -1 -1 0
1;
#X obj 84 118 spigot;
#X obj 211 118 spigot;
#X obj 117 95 == 1;
#X obj 244 95 == 0;
#X obj 310 118 loadbang;
#X obj 211 144 openPath images/CF0.gif;
#X obj 84 144 openPath images/CF1.gif;
#X connect 0 0 4 0;
#X connect 0 0 5 0;
#X connect 2 0 3 0;
#X connect 3 0 7 0;
#X connect 3 0 6 0;
#X connect 4 0 10 0;
#X connect 5 0 9 0;
#X connect 6 0 4 1;
#X connect 7 0 5 1;
#X connect 8 0 9 0;
#X connect 9 0 1 0;
#X connect 10 0 1 0;
#X restore 141 225 pd white-keys-sub;
#N canvas 1288 689 450 300 white-keys-sub 0;
#X obj 95 34 inlet;
#X obj 95 187 outlet;
#X obj 255 26 r keyboard-abs-tgl1-\$0;
#X obj 255 55 tgl 15 0 empty empty empty 17 7 0 10 -262144 -1 -1 0
1;
#X obj 95 107 spigot;
#X obj 222 107 spigot;
#X obj 128 84 == 1;
#X obj 255 84 == 0;
#X obj 95 133 openPath images/DGA1.gif;
#X obj 222 133 openPath images/DGA0.gif;
#X obj 321 107 loadbang;
#X connect 0 0 4 0;
#X connect 0 0 5 0;
#X connect 2 0 3 0;
#X connect 3 0 7 0;
#X connect 3 0 6 0;
#X connect 4 0 8 0;
#X connect 5 0 9 0;
#X connect 6 0 4 1;
#X connect 7 0 5 1;
#X connect 8 0 1 0;
#X connect 9 0 1 0;
#X connect 10 0 9 0;
#X restore 156 185 pd white-keys-sub;
#N canvas 1284 691 450 300 white-keys-sub 0;
#X obj 105 44 inlet;
#X obj 105 197 outlet;
#X obj 265 36 r keyboard-abs-tgl1-\$0;
#X obj 265 65 tgl 15 0 empty empty empty 17 7 0 10 -262144 -1 -1 0
1;
#X obj 105 117 spigot;
#X obj 232 117 spigot;
#X obj 138 94 == 1;
#X obj 265 94 == 0;
#X obj 105 143 openPath images/DGA1.gif;
#X obj 232 143 openPath images/DGA0.gif;
#X obj 331 117 loadbang;
#X connect 0 0 4 0;
#X connect 0 0 5 0;
#X connect 2 0 3 0;
#X connect 3 0 7 0;
#X connect 3 0 6 0;
#X connect 4 0 8 0;
#X connect 5 0 9 0;
#X connect 6 0 4 1;
#X connect 7 0 5 1;
#X connect 8 0 1 0;
#X connect 9 0 1 0;
#X connect 10 0 9 0;
#X restore 171 145 pd white-keys-sub;
#X connect 0 0 2 0;
#X connect 2 0 10 0;
#X connect 2 1 11 0;
#X connect 2 2 12 0;
#X connect 2 3 14 0;
#X connect 2 4 15 0;
#X connect 2 5 16 0;
#X connect 2 6 13 0;
#X connect 9 0 8 0;
#X connect 9 0 7 0;
#X connect 9 0 6 0;
#X connect 9 0 5 0;
#X connect 9 0 4 0;
#X connect 9 0 3 0;
#X connect 9 0 1 0;
#X connect 10 0 1 0;
#X connect 11 0 3 0;
#X connect 12 0 4 0;
#X connect 13 0 8 0;
#X connect 14 0 5 0;
#X connect 15 0 6 0;
#X connect 16 0 7 0;
#X restore 328 246 pd white-keys;
#N canvas 712 413 344 434 black-keys 0;
#X obj 96 26 r keyboard-abs-pitch-class-\$0;
#X obj 96 275 outlet;
#X obj 112 235 outlet;
#X obj 128 195 outlet;
#X obj 144 155 outlet;
#X obj 160 115 outlet;
#X obj 31 98 inlet;
#X obj 96 53 sel 1 3 6 8 10;
#N canvas 1282 692 450 300 black-keys-sub 0;
#X obj 86 56 inlet;
#X obj 86 209 outlet;
#X obj 246 48 r keyboard-abs-tgl1-\$0;
#X obj 246 77 tgl 15 0 empty empty empty 17 7 0 10 -262144 -1 -1 0
1;
#X obj 86 129 spigot;
#X obj 213 129 spigot;
#X obj 119 106 == 1;
#X obj 246 106 == 0;
#X obj 311 127 loadbang;
#X obj 86 155 openPath images/sharps1.gif;
#X obj 213 155 openPath images/sharps0.gif;
#X connect 0 0 4 0;
#X connect 0 0 5 0;
#X connect 2 0 3 0;
#X connect 3 0 7 0;
#X connect 3 0 6 0;
#X connect 4 0 9 0;
#X connect 5 0 10 0;
#X connect 6 0 4 1;
#X connect 7 0 5 1;
#X connect 8 0 10 0;
#X connect 9 0 1 0;
#X connect 10 0 1 0;
#X restore 160 95 pd black-keys-sub;
#N canvas 1284 691 450 300 black-keys-sub 0;
#X obj 86 56 inlet;
#X obj 86 209 outlet;
#X obj 246 48 r keyboard-abs-tgl1-\$0;
#X obj 246 77 tgl 15 0 empty empty empty 17 7 0 10 -262144 -1 -1 0
1;
#X obj 86 129 spigot;
#X obj 213 129 spigot;
#X obj 119 106 == 1;
#X obj 246 106 == 0;
#X obj 311 127 loadbang;
#X obj 86 155 openPath images/sharps1.gif;
#X obj 213 155 openPath images/sharps0.gif;
#X connect 0 0 4 0;
#X connect 0 0 5 0;
#X connect 2 0 3 0;
#X connect 3 0 7 0;
#X connect 3 0 6 0;
#X connect 4 0 9 0;
#X connect 5 0 10 0;
#X connect 6 0 4 1;
#X connect 7 0 5 1;
#X connect 8 0 10 0;
#X connect 9 0 1 0;
#X connect 10 0 1 0;
#X restore 144 135 pd black-keys-sub;
#N canvas 1284 691 450 300 black-keys-sub 0;
#X obj 86 56 inlet;
#X obj 86 209 outlet;
#X obj 246 48 r keyboard-abs-tgl1-\$0;
#X obj 246 77 tgl 15 0 empty empty empty 17 7 0 10 -262144 -1 -1 0
1;
#X obj 86 129 spigot;
#X obj 213 129 spigot;
#X obj 119 106 == 1;
#X obj 246 106 == 0;
#X obj 311 127 loadbang;
#X obj 86 155 openPath images/sharps1.gif;
#X obj 213 155 openPath images/sharps0.gif;
#X connect 0 0 4 0;
#X connect 0 0 5 0;
#X connect 2 0 3 0;
#X connect 3 0 7 0;
#X connect 3 0 6 0;
#X connect 4 0 9 0;
#X connect 5 0 10 0;
#X connect 6 0 4 1;
#X connect 7 0 5 1;
#X connect 8 0 10 0;
#X connect 9 0 1 0;
#X connect 10 0 1 0;
#X restore 128 175 pd black-keys-sub;
#N canvas 1284 691 450 300 black-keys-sub 0;
#X obj 86 56 inlet;
#X obj 86 209 outlet;
#X obj 246 48 r keyboard-abs-tgl1-\$0;
#X obj 246 77 tgl 15 0 empty empty empty 17 7 0 10 -262144 -1 -1 0
1;
#X obj 86 129 spigot;
#X obj 213 129 spigot;
#X obj 119 106 == 1;
#X obj 246 106 == 0;
#X obj 311 127 loadbang;
#X obj 86 155 openPath images/sharps1.gif;
#X obj 213 155 openPath images/sharps0.gif;
#X connect 0 0 4 0;
#X connect 0 0 5 0;
#X connect 2 0 3 0;
#X connect 3 0 7 0;
#X connect 3 0 6 0;
#X connect 4 0 9 0;
#X connect 5 0 10 0;
#X connect 6 0 4 1;
#X connect 7 0 5 1;
#X connect 8 0 10 0;
#X connect 9 0 1 0;
#X connect 10 0 1 0;
#X restore 112 215 pd black-keys-sub;
#N canvas 1284 691 450 300 black-keys-sub 0;
#X obj 86 56 inlet;
#X obj 86 209 outlet;
#X obj 246 48 r keyboard-abs-tgl1-\$0;
#X obj 246 77 tgl 15 0 empty empty empty 17 7 0 10 -262144 -1 -1 0
1;
#X obj 86 129 spigot;
#X obj 213 129 spigot;
#X obj 119 106 == 1;
#X obj 246 106 == 0;
#X obj 311 127 loadbang;
#X obj 86 155 openPath images/sharps1.gif;
#X obj 213 155 openPath images/sharps0.gif;
#X connect 0 0 4 0;
#X connect 0 0 5 0;
#X connect 2 0 3 0;
#X connect 3 0 7 0;
#X connect 3 0 6 0;
#X connect 4 0 9 0;
#X connect 5 0 10 0;
#X connect 6 0 4 1;
#X connect 7 0 5 1;
#X connect 8 0 10 0;
#X connect 9 0 1 0;
#X connect 10 0 1 0;
#X restore 96 255 pd black-keys-sub;
#X connect 0 0 7 0;
#X connect 6 0 5 0;
#X connect 6 0 4 0;
#X connect 6 0 3 0;
#X connect 6 0 2 0;
#X connect 6 0 1 0;
#X connect 7 0 12 0;
#X connect 7 1 11 0;
#X connect 7 2 10 0;
#X connect 7 3 9 0;
#X connect 7 4 8 0;
#X connect 8 0 5 0;
#X connect 9 0 4 0;
#X connect 10 0 3 0;
#X connect 11 0 2 0;
#X connect 12 0 1 0;
#X restore 328 221 pd black-keys;
#X obj 285 168 loadbang;
#X msg 285 193 size 0 0;
#X obj 58 273 image /usr/lib/pd-extended/extra/ggee/logo100.gif;
#X obj 70 273 image /usr/lib/pd-extended/extra/ggee/logo100.gif;
#X obj 82 273 image /usr/lib/pd-extended/extra/ggee/logo100.gif;
#X obj 94 273 image /usr/lib/pd-extended/extra/ggee/logo100.gif;
#X obj 106 273 image /usr/lib/pd-extended/extra/ggee/logo100.gif;
#X obj 130 273 image /usr/lib/pd-extended/extra/ggee/logo100.gif;
#X obj 118 273 image /usr/lib/pd-extended/extra/ggee/logo100.gif;
#X obj 64 262 image /usr/lib/pd-extended/extra/ggee/logo100.gif;
#X obj 76 262 image /usr/lib/pd-extended/extra/ggee/logo100.gif;
#X obj 100 262 image /usr/lib/pd-extended/extra/ggee/logo100.gif;
#X obj 124 262 image /usr/lib/pd-extended/extra/ggee/logo100.gif;
#X obj 112 262 image /usr/lib/pd-extended/extra/ggee/logo100.gif;
#X obj 647 342 tgl 15 0 empty empty empty 17 7 0 10 -262144 -1 -1 0
1;
#X obj 478 400 *;
#X msg 508 368 127;
#X obj 508 342 loadbang;
#X obj 493 -15 inlet;
#X obj 478 429 s keyboard-abs-velocity-\$0;
#X connect 0 0 8 0;
#X connect 1 0 48 0;
#X connect 2 0 48 0;
#X connect 3 0 5 0;
#X connect 4 0 11 0;
#X connect 5 0 4 0;
#X connect 6 0 5 0;
#X connect 7 0 6 0;
#X connect 8 0 28 0;
#X connect 10 0 8 1;
#X connect 13 0 12 0;
#X connect 14 0 13 0;
#X connect 15 0 13 1;
#X connect 16 0 9 0;
#X connect 18 0 19 1;
#X connect 19 0 17 0;
#X connect 20 0 21 0;
#X connect 21 0 19 0;
#X connect 22 0 19 1;
#X connect 23 0 22 0;
#X connect 24 0 101 0;
#X connect 25 0 101 0;
#X connect 25 0 102 0;
#X connect 26 0 24 0;
#X connect 29 0 25 0;
#X connect 29 0 1 0;
#X connect 30 0 25 0;
#X connect 30 0 1 0;
#X connect 31 0 25 0;
#X connect 31 0 1 0;
#X connect 32 0 25 0;
#X connect 32 0 2 0;
#X connect 33 0 25 0;
#X connect 33 0 1 0;
#X connect 34 0 25 0;
#X connect 34 0 1 0;
#X connect 35 0 25 0;
#X connect 35 0 1 0;
#X connect 36 0 25 0;
#X connect 36 0 2 0;
#X connect 37 0 25 0;
#X connect 37 0 2 0;
#X connect 38 0 48 0;
#X connect 39 0 48 0;
#X connect 40 0 48 0;
#X connect 41 0 48 0;
#X connect 42 0 48 0;
#X connect 43 0 48 0;
#X connect 44 0 48 0;
#X connect 45 0 48 0;
#X connect 46 0 48 0;
#X connect 47 0 48 0;
#X connect 49 0 25 0;
#X connect 49 0 42 0;
#X connect 50 0 25 0;
#X connect 50 0 42 0;
#X connect 51 0 25 0;
#X connect 51 0 47 0;
#X connect 52 0 25 0;
#X connect 52 0 47 0;
#X connect 53 0 25 0;
#X connect 53 0 47 0;
#X connect 54 0 25 0;
#X connect 54 0 43 0;
#X connect 55 0 25 0;
#X connect 55 0 43 0;
#X connect 56 0 25 0;
#X connect 56 0 46 0;
#X connect 57 0 25 0;
#X connect 57 0 46 0;
#X connect 58 0 25 0;
#X connect 58 0 46 0;
#X connect 59 0 25 0;
#X connect 59 0 40 0;
#X connect 60 0 25 0;
#X connect 60 0 40 0;
#X connect 61 0 25 0;
#X connect 61 0 40 0;
#X connect 62 0 25 0;
#X connect 62 0 45 0;
#X connect 63 0 25 0;
#X connect 63 0 40 0;
#X connect 64 0 25 0;
#X connect 64 0 40 0;
#X connect 65 0 25 0;
#X connect 65 0 40 0;
#X connect 66 0 25 0;
#X connect 66 0 45 0;
#X connect 67 0 25 0;
#X connect 67 0 45 0;
#X connect 68 0 25 0;
#X connect 68 0 39 0;
#X connect 69 0 25 0;
#X connect 69 0 39 0;
#X connect 70 0 25 0;
#X connect 70 0 44 0;
#X connect 71 0 25 0;
#X connect 71 0 44 0;
#X connect 72 0 25 0;
#X connect 72 0 44 0;
#X connect 73 0 25 0;
#X connect 73 0 41 0;
#X connect 74 0 25 0;
#X connect 74 0 41 0;
#X connect 75 0 25 0;
#X connect 75 0 41 0;
#X connect 76 0 25 0;
#X connect 76 0 41 0;
#X connect 77 0 25 0;
#X connect 77 0 41 0;
#X connect 78 0 25 0;
#X connect 78 0 41 0;
#X connect 79 0 25 0;
#X connect 79 0 38 0;
#X connect 80 0 25 0;
#X connect 80 0 38 0;
#X connect 81 0 25 0;
#X connect 81 0 38 0;
#X connect 82 0 25 0;
#X connect 82 0 38 0;
#X connect 83 0 25 0;
#X connect 83 0 38 0;
#X connect 84 0 25 0;
#X connect 84 0 38 0;
#X connect 85 0 89 0;
#X connect 85 1 90 0;
#X connect 85 2 91 0;
#X connect 85 3 92 0;
#X connect 85 4 93 0;
#X connect 85 5 95 0;
#X connect 85 6 94 0;
#X connect 86 0 96 0;
#X connect 86 1 97 0;
#X connect 86 2 98 0;
#X connect 86 3 100 0;
#X connect 86 4 99 0;
#X connect 87 0 88 0;
#X connect 88 0 85 0;
#X connect 88 0 86 0;
#X connect 101 0 27 0;
#X connect 102 0 106 0;
#X connect 103 0 102 1;
#X connect 104 0 103 0;
#X connect 105 0 102 1;
#X coords 0 -1 1 1 84 52 2 52 247;
