#N canvas 675 410 450 302 10;
#X obj 100 27 MouseState;
#X obj 100 51 tgl 15 0 empty empty empty 17 7 0 10 -262144 -1 -1 0
1;
#X obj 100 80 sel 0;
#X obj 100 130 tgl 10 0 empty empty empty 17 7 0 10 -262144 -1 -1 0
1;
#X msg 100 106 0;
#X obj 100 225 outlet;
#X connect 0 0 1 0;
#X connect 1 0 2 0;
#X connect 2 0 4 0;
#X connect 3 0 5 0;
#X connect 4 0 3 0;
#X coords 0 -1 1 1 10 10 2 100 130;
