#N canvas 342 226 671 512 10;
#X text 297 426 adapted from chaosmoon patch from: http://forum.pdpatchrepo.info/topic/683/random-that-doesn-t-repeat
;
#X floatatom 71 169 5 0 0 0 - - -, f 5;
#X obj 71 128 bng 15 250 50 0 empty empty empty 17 7 0 10 -262144 -1
-1;
#X floatatom 71 379 5 0 0 0 - - -, f 5;
#X obj 71 338 bng 15 250 50 0 empty empty empty 17 7 0 10 -262144 -1
-1;
#X obj 71 358 mrand -1;
#X text 130 356 any argument smaller than 2 will be considered as a
2;
#X obj 71 148 mrand 4;
#X text 124 141 [mrand] always takes a single argument \, just like
the regular [random];
#X text 68 53 [mrand] : a random number generator that never repeats
its last result;
#X floatatom 71 289 5 0 0 0 - - -, f 5;
#X obj 71 238 bng 15 250 50 0 empty empty empty 17 7 0 10 -262144 -1
-1;
#X text 171 238 you can initialize it with a seed of your own;
#X msg 116 238 seed 42;
#X obj 116 216 loadbang;
#X obj 71 268 mrand 13;
#X connect 2 0 7 0;
#X connect 4 0 5 0;
#X connect 5 0 3 0;
#X connect 7 0 1 0;
#X connect 11 0 15 0;
#X connect 13 0 15 0;
#X connect 14 0 13 0;
#X connect 15 0 10 0;
