#N canvas 342 226 671 512 10;
#X obj 276 268 spigot;
#X obj 303 237 t f f;
#X obj 227 268 sel 0;
#X obj 276 186 t f f;
#X obj 233 18 inlet;
#X obj 318 80 inlet;
#X obj 318 102 \$1;
#X obj 276 145 random 2, f 14;
#X obj 276 320 outlet;
#X obj 227 290 delay 0;
#X obj 303 211 != -1;
#X obj 360 80 loadbang;
#X text 297 426 adapted from chaosmoon patch from: http://forum.pdpatchrepo.info/topic/683/random-that-doesn-t-repeat
;
#X obj 318 123 moses 2;
#X msg 217 91 seed \$1;
#X obj 233 46 route seed bang;
#X connect 0 0 8 0;
#X connect 0 0 10 1;
#X connect 1 0 2 0;
#X connect 1 1 0 1;
#X connect 2 0 9 0;
#X connect 3 0 0 0;
#X connect 3 1 10 0;
#X connect 4 0 15 0;
#X connect 5 0 6 0;
#X connect 6 0 13 0;
#X connect 7 0 3 0;
#X connect 9 0 7 0;
#X connect 10 0 1 0;
#X connect 11 0 6 0;
#X connect 13 1 7 1;
#X connect 14 0 7 0;
#X connect 15 0 14 0;
#X connect 15 1 7 0;
