#N canvas 1 80 657 524 10;
#X obj 145 84 fshift~, f 16;
#X floatatom 238 60 5 0 0 0 - - -, f 5;
#X obj 301 84 fshift~, f 16;
#X obj 145 63 osc~ 220;
#X obj 394 61 line~;
#X obj 74 236 spectrogram~;
#X obj 145 145 multiplex~;
#X obj 145 178 output~;
#X obj 107 116 tgl 15 0 empty empty empty 17 7 0 10 -262144 -1 -1 0
1;
#X obj 301 63 phasor~ 1000;
#X msg 394 40 0 \, 800 3000;
#X text 41 115 source 1-2;
#X text 176 35 source 1;
#X text 324 31 source 2;
#X text 470 40 <- click here to sweep;
#X text 303 511 by Gilberto Agostinho \, from: http://forum.pdpatchrepo.info/topic/7089/freqshift-in-sigpack/3
, f 63;
#X connect 0 0 6 0;
#X connect 1 0 0 1;
#X connect 2 0 6 1;
#X connect 3 0 0 0;
#X connect 4 0 2 1;
#X connect 6 0 7 0;
#X connect 6 0 7 1;
#X connect 6 0 5 0;
#X connect 8 0 6 0;
#X connect 9 0 2 0;
#X connect 10 0 4 0;
