#N canvas 397 284 1062 616 10;
#X floatatom 265 509 5 0 0 0 - - -, f 5;
#X floatatom 342 509 5 0 0 0 - - -, f 5;
#X text 311 28 MIDI note 60;
#X floatatom 342 408 5 0 0 0 - - -, f 5;
#X text 778 329 default transposition and playing note 60;
#X text 736 277 transpose 2 octaves below default and play note 36
;
#X msg 284 55 60 0;
#X text 323 55 MIDI note 60 \, velocity 0 (note off);
#X msg 308 123 71 64;
#X obj 358 104 delay 1000;
#X text 334 81 MIDI note 71 \, velocity 64 \, duration 1000 ms;
#X msg 358 123 71 0;
#X obj 308 79 bng 15 250 50 0 empty empty empty 17 7 0 10 -262144 -1
-1;
#X msg 496 202 60 0 \, 64 0 \, 67 0;
#X msg 435 241 transpose 1 \, 72 127;
#X obj 265 543 noteout;
#X obj 363 153 bng 15 250 50 0 empty empty empty 17 7 0 10 -262144
-1 -1;
#X obj 496 183 delay 400;
#X text 607 234 transpose 1 octave above default and play note 72 (all
notes after this will continue to be transposed!);
#X msg 564 241 72 0;
#X msg 695 279 36 0;
#X msg 731 330 60 0;
#X msg 599 330 transpose 0 \, 60 127;
#X msg 563 279 transpose -2 \, 36 127;
#X text 376 406 velocity (used only for mouse clicking on the keyboard)
;
#X obj 135 225 seq;
#X obj 135 176 loadbang;
#X msg 135 198 read chopin.mid;
#X obj 135 248 midiparse;
#X msg 49 182 stop;
#X msg 11 182 bang;
#X msg 89 182 pause;
#X text 87 415 sends note off to all notes;
#X text 7 152 it can also be used to play a midifile;
#X text 379 511 velocity;
#X text 203 508 MIDI note;
#X msg 363 202 60 32 \, 64 32 \, 67 32;
#X text 382 152 C major chord with velocity = 32 \, duration = 400
ms;
#X msg 49 417 flush;
#X obj 265 434 keyboardS;
#X text 906 576 by Gilberto Agostinho;
#X msg 265 29 60 127;
#X text 389 28 (default velocity = 127);
#X connect 0 0 15 0;
#X connect 1 0 15 1;
#X connect 3 0 39 1;
#X connect 6 0 39 0;
#X connect 8 0 39 0;
#X connect 9 0 11 0;
#X connect 11 0 39 0;
#X connect 12 0 8 0;
#X connect 12 0 9 0;
#X connect 13 0 39 0;
#X connect 14 0 39 0;
#X connect 16 0 17 0;
#X connect 16 0 36 0;
#X connect 17 0 13 0;
#X connect 19 0 39 0;
#X connect 20 0 39 0;
#X connect 21 0 39 0;
#X connect 22 0 39 0;
#X connect 23 0 39 0;
#X connect 25 0 28 0;
#X connect 26 0 27 0;
#X connect 27 0 25 0;
#X connect 28 0 39 0;
#X connect 29 0 25 0;
#X connect 29 0 38 0;
#X connect 30 0 25 0;
#X connect 31 0 25 0;
#X connect 36 0 39 0;
#X connect 38 0 39 0;
#X connect 39 0 0 0;
#X connect 39 1 1 0;
#X connect 41 0 39 0;
