#N canvas 817 278 610 351 10;
#X text 351 266 by Gilberto Agostinho;
#X text 131 31 Interface for Alesis V49;
#X text 125 113 List of send names:V49-pitch \, V49-velocity \, V49-pitchbend
\, V49-modulation \, V49-knob1 \, V49-knob2 \, V49-knob3 \, V49-knob4
\, V49-pad1 \, V49-pad2 \, V49-pad3 \, V49-pad4 \, V49-pad5 \, V49-pad6
\, V49-pad7 \, V49-pad8 \, V49-pad1touch \, V49-pad2touch \, V49-pad3touch
\, V49-pad4touch \, V49-pad5touch \, V49-pad6touch \, V49-pad7touch
\, V49-pad8touch \, V49-toggle1 \, V49-toggle2 \, V49-toggle3 \, V49-toggle4
;
#X obj 128 69 V49-interface-nogui;
#X coords 0 0 1 1 795 184 0;
