#N canvas 384 417 607 360 10;
#X obj 32 266 output~;
#X text 465 308 by Gilberto Agostinho;
#X msg 62 184 clear;
#X msg 46 161 440 0.3;
#X obj 558 13 dsp;
#X floatatom 558 34 5 0 0 0 - - -;
#X text 103 162 a single frequency;
#X text 107 185 this message will silent all oscillators;
#X text 29 2 harmonics~ : oscillator bank;
#X msg 32 138 220 0.3 0.2 0.75 0.33 0.1;
#X text 196 138 fundamental and list of amplitudes;
#X text 29 19 inlet: list containing one single frequency followed
by a series of amplitudes (fundamental + n overtones). Default [harmonics~]
can handle up to 31 harmonics + fundamental \, but if more oscillators
are needed \, then use [harmonics.64~] or [harmonics.128~]. Warning:
the more oscillators the more CPU load. A message [clear( can also
be sent to the inlet to clear all oscillators.;
#X msg 68 206 256 0.2 0.2 0.2;
#X obj 32 235 harmonics~;
#X connect 2 0 13 0;
#X connect 3 0 13 0;
#X connect 4 0 5 0;
#X connect 9 0 13 0;
#X connect 12 0 13 0;
#X connect 13 0 0 0;
#X connect 13 0 0 1;
