#N canvas 856 150 746 673 10;
#X obj 381 170 list split 1;
#X obj 277 252 i;
#X obj 314 252 + 1;
#X obj 277 283 *, f 9;
#X obj 277 359 list;
#X obj 277 335 list prepend, f 48;
#X obj 415 191 drip;
#X obj 415 212 t b f;
#X obj 277 308 pack f f, f 28;
#X msg 291 170 1;
#X msg 562 308 bang;
#X obj 203 392 list, f 13;
#X obj 202 143 t b b l l b, f 60;
#X obj 470 220 list split 1;
#X obj 202 89 inlet;
#X obj 202 110 route list, f 13;
#X obj 203 474 outlet~;
#N canvas 710 340 450 289 sinusoids~ 0;
#X obj 112 88 inlet;
#X obj 264 152 outlet~;
#X obj 264 131 catch~ \$0-sinusoids;
#N canvas 993 125 450 744 32-oscillators 0;
#N canvas 200 602 372 363 osc~ 0;
#X obj 149 235 pack f 10;
#X obj 149 257 line~;
#X obj 92 276 *~;
#X obj 92 163 list split 2;
#X obj 92 194 unpack f f;
#X obj 92 239 osc~;
#X obj 92 14 inlet;
#X obj 262 196 outlet;
#X msg 224 89 0;
#X obj 119 135 switch~;
#X obj 92 66 t l b;
#X obj 174 89 del 10;
#X msg 174 110 0;
#X msg 119 110 1;
#X obj 92 35 route list bang clear;
#X obj 92 298 throw~ \$0-sinusoids;
#X msg 262 89 clear;
#X obj 174 66 t b b b;
#X connect 0 0 1 0;
#X connect 1 0 2 1;
#X connect 2 0 15 0;
#X connect 3 0 4 0;
#X connect 3 1 7 0;
#X connect 4 0 5 0;
#X connect 4 1 0 0;
#X connect 5 0 2 0;
#X connect 6 0 14 0;
#X connect 8 0 0 0;
#X connect 10 0 3 0;
#X connect 10 1 13 0;
#X connect 11 0 12 0;
#X connect 12 0 9 0;
#X connect 13 0 9 0;
#X connect 14 0 10 0;
#X connect 14 1 17 0;
#X connect 14 2 17 0;
#X connect 16 0 7 0;
#X connect 17 0 11 0;
#X connect 17 1 8 0;
#X connect 17 2 16 0;
#X restore 165 -403 pd osc~;
#X obj 165 -435 inlet;
#X obj 165 248 outlet;
#N canvas 200 602 372 363 osc~ 0;
#X obj 149 235 pack f 10;
#X obj 149 257 line~;
#X obj 92 276 *~;
#X obj 92 163 list split 2;
#X obj 92 194 unpack f f;
#X obj 92 239 osc~;
#X obj 92 14 inlet;
#X obj 262 196 outlet;
#X msg 224 89 0;
#X obj 119 135 switch~;
#X obj 92 66 t l b;
#X obj 174 89 del 10;
#X msg 174 110 0;
#X msg 119 110 1;
#X obj 92 35 route list bang clear;
#X obj 92 298 throw~ \$0-sinusoids;
#X msg 262 89 clear;
#X obj 174 66 t b b b;
#X connect 0 0 1 0;
#X connect 1 0 2 1;
#X connect 2 0 15 0;
#X connect 3 0 4 0;
#X connect 3 1 7 0;
#X connect 4 0 5 0;
#X connect 4 1 0 0;
#X connect 5 0 2 0;
#X connect 6 0 14 0;
#X connect 8 0 0 0;
#X connect 10 0 3 0;
#X connect 10 1 13 0;
#X connect 11 0 12 0;
#X connect 12 0 9 0;
#X connect 13 0 9 0;
#X connect 14 0 10 0;
#X connect 14 1 17 0;
#X connect 14 2 17 0;
#X connect 16 0 7 0;
#X connect 17 0 11 0;
#X connect 17 1 8 0;
#X connect 17 2 16 0;
#X restore 165 -383 pd osc~;
#N canvas 200 602 372 363 osc~ 0;
#X obj 149 235 pack f 10;
#X obj 149 257 line~;
#X obj 92 276 *~;
#X obj 92 163 list split 2;
#X obj 92 194 unpack f f;
#X obj 92 239 osc~;
#X obj 92 14 inlet;
#X obj 262 196 outlet;
#X msg 224 89 0;
#X obj 119 135 switch~;
#X obj 92 66 t l b;
#X obj 174 89 del 10;
#X msg 174 110 0;
#X msg 119 110 1;
#X obj 92 35 route list bang clear;
#X obj 92 298 throw~ \$0-sinusoids;
#X msg 262 89 clear;
#X obj 174 66 t b b b;
#X connect 0 0 1 0;
#X connect 1 0 2 1;
#X connect 2 0 15 0;
#X connect 3 0 4 0;
#X connect 3 1 7 0;
#X connect 4 0 5 0;
#X connect 4 1 0 0;
#X connect 5 0 2 0;
#X connect 6 0 14 0;
#X connect 8 0 0 0;
#X connect 10 0 3 0;
#X connect 10 1 13 0;
#X connect 11 0 12 0;
#X connect 12 0 9 0;
#X connect 13 0 9 0;
#X connect 14 0 10 0;
#X connect 14 1 17 0;
#X connect 14 2 17 0;
#X connect 16 0 7 0;
#X connect 17 0 11 0;
#X connect 17 1 8 0;
#X connect 17 2 16 0;
#X restore 165 -363 pd osc~;
#N canvas 200 602 372 363 osc~ 0;
#X obj 149 235 pack f 10;
#X obj 149 257 line~;
#X obj 92 276 *~;
#X obj 92 163 list split 2;
#X obj 92 194 unpack f f;
#X obj 92 239 osc~;
#X obj 92 14 inlet;
#X obj 262 196 outlet;
#X msg 224 89 0;
#X obj 119 135 switch~;
#X obj 92 66 t l b;
#X obj 174 89 del 10;
#X msg 174 110 0;
#X msg 119 110 1;
#X obj 92 35 route list bang clear;
#X obj 92 298 throw~ \$0-sinusoids;
#X msg 262 89 clear;
#X obj 174 66 t b b b;
#X connect 0 0 1 0;
#X connect 1 0 2 1;
#X connect 2 0 15 0;
#X connect 3 0 4 0;
#X connect 3 1 7 0;
#X connect 4 0 5 0;
#X connect 4 1 0 0;
#X connect 5 0 2 0;
#X connect 6 0 14 0;
#X connect 8 0 0 0;
#X connect 10 0 3 0;
#X connect 10 1 13 0;
#X connect 11 0 12 0;
#X connect 12 0 9 0;
#X connect 13 0 9 0;
#X connect 14 0 10 0;
#X connect 14 1 17 0;
#X connect 14 2 17 0;
#X connect 16 0 7 0;
#X connect 17 0 11 0;
#X connect 17 1 8 0;
#X connect 17 2 16 0;
#X restore 165 -343 pd osc~;
#N canvas 200 602 372 363 osc~ 0;
#X obj 149 235 pack f 10;
#X obj 149 257 line~;
#X obj 92 276 *~;
#X obj 92 163 list split 2;
#X obj 92 194 unpack f f;
#X obj 92 239 osc~;
#X obj 92 14 inlet;
#X obj 262 196 outlet;
#X msg 224 89 0;
#X obj 119 135 switch~;
#X obj 92 66 t l b;
#X obj 174 89 del 10;
#X msg 174 110 0;
#X msg 119 110 1;
#X obj 92 35 route list bang clear;
#X obj 92 298 throw~ \$0-sinusoids;
#X msg 262 89 clear;
#X obj 174 66 t b b b;
#X connect 0 0 1 0;
#X connect 1 0 2 1;
#X connect 2 0 15 0;
#X connect 3 0 4 0;
#X connect 3 1 7 0;
#X connect 4 0 5 0;
#X connect 4 1 0 0;
#X connect 5 0 2 0;
#X connect 6 0 14 0;
#X connect 8 0 0 0;
#X connect 10 0 3 0;
#X connect 10 1 13 0;
#X connect 11 0 12 0;
#X connect 12 0 9 0;
#X connect 13 0 9 0;
#X connect 14 0 10 0;
#X connect 14 1 17 0;
#X connect 14 2 17 0;
#X connect 16 0 7 0;
#X connect 17 0 11 0;
#X connect 17 1 8 0;
#X connect 17 2 16 0;
#X restore 165 -323 pd osc~;
#N canvas 200 602 372 363 osc~ 0;
#X obj 149 235 pack f 10;
#X obj 149 257 line~;
#X obj 92 276 *~;
#X obj 92 163 list split 2;
#X obj 92 194 unpack f f;
#X obj 92 239 osc~;
#X obj 92 14 inlet;
#X obj 262 196 outlet;
#X msg 224 89 0;
#X obj 119 135 switch~;
#X obj 92 66 t l b;
#X obj 174 89 del 10;
#X msg 174 110 0;
#X msg 119 110 1;
#X obj 92 35 route list bang clear;
#X obj 92 298 throw~ \$0-sinusoids;
#X msg 262 89 clear;
#X obj 174 66 t b b b;
#X connect 0 0 1 0;
#X connect 1 0 2 1;
#X connect 2 0 15 0;
#X connect 3 0 4 0;
#X connect 3 1 7 0;
#X connect 4 0 5 0;
#X connect 4 1 0 0;
#X connect 5 0 2 0;
#X connect 6 0 14 0;
#X connect 8 0 0 0;
#X connect 10 0 3 0;
#X connect 10 1 13 0;
#X connect 11 0 12 0;
#X connect 12 0 9 0;
#X connect 13 0 9 0;
#X connect 14 0 10 0;
#X connect 14 1 17 0;
#X connect 14 2 17 0;
#X connect 16 0 7 0;
#X connect 17 0 11 0;
#X connect 17 1 8 0;
#X connect 17 2 16 0;
#X restore 165 -303 pd osc~;
#N canvas 200 602 372 363 osc~ 0;
#X obj 149 235 pack f 10;
#X obj 149 257 line~;
#X obj 92 276 *~;
#X obj 92 163 list split 2;
#X obj 92 194 unpack f f;
#X obj 92 239 osc~;
#X obj 92 14 inlet;
#X obj 262 196 outlet;
#X msg 224 89 0;
#X obj 119 135 switch~;
#X obj 92 66 t l b;
#X obj 174 89 del 10;
#X msg 174 110 0;
#X msg 119 110 1;
#X obj 92 35 route list bang clear;
#X obj 92 298 throw~ \$0-sinusoids;
#X msg 262 89 clear;
#X obj 174 66 t b b b;
#X connect 0 0 1 0;
#X connect 1 0 2 1;
#X connect 2 0 15 0;
#X connect 3 0 4 0;
#X connect 3 1 7 0;
#X connect 4 0 5 0;
#X connect 4 1 0 0;
#X connect 5 0 2 0;
#X connect 6 0 14 0;
#X connect 8 0 0 0;
#X connect 10 0 3 0;
#X connect 10 1 13 0;
#X connect 11 0 12 0;
#X connect 12 0 9 0;
#X connect 13 0 9 0;
#X connect 14 0 10 0;
#X connect 14 1 17 0;
#X connect 14 2 17 0;
#X connect 16 0 7 0;
#X connect 17 0 11 0;
#X connect 17 1 8 0;
#X connect 17 2 16 0;
#X restore 165 -283 pd osc~;
#N canvas 200 602 372 363 osc~ 0;
#X obj 149 235 pack f 10;
#X obj 149 257 line~;
#X obj 92 276 *~;
#X obj 92 163 list split 2;
#X obj 92 194 unpack f f;
#X obj 92 239 osc~;
#X obj 92 14 inlet;
#X obj 262 196 outlet;
#X msg 224 89 0;
#X obj 119 135 switch~;
#X obj 92 66 t l b;
#X obj 174 89 del 10;
#X msg 174 110 0;
#X msg 119 110 1;
#X obj 92 35 route list bang clear;
#X obj 92 298 throw~ \$0-sinusoids;
#X msg 262 89 clear;
#X obj 174 66 t b b b;
#X connect 0 0 1 0;
#X connect 1 0 2 1;
#X connect 2 0 15 0;
#X connect 3 0 4 0;
#X connect 3 1 7 0;
#X connect 4 0 5 0;
#X connect 4 1 0 0;
#X connect 5 0 2 0;
#X connect 6 0 14 0;
#X connect 8 0 0 0;
#X connect 10 0 3 0;
#X connect 10 1 13 0;
#X connect 11 0 12 0;
#X connect 12 0 9 0;
#X connect 13 0 9 0;
#X connect 14 0 10 0;
#X connect 14 1 17 0;
#X connect 14 2 17 0;
#X connect 16 0 7 0;
#X connect 17 0 11 0;
#X connect 17 1 8 0;
#X connect 17 2 16 0;
#X restore 165 -263 pd osc~;
#N canvas 200 602 372 363 osc~ 0;
#X obj 149 235 pack f 10;
#X obj 149 257 line~;
#X obj 92 276 *~;
#X obj 92 163 list split 2;
#X obj 92 194 unpack f f;
#X obj 92 239 osc~;
#X obj 92 14 inlet;
#X obj 262 196 outlet;
#X msg 224 89 0;
#X obj 119 135 switch~;
#X obj 92 66 t l b;
#X obj 174 89 del 10;
#X msg 174 110 0;
#X msg 119 110 1;
#X obj 92 35 route list bang clear;
#X obj 92 298 throw~ \$0-sinusoids;
#X msg 262 89 clear;
#X obj 174 66 t b b b;
#X connect 0 0 1 0;
#X connect 1 0 2 1;
#X connect 2 0 15 0;
#X connect 3 0 4 0;
#X connect 3 1 7 0;
#X connect 4 0 5 0;
#X connect 4 1 0 0;
#X connect 5 0 2 0;
#X connect 6 0 14 0;
#X connect 8 0 0 0;
#X connect 10 0 3 0;
#X connect 10 1 13 0;
#X connect 11 0 12 0;
#X connect 12 0 9 0;
#X connect 13 0 9 0;
#X connect 14 0 10 0;
#X connect 14 1 17 0;
#X connect 14 2 17 0;
#X connect 16 0 7 0;
#X connect 17 0 11 0;
#X connect 17 1 8 0;
#X connect 17 2 16 0;
#X restore 165 -243 pd osc~;
#N canvas 200 602 372 363 osc~ 0;
#X obj 149 235 pack f 10;
#X obj 149 257 line~;
#X obj 92 276 *~;
#X obj 92 163 list split 2;
#X obj 92 194 unpack f f;
#X obj 92 239 osc~;
#X obj 92 14 inlet;
#X obj 262 196 outlet;
#X msg 224 89 0;
#X obj 119 135 switch~;
#X obj 92 66 t l b;
#X obj 174 89 del 10;
#X msg 174 110 0;
#X msg 119 110 1;
#X obj 92 35 route list bang clear;
#X obj 92 298 throw~ \$0-sinusoids;
#X msg 262 89 clear;
#X obj 174 66 t b b b;
#X connect 0 0 1 0;
#X connect 1 0 2 1;
#X connect 2 0 15 0;
#X connect 3 0 4 0;
#X connect 3 1 7 0;
#X connect 4 0 5 0;
#X connect 4 1 0 0;
#X connect 5 0 2 0;
#X connect 6 0 14 0;
#X connect 8 0 0 0;
#X connect 10 0 3 0;
#X connect 10 1 13 0;
#X connect 11 0 12 0;
#X connect 12 0 9 0;
#X connect 13 0 9 0;
#X connect 14 0 10 0;
#X connect 14 1 17 0;
#X connect 14 2 17 0;
#X connect 16 0 7 0;
#X connect 17 0 11 0;
#X connect 17 1 8 0;
#X connect 17 2 16 0;
#X restore 165 -223 pd osc~;
#N canvas 200 602 372 363 osc~ 0;
#X obj 149 235 pack f 10;
#X obj 149 257 line~;
#X obj 92 276 *~;
#X obj 92 163 list split 2;
#X obj 92 194 unpack f f;
#X obj 92 239 osc~;
#X obj 92 14 inlet;
#X obj 262 196 outlet;
#X msg 224 89 0;
#X obj 119 135 switch~;
#X obj 92 66 t l b;
#X obj 174 89 del 10;
#X msg 174 110 0;
#X msg 119 110 1;
#X obj 92 35 route list bang clear;
#X obj 92 298 throw~ \$0-sinusoids;
#X msg 262 89 clear;
#X obj 174 66 t b b b;
#X connect 0 0 1 0;
#X connect 1 0 2 1;
#X connect 2 0 15 0;
#X connect 3 0 4 0;
#X connect 3 1 7 0;
#X connect 4 0 5 0;
#X connect 4 1 0 0;
#X connect 5 0 2 0;
#X connect 6 0 14 0;
#X connect 8 0 0 0;
#X connect 10 0 3 0;
#X connect 10 1 13 0;
#X connect 11 0 12 0;
#X connect 12 0 9 0;
#X connect 13 0 9 0;
#X connect 14 0 10 0;
#X connect 14 1 17 0;
#X connect 14 2 17 0;
#X connect 16 0 7 0;
#X connect 17 0 11 0;
#X connect 17 1 8 0;
#X connect 17 2 16 0;
#X restore 165 -203 pd osc~;
#N canvas 200 602 372 363 osc~ 0;
#X obj 149 235 pack f 10;
#X obj 149 257 line~;
#X obj 92 276 *~;
#X obj 92 163 list split 2;
#X obj 92 194 unpack f f;
#X obj 92 239 osc~;
#X obj 92 14 inlet;
#X obj 262 196 outlet;
#X msg 224 89 0;
#X obj 119 135 switch~;
#X obj 92 66 t l b;
#X obj 174 89 del 10;
#X msg 174 110 0;
#X msg 119 110 1;
#X obj 92 35 route list bang clear;
#X obj 92 298 throw~ \$0-sinusoids;
#X msg 262 89 clear;
#X obj 174 66 t b b b;
#X connect 0 0 1 0;
#X connect 1 0 2 1;
#X connect 2 0 15 0;
#X connect 3 0 4 0;
#X connect 3 1 7 0;
#X connect 4 0 5 0;
#X connect 4 1 0 0;
#X connect 5 0 2 0;
#X connect 6 0 14 0;
#X connect 8 0 0 0;
#X connect 10 0 3 0;
#X connect 10 1 13 0;
#X connect 11 0 12 0;
#X connect 12 0 9 0;
#X connect 13 0 9 0;
#X connect 14 0 10 0;
#X connect 14 1 17 0;
#X connect 14 2 17 0;
#X connect 16 0 7 0;
#X connect 17 0 11 0;
#X connect 17 1 8 0;
#X connect 17 2 16 0;
#X restore 165 -183 pd osc~;
#N canvas 200 602 372 363 osc~ 0;
#X obj 149 235 pack f 10;
#X obj 149 257 line~;
#X obj 92 276 *~;
#X obj 92 163 list split 2;
#X obj 92 194 unpack f f;
#X obj 92 239 osc~;
#X obj 92 14 inlet;
#X obj 262 196 outlet;
#X msg 224 89 0;
#X obj 119 135 switch~;
#X obj 92 66 t l b;
#X obj 174 89 del 10;
#X msg 174 110 0;
#X msg 119 110 1;
#X obj 92 35 route list bang clear;
#X obj 92 298 throw~ \$0-sinusoids;
#X msg 262 89 clear;
#X obj 174 66 t b b b;
#X connect 0 0 1 0;
#X connect 1 0 2 1;
#X connect 2 0 15 0;
#X connect 3 0 4 0;
#X connect 3 1 7 0;
#X connect 4 0 5 0;
#X connect 4 1 0 0;
#X connect 5 0 2 0;
#X connect 6 0 14 0;
#X connect 8 0 0 0;
#X connect 10 0 3 0;
#X connect 10 1 13 0;
#X connect 11 0 12 0;
#X connect 12 0 9 0;
#X connect 13 0 9 0;
#X connect 14 0 10 0;
#X connect 14 1 17 0;
#X connect 14 2 17 0;
#X connect 16 0 7 0;
#X connect 17 0 11 0;
#X connect 17 1 8 0;
#X connect 17 2 16 0;
#X restore 165 -163 pd osc~;
#N canvas 200 602 372 363 osc~ 0;
#X obj 149 235 pack f 10;
#X obj 149 257 line~;
#X obj 92 276 *~;
#X obj 92 163 list split 2;
#X obj 92 194 unpack f f;
#X obj 92 239 osc~;
#X obj 92 14 inlet;
#X obj 262 196 outlet;
#X msg 224 89 0;
#X obj 119 135 switch~;
#X obj 92 66 t l b;
#X obj 174 89 del 10;
#X msg 174 110 0;
#X msg 119 110 1;
#X obj 92 35 route list bang clear;
#X obj 92 298 throw~ \$0-sinusoids;
#X msg 262 89 clear;
#X obj 174 66 t b b b;
#X connect 0 0 1 0;
#X connect 1 0 2 1;
#X connect 2 0 15 0;
#X connect 3 0 4 0;
#X connect 3 1 7 0;
#X connect 4 0 5 0;
#X connect 4 1 0 0;
#X connect 5 0 2 0;
#X connect 6 0 14 0;
#X connect 8 0 0 0;
#X connect 10 0 3 0;
#X connect 10 1 13 0;
#X connect 11 0 12 0;
#X connect 12 0 9 0;
#X connect 13 0 9 0;
#X connect 14 0 10 0;
#X connect 14 1 17 0;
#X connect 14 2 17 0;
#X connect 16 0 7 0;
#X connect 17 0 11 0;
#X connect 17 1 8 0;
#X connect 17 2 16 0;
#X restore 165 -143 pd osc~;
#N canvas 200 602 372 363 osc~ 0;
#X obj 149 235 pack f 10;
#X obj 149 257 line~;
#X obj 92 276 *~;
#X obj 92 163 list split 2;
#X obj 92 194 unpack f f;
#X obj 92 239 osc~;
#X obj 92 14 inlet;
#X obj 262 196 outlet;
#X msg 224 89 0;
#X obj 119 135 switch~;
#X obj 92 66 t l b;
#X obj 174 89 del 10;
#X msg 174 110 0;
#X msg 119 110 1;
#X obj 92 35 route list bang clear;
#X obj 92 298 throw~ \$0-sinusoids;
#X msg 262 89 clear;
#X obj 174 66 t b b b;
#X connect 0 0 1 0;
#X connect 1 0 2 1;
#X connect 2 0 15 0;
#X connect 3 0 4 0;
#X connect 3 1 7 0;
#X connect 4 0 5 0;
#X connect 4 1 0 0;
#X connect 5 0 2 0;
#X connect 6 0 14 0;
#X connect 8 0 0 0;
#X connect 10 0 3 0;
#X connect 10 1 13 0;
#X connect 11 0 12 0;
#X connect 12 0 9 0;
#X connect 13 0 9 0;
#X connect 14 0 10 0;
#X connect 14 1 17 0;
#X connect 14 2 17 0;
#X connect 16 0 7 0;
#X connect 17 0 11 0;
#X connect 17 1 8 0;
#X connect 17 2 16 0;
#X restore 165 -123 pd osc~;
#N canvas 200 602 372 363 osc~ 0;
#X obj 149 235 pack f 10;
#X obj 149 257 line~;
#X obj 92 276 *~;
#X obj 92 163 list split 2;
#X obj 92 194 unpack f f;
#X obj 92 239 osc~;
#X obj 92 14 inlet;
#X obj 262 196 outlet;
#X msg 224 89 0;
#X obj 119 135 switch~;
#X obj 92 66 t l b;
#X obj 174 89 del 10;
#X msg 174 110 0;
#X msg 119 110 1;
#X obj 92 35 route list bang clear;
#X obj 92 298 throw~ \$0-sinusoids;
#X msg 262 89 clear;
#X obj 174 66 t b b b;
#X connect 0 0 1 0;
#X connect 1 0 2 1;
#X connect 2 0 15 0;
#X connect 3 0 4 0;
#X connect 3 1 7 0;
#X connect 4 0 5 0;
#X connect 4 1 0 0;
#X connect 5 0 2 0;
#X connect 6 0 14 0;
#X connect 8 0 0 0;
#X connect 10 0 3 0;
#X connect 10 1 13 0;
#X connect 11 0 12 0;
#X connect 12 0 9 0;
#X connect 13 0 9 0;
#X connect 14 0 10 0;
#X connect 14 1 17 0;
#X connect 14 2 17 0;
#X connect 16 0 7 0;
#X connect 17 0 11 0;
#X connect 17 1 8 0;
#X connect 17 2 16 0;
#X restore 165 -103 pd osc~;
#N canvas 200 602 372 363 osc~ 0;
#X obj 149 235 pack f 10;
#X obj 149 257 line~;
#X obj 92 276 *~;
#X obj 92 163 list split 2;
#X obj 92 194 unpack f f;
#X obj 92 239 osc~;
#X obj 92 14 inlet;
#X obj 262 196 outlet;
#X msg 224 89 0;
#X obj 119 135 switch~;
#X obj 92 66 t l b;
#X obj 174 89 del 10;
#X msg 174 110 0;
#X msg 119 110 1;
#X obj 92 35 route list bang clear;
#X obj 92 298 throw~ \$0-sinusoids;
#X msg 262 89 clear;
#X obj 174 66 t b b b;
#X connect 0 0 1 0;
#X connect 1 0 2 1;
#X connect 2 0 15 0;
#X connect 3 0 4 0;
#X connect 3 1 7 0;
#X connect 4 0 5 0;
#X connect 4 1 0 0;
#X connect 5 0 2 0;
#X connect 6 0 14 0;
#X connect 8 0 0 0;
#X connect 10 0 3 0;
#X connect 10 1 13 0;
#X connect 11 0 12 0;
#X connect 12 0 9 0;
#X connect 13 0 9 0;
#X connect 14 0 10 0;
#X connect 14 1 17 0;
#X connect 14 2 17 0;
#X connect 16 0 7 0;
#X connect 17 0 11 0;
#X connect 17 1 8 0;
#X connect 17 2 16 0;
#X restore 165 -83 pd osc~;
#N canvas 200 602 372 363 osc~ 0;
#X obj 149 235 pack f 10;
#X obj 149 257 line~;
#X obj 92 276 *~;
#X obj 92 163 list split 2;
#X obj 92 194 unpack f f;
#X obj 92 239 osc~;
#X obj 92 14 inlet;
#X obj 262 196 outlet;
#X msg 224 89 0;
#X obj 119 135 switch~;
#X obj 92 66 t l b;
#X obj 174 89 del 10;
#X msg 174 110 0;
#X msg 119 110 1;
#X obj 92 35 route list bang clear;
#X obj 92 298 throw~ \$0-sinusoids;
#X msg 262 89 clear;
#X obj 174 66 t b b b;
#X connect 0 0 1 0;
#X connect 1 0 2 1;
#X connect 2 0 15 0;
#X connect 3 0 4 0;
#X connect 3 1 7 0;
#X connect 4 0 5 0;
#X connect 4 1 0 0;
#X connect 5 0 2 0;
#X connect 6 0 14 0;
#X connect 8 0 0 0;
#X connect 10 0 3 0;
#X connect 10 1 13 0;
#X connect 11 0 12 0;
#X connect 12 0 9 0;
#X connect 13 0 9 0;
#X connect 14 0 10 0;
#X connect 14 1 17 0;
#X connect 14 2 17 0;
#X connect 16 0 7 0;
#X connect 17 0 11 0;
#X connect 17 1 8 0;
#X connect 17 2 16 0;
#X restore 165 -63 pd osc~;
#N canvas 200 602 372 363 osc~ 0;
#X obj 149 235 pack f 10;
#X obj 149 257 line~;
#X obj 92 276 *~;
#X obj 92 163 list split 2;
#X obj 92 194 unpack f f;
#X obj 92 239 osc~;
#X obj 92 14 inlet;
#X obj 262 196 outlet;
#X msg 224 89 0;
#X obj 119 135 switch~;
#X obj 92 66 t l b;
#X obj 174 89 del 10;
#X msg 174 110 0;
#X msg 119 110 1;
#X obj 92 35 route list bang clear;
#X obj 92 298 throw~ \$0-sinusoids;
#X msg 262 89 clear;
#X obj 174 66 t b b b;
#X connect 0 0 1 0;
#X connect 1 0 2 1;
#X connect 2 0 15 0;
#X connect 3 0 4 0;
#X connect 3 1 7 0;
#X connect 4 0 5 0;
#X connect 4 1 0 0;
#X connect 5 0 2 0;
#X connect 6 0 14 0;
#X connect 8 0 0 0;
#X connect 10 0 3 0;
#X connect 10 1 13 0;
#X connect 11 0 12 0;
#X connect 12 0 9 0;
#X connect 13 0 9 0;
#X connect 14 0 10 0;
#X connect 14 1 17 0;
#X connect 14 2 17 0;
#X connect 16 0 7 0;
#X connect 17 0 11 0;
#X connect 17 1 8 0;
#X connect 17 2 16 0;
#X restore 165 -43 pd osc~;
#N canvas 200 602 372 363 osc~ 0;
#X obj 149 235 pack f 10;
#X obj 149 257 line~;
#X obj 92 276 *~;
#X obj 92 163 list split 2;
#X obj 92 194 unpack f f;
#X obj 92 239 osc~;
#X obj 92 14 inlet;
#X obj 262 196 outlet;
#X msg 224 89 0;
#X obj 119 135 switch~;
#X obj 92 66 t l b;
#X obj 174 89 del 10;
#X msg 174 110 0;
#X msg 119 110 1;
#X obj 92 35 route list bang clear;
#X obj 92 298 throw~ \$0-sinusoids;
#X msg 262 89 clear;
#X obj 174 66 t b b b;
#X connect 0 0 1 0;
#X connect 1 0 2 1;
#X connect 2 0 15 0;
#X connect 3 0 4 0;
#X connect 3 1 7 0;
#X connect 4 0 5 0;
#X connect 4 1 0 0;
#X connect 5 0 2 0;
#X connect 6 0 14 0;
#X connect 8 0 0 0;
#X connect 10 0 3 0;
#X connect 10 1 13 0;
#X connect 11 0 12 0;
#X connect 12 0 9 0;
#X connect 13 0 9 0;
#X connect 14 0 10 0;
#X connect 14 1 17 0;
#X connect 14 2 17 0;
#X connect 16 0 7 0;
#X connect 17 0 11 0;
#X connect 17 1 8 0;
#X connect 17 2 16 0;
#X restore 165 -23 pd osc~;
#N canvas 200 602 372 363 osc~ 0;
#X obj 149 235 pack f 10;
#X obj 149 257 line~;
#X obj 92 276 *~;
#X obj 92 163 list split 2;
#X obj 92 194 unpack f f;
#X obj 92 239 osc~;
#X obj 92 14 inlet;
#X obj 262 196 outlet;
#X msg 224 89 0;
#X obj 119 135 switch~;
#X obj 92 66 t l b;
#X obj 174 89 del 10;
#X msg 174 110 0;
#X msg 119 110 1;
#X obj 92 35 route list bang clear;
#X obj 92 298 throw~ \$0-sinusoids;
#X msg 262 89 clear;
#X obj 174 66 t b b b;
#X connect 0 0 1 0;
#X connect 1 0 2 1;
#X connect 2 0 15 0;
#X connect 3 0 4 0;
#X connect 3 1 7 0;
#X connect 4 0 5 0;
#X connect 4 1 0 0;
#X connect 5 0 2 0;
#X connect 6 0 14 0;
#X connect 8 0 0 0;
#X connect 10 0 3 0;
#X connect 10 1 13 0;
#X connect 11 0 12 0;
#X connect 12 0 9 0;
#X connect 13 0 9 0;
#X connect 14 0 10 0;
#X connect 14 1 17 0;
#X connect 14 2 17 0;
#X connect 16 0 7 0;
#X connect 17 0 11 0;
#X connect 17 1 8 0;
#X connect 17 2 16 0;
#X restore 165 -3 pd osc~;
#N canvas 200 602 372 363 osc~ 0;
#X obj 149 235 pack f 10;
#X obj 149 257 line~;
#X obj 92 276 *~;
#X obj 92 163 list split 2;
#X obj 92 194 unpack f f;
#X obj 92 239 osc~;
#X obj 92 14 inlet;
#X obj 262 196 outlet;
#X msg 224 89 0;
#X obj 119 135 switch~;
#X obj 92 66 t l b;
#X obj 174 89 del 10;
#X msg 174 110 0;
#X msg 119 110 1;
#X obj 92 35 route list bang clear;
#X obj 92 298 throw~ \$0-sinusoids;
#X msg 262 89 clear;
#X obj 174 66 t b b b;
#X connect 0 0 1 0;
#X connect 1 0 2 1;
#X connect 2 0 15 0;
#X connect 3 0 4 0;
#X connect 3 1 7 0;
#X connect 4 0 5 0;
#X connect 4 1 0 0;
#X connect 5 0 2 0;
#X connect 6 0 14 0;
#X connect 8 0 0 0;
#X connect 10 0 3 0;
#X connect 10 1 13 0;
#X connect 11 0 12 0;
#X connect 12 0 9 0;
#X connect 13 0 9 0;
#X connect 14 0 10 0;
#X connect 14 1 17 0;
#X connect 14 2 17 0;
#X connect 16 0 7 0;
#X connect 17 0 11 0;
#X connect 17 1 8 0;
#X connect 17 2 16 0;
#X restore 165 17 pd osc~;
#N canvas 200 602 372 363 osc~ 0;
#X obj 149 235 pack f 10;
#X obj 149 257 line~;
#X obj 92 276 *~;
#X obj 92 163 list split 2;
#X obj 92 194 unpack f f;
#X obj 92 239 osc~;
#X obj 92 14 inlet;
#X obj 262 196 outlet;
#X msg 224 89 0;
#X obj 119 135 switch~;
#X obj 92 66 t l b;
#X obj 174 89 del 10;
#X msg 174 110 0;
#X msg 119 110 1;
#X obj 92 35 route list bang clear;
#X obj 92 298 throw~ \$0-sinusoids;
#X msg 262 89 clear;
#X obj 174 66 t b b b;
#X connect 0 0 1 0;
#X connect 1 0 2 1;
#X connect 2 0 15 0;
#X connect 3 0 4 0;
#X connect 3 1 7 0;
#X connect 4 0 5 0;
#X connect 4 1 0 0;
#X connect 5 0 2 0;
#X connect 6 0 14 0;
#X connect 8 0 0 0;
#X connect 10 0 3 0;
#X connect 10 1 13 0;
#X connect 11 0 12 0;
#X connect 12 0 9 0;
#X connect 13 0 9 0;
#X connect 14 0 10 0;
#X connect 14 1 17 0;
#X connect 14 2 17 0;
#X connect 16 0 7 0;
#X connect 17 0 11 0;
#X connect 17 1 8 0;
#X connect 17 2 16 0;
#X restore 165 37 pd osc~;
#N canvas 200 602 372 363 osc~ 0;
#X obj 149 235 pack f 10;
#X obj 149 257 line~;
#X obj 92 276 *~;
#X obj 92 163 list split 2;
#X obj 92 194 unpack f f;
#X obj 92 239 osc~;
#X obj 92 14 inlet;
#X obj 262 196 outlet;
#X msg 224 89 0;
#X obj 119 135 switch~;
#X obj 92 66 t l b;
#X obj 174 89 del 10;
#X msg 174 110 0;
#X msg 119 110 1;
#X obj 92 35 route list bang clear;
#X obj 92 298 throw~ \$0-sinusoids;
#X msg 262 89 clear;
#X obj 174 66 t b b b;
#X connect 0 0 1 0;
#X connect 1 0 2 1;
#X connect 2 0 15 0;
#X connect 3 0 4 0;
#X connect 3 1 7 0;
#X connect 4 0 5 0;
#X connect 4 1 0 0;
#X connect 5 0 2 0;
#X connect 6 0 14 0;
#X connect 8 0 0 0;
#X connect 10 0 3 0;
#X connect 10 1 13 0;
#X connect 11 0 12 0;
#X connect 12 0 9 0;
#X connect 13 0 9 0;
#X connect 14 0 10 0;
#X connect 14 1 17 0;
#X connect 14 2 17 0;
#X connect 16 0 7 0;
#X connect 17 0 11 0;
#X connect 17 1 8 0;
#X connect 17 2 16 0;
#X restore 165 57 pd osc~;
#N canvas 200 602 372 363 osc~ 0;
#X obj 149 235 pack f 10;
#X obj 149 257 line~;
#X obj 92 276 *~;
#X obj 92 163 list split 2;
#X obj 92 194 unpack f f;
#X obj 92 239 osc~;
#X obj 92 14 inlet;
#X obj 262 196 outlet;
#X msg 224 89 0;
#X obj 119 135 switch~;
#X obj 92 66 t l b;
#X obj 174 89 del 10;
#X msg 174 110 0;
#X msg 119 110 1;
#X obj 92 35 route list bang clear;
#X obj 92 298 throw~ \$0-sinusoids;
#X msg 262 89 clear;
#X obj 174 66 t b b b;
#X connect 0 0 1 0;
#X connect 1 0 2 1;
#X connect 2 0 15 0;
#X connect 3 0 4 0;
#X connect 3 1 7 0;
#X connect 4 0 5 0;
#X connect 4 1 0 0;
#X connect 5 0 2 0;
#X connect 6 0 14 0;
#X connect 8 0 0 0;
#X connect 10 0 3 0;
#X connect 10 1 13 0;
#X connect 11 0 12 0;
#X connect 12 0 9 0;
#X connect 13 0 9 0;
#X connect 14 0 10 0;
#X connect 14 1 17 0;
#X connect 14 2 17 0;
#X connect 16 0 7 0;
#X connect 17 0 11 0;
#X connect 17 1 8 0;
#X connect 17 2 16 0;
#X restore 165 77 pd osc~;
#N canvas 200 602 372 363 osc~ 0;
#X obj 149 235 pack f 10;
#X obj 149 257 line~;
#X obj 92 276 *~;
#X obj 92 163 list split 2;
#X obj 92 194 unpack f f;
#X obj 92 239 osc~;
#X obj 92 14 inlet;
#X obj 262 196 outlet;
#X msg 224 89 0;
#X obj 119 135 switch~;
#X obj 92 66 t l b;
#X obj 174 89 del 10;
#X msg 174 110 0;
#X msg 119 110 1;
#X obj 92 35 route list bang clear;
#X obj 92 298 throw~ \$0-sinusoids;
#X msg 262 89 clear;
#X obj 174 66 t b b b;
#X connect 0 0 1 0;
#X connect 1 0 2 1;
#X connect 2 0 15 0;
#X connect 3 0 4 0;
#X connect 3 1 7 0;
#X connect 4 0 5 0;
#X connect 4 1 0 0;
#X connect 5 0 2 0;
#X connect 6 0 14 0;
#X connect 8 0 0 0;
#X connect 10 0 3 0;
#X connect 10 1 13 0;
#X connect 11 0 12 0;
#X connect 12 0 9 0;
#X connect 13 0 9 0;
#X connect 14 0 10 0;
#X connect 14 1 17 0;
#X connect 14 2 17 0;
#X connect 16 0 7 0;
#X connect 17 0 11 0;
#X connect 17 1 8 0;
#X connect 17 2 16 0;
#X restore 165 97 pd osc~;
#N canvas 200 602 372 363 osc~ 0;
#X obj 149 235 pack f 10;
#X obj 149 257 line~;
#X obj 92 276 *~;
#X obj 92 163 list split 2;
#X obj 92 194 unpack f f;
#X obj 92 239 osc~;
#X obj 92 14 inlet;
#X obj 262 196 outlet;
#X msg 224 89 0;
#X obj 119 135 switch~;
#X obj 92 66 t l b;
#X obj 174 89 del 10;
#X msg 174 110 0;
#X msg 119 110 1;
#X obj 92 35 route list bang clear;
#X obj 92 298 throw~ \$0-sinusoids;
#X msg 262 89 clear;
#X obj 174 66 t b b b;
#X connect 0 0 1 0;
#X connect 1 0 2 1;
#X connect 2 0 15 0;
#X connect 3 0 4 0;
#X connect 3 1 7 0;
#X connect 4 0 5 0;
#X connect 4 1 0 0;
#X connect 5 0 2 0;
#X connect 6 0 14 0;
#X connect 8 0 0 0;
#X connect 10 0 3 0;
#X connect 10 1 13 0;
#X connect 11 0 12 0;
#X connect 12 0 9 0;
#X connect 13 0 9 0;
#X connect 14 0 10 0;
#X connect 14 1 17 0;
#X connect 14 2 17 0;
#X connect 16 0 7 0;
#X connect 17 0 11 0;
#X connect 17 1 8 0;
#X connect 17 2 16 0;
#X restore 165 117 pd osc~;
#N canvas 200 602 372 363 osc~ 0;
#X obj 149 235 pack f 10;
#X obj 149 257 line~;
#X obj 92 276 *~;
#X obj 92 163 list split 2;
#X obj 92 194 unpack f f;
#X obj 92 239 osc~;
#X obj 92 14 inlet;
#X obj 262 196 outlet;
#X msg 224 89 0;
#X obj 119 135 switch~;
#X obj 92 66 t l b;
#X obj 174 89 del 10;
#X msg 174 110 0;
#X msg 119 110 1;
#X obj 92 35 route list bang clear;
#X obj 92 298 throw~ \$0-sinusoids;
#X msg 262 89 clear;
#X obj 174 66 t b b b;
#X connect 0 0 1 0;
#X connect 1 0 2 1;
#X connect 2 0 15 0;
#X connect 3 0 4 0;
#X connect 3 1 7 0;
#X connect 4 0 5 0;
#X connect 4 1 0 0;
#X connect 5 0 2 0;
#X connect 6 0 14 0;
#X connect 8 0 0 0;
#X connect 10 0 3 0;
#X connect 10 1 13 0;
#X connect 11 0 12 0;
#X connect 12 0 9 0;
#X connect 13 0 9 0;
#X connect 14 0 10 0;
#X connect 14 1 17 0;
#X connect 14 2 17 0;
#X connect 16 0 7 0;
#X connect 17 0 11 0;
#X connect 17 1 8 0;
#X connect 17 2 16 0;
#X restore 165 137 pd osc~;
#N canvas 200 602 372 363 osc~ 0;
#X obj 149 235 pack f 10;
#X obj 149 257 line~;
#X obj 92 276 *~;
#X obj 92 163 list split 2;
#X obj 92 194 unpack f f;
#X obj 92 239 osc~;
#X obj 92 14 inlet;
#X obj 262 196 outlet;
#X msg 224 89 0;
#X obj 119 135 switch~;
#X obj 92 66 t l b;
#X obj 174 89 del 10;
#X msg 174 110 0;
#X msg 119 110 1;
#X obj 92 35 route list bang clear;
#X obj 92 298 throw~ \$0-sinusoids;
#X msg 262 89 clear;
#X obj 174 66 t b b b;
#X connect 0 0 1 0;
#X connect 1 0 2 1;
#X connect 2 0 15 0;
#X connect 3 0 4 0;
#X connect 3 1 7 0;
#X connect 4 0 5 0;
#X connect 4 1 0 0;
#X connect 5 0 2 0;
#X connect 6 0 14 0;
#X connect 8 0 0 0;
#X connect 10 0 3 0;
#X connect 10 1 13 0;
#X connect 11 0 12 0;
#X connect 12 0 9 0;
#X connect 13 0 9 0;
#X connect 14 0 10 0;
#X connect 14 1 17 0;
#X connect 14 2 17 0;
#X connect 16 0 7 0;
#X connect 17 0 11 0;
#X connect 17 1 8 0;
#X connect 17 2 16 0;
#X restore 165 157 pd osc~;
#N canvas 200 602 372 363 osc~ 0;
#X obj 149 235 pack f 10;
#X obj 149 257 line~;
#X obj 92 276 *~;
#X obj 92 163 list split 2;
#X obj 92 194 unpack f f;
#X obj 92 239 osc~;
#X obj 92 14 inlet;
#X obj 262 196 outlet;
#X msg 224 89 0;
#X obj 119 135 switch~;
#X obj 92 66 t l b;
#X obj 174 89 del 10;
#X msg 174 110 0;
#X msg 119 110 1;
#X obj 92 35 route list bang clear;
#X obj 92 298 throw~ \$0-sinusoids;
#X msg 262 89 clear;
#X obj 174 66 t b b b;
#X connect 0 0 1 0;
#X connect 1 0 2 1;
#X connect 2 0 15 0;
#X connect 3 0 4 0;
#X connect 3 1 7 0;
#X connect 4 0 5 0;
#X connect 4 1 0 0;
#X connect 5 0 2 0;
#X connect 6 0 14 0;
#X connect 8 0 0 0;
#X connect 10 0 3 0;
#X connect 10 1 13 0;
#X connect 11 0 12 0;
#X connect 12 0 9 0;
#X connect 13 0 9 0;
#X connect 14 0 10 0;
#X connect 14 1 17 0;
#X connect 14 2 17 0;
#X connect 16 0 7 0;
#X connect 17 0 11 0;
#X connect 17 1 8 0;
#X connect 17 2 16 0;
#X restore 165 177 pd osc~;
#N canvas 200 602 372 363 osc~ 0;
#X obj 149 235 pack f 10;
#X obj 149 257 line~;
#X obj 92 276 *~;
#X obj 92 163 list split 2;
#X obj 92 194 unpack f f;
#X obj 92 239 osc~;
#X obj 92 14 inlet;
#X obj 262 196 outlet;
#X msg 224 89 0;
#X obj 119 135 switch~;
#X obj 92 66 t l b;
#X obj 174 89 del 10;
#X msg 174 110 0;
#X msg 119 110 1;
#X obj 92 35 route list bang clear;
#X obj 92 298 throw~ \$0-sinusoids;
#X msg 262 89 clear;
#X obj 174 66 t b b b;
#X connect 0 0 1 0;
#X connect 1 0 2 1;
#X connect 2 0 15 0;
#X connect 3 0 4 0;
#X connect 3 1 7 0;
#X connect 4 0 5 0;
#X connect 4 1 0 0;
#X connect 5 0 2 0;
#X connect 6 0 14 0;
#X connect 8 0 0 0;
#X connect 10 0 3 0;
#X connect 10 1 13 0;
#X connect 11 0 12 0;
#X connect 12 0 9 0;
#X connect 13 0 9 0;
#X connect 14 0 10 0;
#X connect 14 1 17 0;
#X connect 14 2 17 0;
#X connect 16 0 7 0;
#X connect 17 0 11 0;
#X connect 17 1 8 0;
#X connect 17 2 16 0;
#X restore 165 197 pd osc~;
#N canvas 200 602 372 363 osc~ 0;
#X obj 149 235 pack f 10;
#X obj 149 257 line~;
#X obj 92 276 *~;
#X obj 92 163 list split 2;
#X obj 92 194 unpack f f;
#X obj 92 239 osc~;
#X obj 92 14 inlet;
#X obj 262 196 outlet;
#X msg 224 89 0;
#X obj 119 135 switch~;
#X obj 92 66 t l b;
#X obj 174 89 del 10;
#X msg 174 110 0;
#X msg 119 110 1;
#X obj 92 35 route list bang clear;
#X obj 92 298 throw~ \$0-sinusoids;
#X msg 262 89 clear;
#X obj 174 66 t b b b;
#X connect 0 0 1 0;
#X connect 1 0 2 1;
#X connect 2 0 15 0;
#X connect 3 0 4 0;
#X connect 3 1 7 0;
#X connect 4 0 5 0;
#X connect 4 1 0 0;
#X connect 5 0 2 0;
#X connect 6 0 14 0;
#X connect 8 0 0 0;
#X connect 10 0 3 0;
#X connect 10 1 13 0;
#X connect 11 0 12 0;
#X connect 12 0 9 0;
#X connect 13 0 9 0;
#X connect 14 0 10 0;
#X connect 14 1 17 0;
#X connect 14 2 17 0;
#X connect 16 0 7 0;
#X connect 17 0 11 0;
#X connect 17 1 8 0;
#X connect 17 2 16 0;
#X restore 165 217 pd osc~;
#X connect 0 0 3 0;
#X connect 1 0 0 0;
#X connect 3 0 4 0;
#X connect 4 0 5 0;
#X connect 5 0 6 0;
#X connect 6 0 7 0;
#X connect 7 0 8 0;
#X connect 8 0 9 0;
#X connect 9 0 10 0;
#X connect 10 0 11 0;
#X connect 11 0 12 0;
#X connect 12 0 13 0;
#X connect 13 0 14 0;
#X connect 14 0 15 0;
#X connect 15 0 16 0;
#X connect 16 0 17 0;
#X connect 17 0 18 0;
#X connect 18 0 19 0;
#X connect 19 0 20 0;
#X connect 20 0 21 0;
#X connect 21 0 22 0;
#X connect 22 0 23 0;
#X connect 23 0 24 0;
#X connect 24 0 25 0;
#X connect 25 0 26 0;
#X connect 26 0 27 0;
#X connect 27 0 28 0;
#X connect 28 0 29 0;
#X connect 29 0 30 0;
#X connect 30 0 31 0;
#X connect 31 0 32 0;
#X connect 32 0 33 0;
#X connect 33 0 2 0;
#X restore 112 112 pd 32-oscillators;
#X connect 0 0 3 0;
#X connect 2 0 1 0;
#X restore 203 453 pd sinusoids~;
#X connect 0 1 6 0;
#X connect 1 0 2 0;
#X connect 1 0 3 0;
#X connect 2 0 1 1;
#X connect 3 0 8 0;
#X connect 4 0 5 1;
#X connect 4 0 11 1;
#X connect 5 0 4 0;
#X connect 6 0 7 0;
#X connect 7 0 1 0;
#X connect 7 1 8 1;
#X connect 8 0 5 0;
#X connect 9 0 1 1;
#X connect 10 0 5 1;
#X connect 11 0 17 0;
#X connect 12 0 11 0;
#X connect 12 1 9 0;
#X connect 12 2 0 0;
#X connect 12 3 13 0;
#X connect 12 4 10 0;
#X connect 13 0 3 1;
#X connect 14 0 15 0;
#X connect 15 0 12 0;
#X connect 15 1 17 0;
#X connect 17 0 16 0;
