#N canvas 1 80 1904 490 10;
#X obj 1177 -106 inlet;
#X obj 1177 -84 t l b;
#X obj 1204 -43 s \$0-reset;
#X msg 1204 -64 0;
#X obj 1176 117 list-math *;
#X msg 1176 68 1 2 3 4 5 6 7 8 9 10 11 12 13 14 15 16 17 18 19 20 21
22 23 24 25 26 27 28 29 30 31 32 33 34 35 36 37 38 39 40 41 42 43 44
45 46 47 48 49 50;
#X obj 1176 47 t b f;
#X obj 1176 138 unpack f f f f f f f f f f f f f f f f f f f f f f
f f f f f f f f f f f f f f f f f f f f f f f f f f f f, f 410;
#X obj 1177 -22 unpack f f f f f f f f f f f f f f f f f f f f f f
f f f f f f f f f f f f f f f f f f f f f f f f f f f f f, f 416;
#X obj 2449 312 outlet~;
#X obj 1183 4 loadbang;
#X obj 1183 25 \$1;
#N canvas 1118 310 450 300 osc~ 0;
#X obj 234 144 r \$0-reset;
#X obj 227 166 pack f 10;
#X obj 167 188 line~;
#X obj 110 204 *~;
#X obj 167 144 loadbang;
#X obj 110 97 inlet;
#X obj 227 108 inlet;
#X obj 110 226 outlet~;
#X obj 110 167 osc~;
#X obj 167 166 \$2;
#X connect 0 0 1 0;
#X connect 1 0 2 0;
#X connect 2 0 3 1;
#X connect 3 0 7 0;
#X connect 4 0 9 0;
#X connect 5 0 8 0;
#X connect 6 0 1 0;
#X connect 8 0 3 0;
#X connect 9 0 2 0;
#X restore 1176 194 pd osc~;
#N canvas 1118 310 450 300 osc~ 0;
#X obj 234 144 r \$0-reset;
#X obj 227 166 pack f 10;
#X obj 167 188 line~;
#X obj 110 204 *~;
#X obj 167 144 loadbang;
#X obj 110 97 inlet;
#X obj 227 108 inlet;
#X obj 110 226 outlet~;
#X obj 110 167 osc~;
#X obj 167 166 \$3;
#X connect 0 0 1 0;
#X connect 1 0 2 0;
#X connect 2 0 3 1;
#X connect 3 0 7 0;
#X connect 4 0 9 0;
#X connect 5 0 8 0;
#X connect 6 0 1 0;
#X connect 8 0 3 0;
#X connect 9 0 2 0;
#X restore 1226 194 pd osc~;
#N canvas 1118 310 450 300 osc~ 0;
#X obj 234 144 r \$0-reset;
#X obj 227 166 pack f 10;
#X obj 167 188 line~;
#X obj 110 204 *~;
#X obj 167 144 loadbang;
#X obj 110 97 inlet;
#X obj 227 108 inlet;
#X obj 110 226 outlet~;
#X obj 110 167 osc~;
#X obj 167 166 \$4;
#X connect 0 0 1 0;
#X connect 1 0 2 0;
#X connect 2 0 3 1;
#X connect 3 0 7 0;
#X connect 4 0 9 0;
#X connect 5 0 8 0;
#X connect 6 0 1 0;
#X connect 8 0 3 0;
#X connect 9 0 2 0;
#X restore 1276 194 pd osc~;
#N canvas 1118 310 450 300 osc~ 0;
#X obj 234 144 r \$0-reset;
#X obj 227 166 pack f 10;
#X obj 167 188 line~;
#X obj 110 204 *~;
#X obj 167 144 loadbang;
#X obj 110 97 inlet;
#X obj 227 108 inlet;
#X obj 110 226 outlet~;
#X obj 110 167 osc~;
#X obj 167 166 \$5;
#X connect 0 0 1 0;
#X connect 1 0 2 0;
#X connect 2 0 3 1;
#X connect 3 0 7 0;
#X connect 4 0 9 0;
#X connect 5 0 8 0;
#X connect 6 0 1 0;
#X connect 8 0 3 0;
#X connect 9 0 2 0;
#X restore 1326 194 pd osc~;
#N canvas 1118 310 450 300 osc~ 0;
#X obj 234 144 r \$0-reset;
#X obj 227 166 pack f 10;
#X obj 167 188 line~;
#X obj 110 204 *~;
#X obj 167 144 loadbang;
#X obj 110 97 inlet;
#X obj 227 108 inlet;
#X obj 110 226 outlet~;
#X obj 110 167 osc~;
#X obj 167 166 \$6;
#X connect 0 0 1 0;
#X connect 1 0 2 0;
#X connect 2 0 3 1;
#X connect 3 0 7 0;
#X connect 4 0 9 0;
#X connect 5 0 8 0;
#X connect 6 0 1 0;
#X connect 8 0 3 0;
#X connect 9 0 2 0;
#X restore 1376 194 pd osc~;
#N canvas 1118 310 450 300 osc~ 0;
#X obj 234 144 r \$0-reset;
#X obj 227 166 pack f 10;
#X obj 167 188 line~;
#X obj 110 204 *~;
#X obj 167 144 loadbang;
#X obj 110 97 inlet;
#X obj 227 108 inlet;
#X obj 110 226 outlet~;
#X obj 110 167 osc~;
#X obj 167 166 \$7;
#X connect 0 0 1 0;
#X connect 1 0 2 0;
#X connect 2 0 3 1;
#X connect 3 0 7 0;
#X connect 4 0 9 0;
#X connect 5 0 8 0;
#X connect 6 0 1 0;
#X connect 8 0 3 0;
#X connect 9 0 2 0;
#X restore 1426 194 pd osc~;
#N canvas 1118 310 450 300 osc~ 0;
#X obj 234 144 r \$0-reset;
#X obj 227 166 pack f 10;
#X obj 167 188 line~;
#X obj 110 204 *~;
#X obj 167 144 loadbang;
#X obj 110 97 inlet;
#X obj 227 108 inlet;
#X obj 110 226 outlet~;
#X obj 110 167 osc~;
#X obj 167 166 \$8;
#X connect 0 0 1 0;
#X connect 1 0 2 0;
#X connect 2 0 3 1;
#X connect 3 0 7 0;
#X connect 4 0 9 0;
#X connect 5 0 8 0;
#X connect 6 0 1 0;
#X connect 8 0 3 0;
#X connect 9 0 2 0;
#X restore 1476 194 pd osc~;
#N canvas 1118 310 450 300 osc~ 0;
#X obj 234 144 r \$0-reset;
#X obj 227 166 pack f 10;
#X obj 167 188 line~;
#X obj 110 204 *~;
#X obj 167 144 loadbang;
#X obj 110 97 inlet;
#X obj 227 108 inlet;
#X obj 110 226 outlet~;
#X obj 110 167 osc~;
#X obj 167 166 \$9;
#X connect 0 0 1 0;
#X connect 1 0 2 0;
#X connect 2 0 3 1;
#X connect 3 0 7 0;
#X connect 4 0 9 0;
#X connect 5 0 8 0;
#X connect 6 0 1 0;
#X connect 8 0 3 0;
#X connect 9 0 2 0;
#X restore 1526 194 pd osc~;
#N canvas 1118 310 450 300 osc~ 0;
#X obj 234 144 r \$0-reset;
#X obj 227 166 pack f 10;
#X obj 167 188 line~;
#X obj 110 204 *~;
#X obj 167 144 loadbang;
#X obj 110 97 inlet;
#X obj 227 108 inlet;
#X obj 110 226 outlet~;
#X obj 110 167 osc~;
#X obj 167 166 \$10;
#X connect 0 0 1 0;
#X connect 1 0 2 0;
#X connect 2 0 3 1;
#X connect 3 0 7 0;
#X connect 4 0 9 0;
#X connect 5 0 8 0;
#X connect 6 0 1 0;
#X connect 8 0 3 0;
#X connect 9 0 2 0;
#X restore 1576 194 pd osc~;
#N canvas 1118 310 450 300 osc~ 0;
#X obj 234 144 r \$0-reset;
#X obj 227 166 pack f 10;
#X obj 167 188 line~;
#X obj 110 204 *~;
#X obj 167 144 loadbang;
#X obj 110 97 inlet;
#X obj 227 108 inlet;
#X obj 110 226 outlet~;
#X obj 110 167 osc~;
#X obj 167 166 \$11;
#X connect 0 0 1 0;
#X connect 1 0 2 0;
#X connect 2 0 3 1;
#X connect 3 0 7 0;
#X connect 4 0 9 0;
#X connect 5 0 8 0;
#X connect 6 0 1 0;
#X connect 8 0 3 0;
#X connect 9 0 2 0;
#X restore 1626 194 pd osc~;
#N canvas 1118 310 450 300 osc2 0;
#X obj 174 144 r \$0-reset;
#X obj 167 166 pack f 10;
#X obj 167 188 line~;
#X obj 110 204 *~;
#X obj 110 97 inlet;
#X obj 167 108 inlet;
#X obj 110 226 outlet~;
#X obj 110 167 osc~;
#X connect 0 0 1 0;
#X connect 1 0 2 0;
#X connect 2 0 3 1;
#X connect 3 0 6 0;
#X connect 4 0 7 0;
#X connect 5 0 1 0;
#X connect 7 0 3 0;
#X restore 1676 194 pd osc2;
#N canvas 1118 310 450 300 osc2 0;
#X obj 174 144 r \$0-reset;
#X obj 167 166 pack f 10;
#X obj 167 188 line~;
#X obj 110 204 *~;
#X obj 110 97 inlet;
#X obj 167 108 inlet;
#X obj 110 226 outlet~;
#X obj 110 167 osc~;
#X connect 0 0 1 0;
#X connect 1 0 2 0;
#X connect 2 0 3 1;
#X connect 3 0 6 0;
#X connect 4 0 7 0;
#X connect 5 0 1 0;
#X connect 7 0 3 0;
#X restore 1726 194 pd osc2;
#N canvas 1118 310 450 300 osc2 0;
#X obj 174 144 r \$0-reset;
#X obj 167 166 pack f 10;
#X obj 167 188 line~;
#X obj 110 204 *~;
#X obj 110 97 inlet;
#X obj 167 108 inlet;
#X obj 110 226 outlet~;
#X obj 110 167 osc~;
#X connect 0 0 1 0;
#X connect 1 0 2 0;
#X connect 2 0 3 1;
#X connect 3 0 6 0;
#X connect 4 0 7 0;
#X connect 5 0 1 0;
#X connect 7 0 3 0;
#X restore 1776 194 pd osc2;
#N canvas 1118 310 450 300 osc2 0;
#X obj 174 144 r \$0-reset;
#X obj 167 166 pack f 10;
#X obj 167 188 line~;
#X obj 110 204 *~;
#X obj 110 97 inlet;
#X obj 167 108 inlet;
#X obj 110 226 outlet~;
#X obj 110 167 osc~;
#X connect 0 0 1 0;
#X connect 1 0 2 0;
#X connect 2 0 3 1;
#X connect 3 0 6 0;
#X connect 4 0 7 0;
#X connect 5 0 1 0;
#X connect 7 0 3 0;
#X restore 1826 194 pd osc2;
#N canvas 1118 310 450 300 osc2 0;
#X obj 174 144 r \$0-reset;
#X obj 167 166 pack f 10;
#X obj 167 188 line~;
#X obj 110 204 *~;
#X obj 110 97 inlet;
#X obj 167 108 inlet;
#X obj 110 226 outlet~;
#X obj 110 167 osc~;
#X connect 0 0 1 0;
#X connect 1 0 2 0;
#X connect 2 0 3 1;
#X connect 3 0 6 0;
#X connect 4 0 7 0;
#X connect 5 0 1 0;
#X connect 7 0 3 0;
#X restore 1876 194 pd osc2;
#N canvas 1118 310 450 300 osc2 0;
#X obj 174 144 r \$0-reset;
#X obj 167 166 pack f 10;
#X obj 167 188 line~;
#X obj 110 204 *~;
#X obj 110 97 inlet;
#X obj 167 108 inlet;
#X obj 110 226 outlet~;
#X obj 110 167 osc~;
#X connect 0 0 1 0;
#X connect 1 0 2 0;
#X connect 2 0 3 1;
#X connect 3 0 6 0;
#X connect 4 0 7 0;
#X connect 5 0 1 0;
#X connect 7 0 3 0;
#X restore 1926 194 pd osc2;
#N canvas 1118 310 450 300 osc2 0;
#X obj 174 144 r \$0-reset;
#X obj 167 166 pack f 10;
#X obj 167 188 line~;
#X obj 110 204 *~;
#X obj 110 97 inlet;
#X obj 167 108 inlet;
#X obj 110 226 outlet~;
#X obj 110 167 osc~;
#X connect 0 0 1 0;
#X connect 1 0 2 0;
#X connect 2 0 3 1;
#X connect 3 0 6 0;
#X connect 4 0 7 0;
#X connect 5 0 1 0;
#X connect 7 0 3 0;
#X restore 1976 194 pd osc2;
#N canvas 1118 310 450 300 osc2 0;
#X obj 174 144 r \$0-reset;
#X obj 167 166 pack f 10;
#X obj 167 188 line~;
#X obj 110 204 *~;
#X obj 110 97 inlet;
#X obj 167 108 inlet;
#X obj 110 226 outlet~;
#X obj 110 167 osc~;
#X connect 0 0 1 0;
#X connect 1 0 2 0;
#X connect 2 0 3 1;
#X connect 3 0 6 0;
#X connect 4 0 7 0;
#X connect 5 0 1 0;
#X connect 7 0 3 0;
#X restore 2026 194 pd osc2;
#N canvas 1118 310 450 300 osc2 0;
#X obj 174 144 r \$0-reset;
#X obj 167 166 pack f 10;
#X obj 167 188 line~;
#X obj 110 204 *~;
#X obj 110 97 inlet;
#X obj 167 108 inlet;
#X obj 110 226 outlet~;
#X obj 110 167 osc~;
#X connect 0 0 1 0;
#X connect 1 0 2 0;
#X connect 2 0 3 1;
#X connect 3 0 6 0;
#X connect 4 0 7 0;
#X connect 5 0 1 0;
#X connect 7 0 3 0;
#X restore 2076 194 pd osc2;
#N canvas 1118 310 450 300 osc2 0;
#X obj 174 144 r \$0-reset;
#X obj 167 166 pack f 10;
#X obj 167 188 line~;
#X obj 110 204 *~;
#X obj 110 97 inlet;
#X obj 167 108 inlet;
#X obj 110 226 outlet~;
#X obj 110 167 osc~;
#X connect 0 0 1 0;
#X connect 1 0 2 0;
#X connect 2 0 3 1;
#X connect 3 0 6 0;
#X connect 4 0 7 0;
#X connect 5 0 1 0;
#X connect 7 0 3 0;
#X restore 2126 194 pd osc2;
#N canvas 1118 310 450 300 osc2 0;
#X obj 174 144 r \$0-reset;
#X obj 167 166 pack f 10;
#X obj 167 188 line~;
#X obj 110 204 *~;
#X obj 110 97 inlet;
#X obj 167 108 inlet;
#X obj 110 226 outlet~;
#X obj 110 167 osc~;
#X connect 0 0 1 0;
#X connect 1 0 2 0;
#X connect 2 0 3 1;
#X connect 3 0 6 0;
#X connect 4 0 7 0;
#X connect 5 0 1 0;
#X connect 7 0 3 0;
#X restore 2176 194 pd osc2;
#N canvas 1118 310 450 300 osc2 0;
#X obj 174 144 r \$0-reset;
#X obj 167 166 pack f 10;
#X obj 167 188 line~;
#X obj 110 204 *~;
#X obj 110 97 inlet;
#X obj 167 108 inlet;
#X obj 110 226 outlet~;
#X obj 110 167 osc~;
#X connect 0 0 1 0;
#X connect 1 0 2 0;
#X connect 2 0 3 1;
#X connect 3 0 6 0;
#X connect 4 0 7 0;
#X connect 5 0 1 0;
#X connect 7 0 3 0;
#X restore 2226 194 pd osc2;
#N canvas 1118 310 450 300 osc2 0;
#X obj 174 144 r \$0-reset;
#X obj 167 166 pack f 10;
#X obj 167 188 line~;
#X obj 110 204 *~;
#X obj 110 97 inlet;
#X obj 167 108 inlet;
#X obj 110 226 outlet~;
#X obj 110 167 osc~;
#X connect 0 0 1 0;
#X connect 1 0 2 0;
#X connect 2 0 3 1;
#X connect 3 0 6 0;
#X connect 4 0 7 0;
#X connect 5 0 1 0;
#X connect 7 0 3 0;
#X restore 2276 194 pd osc2;
#N canvas 1118 310 450 300 osc2 0;
#X obj 174 144 r \$0-reset;
#X obj 167 166 pack f 10;
#X obj 167 188 line~;
#X obj 110 204 *~;
#X obj 110 97 inlet;
#X obj 167 108 inlet;
#X obj 110 226 outlet~;
#X obj 110 167 osc~;
#X connect 0 0 1 0;
#X connect 1 0 2 0;
#X connect 2 0 3 1;
#X connect 3 0 6 0;
#X connect 4 0 7 0;
#X connect 5 0 1 0;
#X connect 7 0 3 0;
#X restore 2326 194 pd osc2;
#N canvas 1118 310 450 300 osc2 0;
#X obj 174 144 r \$0-reset;
#X obj 167 166 pack f 10;
#X obj 167 188 line~;
#X obj 110 204 *~;
#X obj 110 97 inlet;
#X obj 167 108 inlet;
#X obj 110 226 outlet~;
#X obj 110 167 osc~;
#X connect 0 0 1 0;
#X connect 1 0 2 0;
#X connect 2 0 3 1;
#X connect 3 0 6 0;
#X connect 4 0 7 0;
#X connect 5 0 1 0;
#X connect 7 0 3 0;
#X restore 2376 194 pd osc2;
#N canvas 1118 310 450 300 osc2 0;
#X obj 174 144 r \$0-reset;
#X obj 167 166 pack f 10;
#X obj 167 188 line~;
#X obj 110 204 *~;
#X obj 110 97 inlet;
#X obj 167 108 inlet;
#X obj 110 226 outlet~;
#X obj 110 167 osc~;
#X connect 0 0 1 0;
#X connect 1 0 2 0;
#X connect 2 0 3 1;
#X connect 3 0 6 0;
#X connect 4 0 7 0;
#X connect 5 0 1 0;
#X connect 7 0 3 0;
#X restore 2426 194 pd osc2;
#N canvas 1118 310 450 300 osc2 0;
#X obj 174 144 r \$0-reset;
#X obj 167 166 pack f 10;
#X obj 167 188 line~;
#X obj 110 204 *~;
#X obj 110 97 inlet;
#X obj 167 108 inlet;
#X obj 110 226 outlet~;
#X obj 110 167 osc~;
#X connect 0 0 1 0;
#X connect 1 0 2 0;
#X connect 2 0 3 1;
#X connect 3 0 6 0;
#X connect 4 0 7 0;
#X connect 5 0 1 0;
#X connect 7 0 3 0;
#X restore 2476 194 pd osc2;
#N canvas 1118 310 450 300 osc2 0;
#X obj 174 144 r \$0-reset;
#X obj 167 166 pack f 10;
#X obj 167 188 line~;
#X obj 110 204 *~;
#X obj 110 97 inlet;
#X obj 167 108 inlet;
#X obj 110 226 outlet~;
#X obj 110 167 osc~;
#X connect 0 0 1 0;
#X connect 1 0 2 0;
#X connect 2 0 3 1;
#X connect 3 0 6 0;
#X connect 4 0 7 0;
#X connect 5 0 1 0;
#X connect 7 0 3 0;
#X restore 2526 194 pd osc2;
#N canvas 1118 310 450 300 osc2 0;
#X obj 174 144 r \$0-reset;
#X obj 167 166 pack f 10;
#X obj 167 188 line~;
#X obj 110 204 *~;
#X obj 110 97 inlet;
#X obj 167 108 inlet;
#X obj 110 226 outlet~;
#X obj 110 167 osc~;
#X connect 0 0 1 0;
#X connect 1 0 2 0;
#X connect 2 0 3 1;
#X connect 3 0 6 0;
#X connect 4 0 7 0;
#X connect 5 0 1 0;
#X connect 7 0 3 0;
#X restore 2576 194 pd osc2;
#N canvas 1118 310 450 300 osc2 0;
#X obj 174 144 r \$0-reset;
#X obj 167 166 pack f 10;
#X obj 167 188 line~;
#X obj 110 204 *~;
#X obj 110 97 inlet;
#X obj 167 108 inlet;
#X obj 110 226 outlet~;
#X obj 110 167 osc~;
#X connect 0 0 1 0;
#X connect 1 0 2 0;
#X connect 2 0 3 1;
#X connect 3 0 6 0;
#X connect 4 0 7 0;
#X connect 5 0 1 0;
#X connect 7 0 3 0;
#X restore 2626 194 pd osc2;
#N canvas 1118 310 450 300 osc2 0;
#X obj 174 144 r \$0-reset;
#X obj 167 166 pack f 10;
#X obj 167 188 line~;
#X obj 110 204 *~;
#X obj 110 97 inlet;
#X obj 167 108 inlet;
#X obj 110 226 outlet~;
#X obj 110 167 osc~;
#X connect 0 0 1 0;
#X connect 1 0 2 0;
#X connect 2 0 3 1;
#X connect 3 0 6 0;
#X connect 4 0 7 0;
#X connect 5 0 1 0;
#X connect 7 0 3 0;
#X restore 2676 194 pd osc2;
#N canvas 1118 310 450 300 osc2 0;
#X obj 174 144 r \$0-reset;
#X obj 167 166 pack f 10;
#X obj 167 188 line~;
#X obj 110 204 *~;
#X obj 110 97 inlet;
#X obj 167 108 inlet;
#X obj 110 226 outlet~;
#X obj 110 167 osc~;
#X connect 0 0 1 0;
#X connect 1 0 2 0;
#X connect 2 0 3 1;
#X connect 3 0 6 0;
#X connect 4 0 7 0;
#X connect 5 0 1 0;
#X connect 7 0 3 0;
#X restore 2726 194 pd osc2;
#N canvas 1118 310 450 300 osc2 0;
#X obj 174 144 r \$0-reset;
#X obj 167 166 pack f 10;
#X obj 167 188 line~;
#X obj 110 204 *~;
#X obj 110 97 inlet;
#X obj 167 108 inlet;
#X obj 110 226 outlet~;
#X obj 110 167 osc~;
#X connect 0 0 1 0;
#X connect 1 0 2 0;
#X connect 2 0 3 1;
#X connect 3 0 6 0;
#X connect 4 0 7 0;
#X connect 5 0 1 0;
#X connect 7 0 3 0;
#X restore 2776 194 pd osc2;
#N canvas 1118 310 450 300 osc2 0;
#X obj 174 144 r \$0-reset;
#X obj 167 166 pack f 10;
#X obj 167 188 line~;
#X obj 110 204 *~;
#X obj 110 97 inlet;
#X obj 167 108 inlet;
#X obj 110 226 outlet~;
#X obj 110 167 osc~;
#X connect 0 0 1 0;
#X connect 1 0 2 0;
#X connect 2 0 3 1;
#X connect 3 0 6 0;
#X connect 4 0 7 0;
#X connect 5 0 1 0;
#X connect 7 0 3 0;
#X restore 2826 194 pd osc2;
#N canvas 1118 310 450 300 osc2 0;
#X obj 174 144 r \$0-reset;
#X obj 167 166 pack f 10;
#X obj 167 188 line~;
#X obj 110 204 *~;
#X obj 110 97 inlet;
#X obj 167 108 inlet;
#X obj 110 226 outlet~;
#X obj 110 167 osc~;
#X connect 0 0 1 0;
#X connect 1 0 2 0;
#X connect 2 0 3 1;
#X connect 3 0 6 0;
#X connect 4 0 7 0;
#X connect 5 0 1 0;
#X connect 7 0 3 0;
#X restore 2876 194 pd osc2;
#N canvas 1118 310 450 300 osc2 0;
#X obj 174 144 r \$0-reset;
#X obj 167 166 pack f 10;
#X obj 167 188 line~;
#X obj 110 204 *~;
#X obj 110 97 inlet;
#X obj 167 108 inlet;
#X obj 110 226 outlet~;
#X obj 110 167 osc~;
#X connect 0 0 1 0;
#X connect 1 0 2 0;
#X connect 2 0 3 1;
#X connect 3 0 6 0;
#X connect 4 0 7 0;
#X connect 5 0 1 0;
#X connect 7 0 3 0;
#X restore 2926 194 pd osc2;
#N canvas 1118 310 450 300 osc2 0;
#X obj 174 144 r \$0-reset;
#X obj 167 166 pack f 10;
#X obj 167 188 line~;
#X obj 110 204 *~;
#X obj 110 97 inlet;
#X obj 167 108 inlet;
#X obj 110 226 outlet~;
#X obj 110 167 osc~;
#X connect 0 0 1 0;
#X connect 1 0 2 0;
#X connect 2 0 3 1;
#X connect 3 0 6 0;
#X connect 4 0 7 0;
#X connect 5 0 1 0;
#X connect 7 0 3 0;
#X restore 2976 194 pd osc2;
#N canvas 1118 310 450 300 osc2 0;
#X obj 174 144 r \$0-reset;
#X obj 167 166 pack f 10;
#X obj 167 188 line~;
#X obj 110 204 *~;
#X obj 110 97 inlet;
#X obj 167 108 inlet;
#X obj 110 226 outlet~;
#X obj 110 167 osc~;
#X connect 0 0 1 0;
#X connect 1 0 2 0;
#X connect 2 0 3 1;
#X connect 3 0 6 0;
#X connect 4 0 7 0;
#X connect 5 0 1 0;
#X connect 7 0 3 0;
#X restore 3026 194 pd osc2;
#N canvas 1118 310 450 300 osc2 0;
#X obj 174 144 r \$0-reset;
#X obj 167 166 pack f 10;
#X obj 167 188 line~;
#X obj 110 204 *~;
#X obj 110 97 inlet;
#X obj 167 108 inlet;
#X obj 110 226 outlet~;
#X obj 110 167 osc~;
#X connect 0 0 1 0;
#X connect 1 0 2 0;
#X connect 2 0 3 1;
#X connect 3 0 6 0;
#X connect 4 0 7 0;
#X connect 5 0 1 0;
#X connect 7 0 3 0;
#X restore 3076 194 pd osc2;
#N canvas 1118 310 450 300 osc2 0;
#X obj 174 144 r \$0-reset;
#X obj 167 166 pack f 10;
#X obj 167 188 line~;
#X obj 110 204 *~;
#X obj 110 97 inlet;
#X obj 167 108 inlet;
#X obj 110 226 outlet~;
#X obj 110 167 osc~;
#X connect 0 0 1 0;
#X connect 1 0 2 0;
#X connect 2 0 3 1;
#X connect 3 0 6 0;
#X connect 4 0 7 0;
#X connect 5 0 1 0;
#X connect 7 0 3 0;
#X restore 3126 194 pd osc2;
#N canvas 1118 310 450 300 osc2 0;
#X obj 174 144 r \$0-reset;
#X obj 167 166 pack f 10;
#X obj 167 188 line~;
#X obj 110 204 *~;
#X obj 110 97 inlet;
#X obj 167 108 inlet;
#X obj 110 226 outlet~;
#X obj 110 167 osc~;
#X connect 0 0 1 0;
#X connect 1 0 2 0;
#X connect 2 0 3 1;
#X connect 3 0 6 0;
#X connect 4 0 7 0;
#X connect 5 0 1 0;
#X connect 7 0 3 0;
#X restore 3176 194 pd osc2;
#N canvas 1118 310 450 300 osc2 0;
#X obj 174 144 r \$0-reset;
#X obj 167 166 pack f 10;
#X obj 167 188 line~;
#X obj 110 204 *~;
#X obj 110 97 inlet;
#X obj 167 108 inlet;
#X obj 110 226 outlet~;
#X obj 110 167 osc~;
#X connect 0 0 1 0;
#X connect 1 0 2 0;
#X connect 2 0 3 1;
#X connect 3 0 6 0;
#X connect 4 0 7 0;
#X connect 5 0 1 0;
#X connect 7 0 3 0;
#X restore 3226 194 pd osc2;
#N canvas 1118 310 450 300 osc2 0;
#X obj 174 144 r \$0-reset;
#X obj 167 166 pack f 10;
#X obj 167 188 line~;
#X obj 110 204 *~;
#X obj 110 97 inlet;
#X obj 167 108 inlet;
#X obj 110 226 outlet~;
#X obj 110 167 osc~;
#X connect 0 0 1 0;
#X connect 1 0 2 0;
#X connect 2 0 3 1;
#X connect 3 0 6 0;
#X connect 4 0 7 0;
#X connect 5 0 1 0;
#X connect 7 0 3 0;
#X restore 3276 194 pd osc2;
#N canvas 1118 310 450 300 osc2 0;
#X obj 174 144 r \$0-reset;
#X obj 167 166 pack f 10;
#X obj 167 188 line~;
#X obj 110 204 *~;
#X obj 110 97 inlet;
#X obj 167 108 inlet;
#X obj 110 226 outlet~;
#X obj 110 167 osc~;
#X connect 0 0 1 0;
#X connect 1 0 2 0;
#X connect 2 0 3 1;
#X connect 3 0 6 0;
#X connect 4 0 7 0;
#X connect 5 0 1 0;
#X connect 7 0 3 0;
#X restore 3326 194 pd osc2;
#N canvas 1118 310 450 300 osc2 0;
#X obj 174 144 r \$0-reset;
#X obj 167 166 pack f 10;
#X obj 167 188 line~;
#X obj 110 204 *~;
#X obj 110 97 inlet;
#X obj 167 108 inlet;
#X obj 110 226 outlet~;
#X obj 110 167 osc~;
#X connect 0 0 1 0;
#X connect 1 0 2 0;
#X connect 2 0 3 1;
#X connect 3 0 6 0;
#X connect 4 0 7 0;
#X connect 5 0 1 0;
#X connect 7 0 3 0;
#X restore 3376 194 pd osc2;
#N canvas 1118 310 450 300 osc2 0;
#X obj 174 144 r \$0-reset;
#X obj 167 166 pack f 10;
#X obj 167 188 line~;
#X obj 110 204 *~;
#X obj 110 97 inlet;
#X obj 167 108 inlet;
#X obj 110 226 outlet~;
#X obj 110 167 osc~;
#X connect 0 0 1 0;
#X connect 1 0 2 0;
#X connect 2 0 3 1;
#X connect 3 0 6 0;
#X connect 4 0 7 0;
#X connect 5 0 1 0;
#X connect 7 0 3 0;
#X restore 3426 194 pd osc2;
#N canvas 1118 310 450 300 osc2 0;
#X obj 174 144 r \$0-reset;
#X obj 167 166 pack f 10;
#X obj 167 188 line~;
#X obj 110 204 *~;
#X obj 110 97 inlet;
#X obj 167 108 inlet;
#X obj 110 226 outlet~;
#X obj 110 167 osc~;
#X connect 0 0 1 0;
#X connect 1 0 2 0;
#X connect 2 0 3 1;
#X connect 3 0 6 0;
#X connect 4 0 7 0;
#X connect 5 0 1 0;
#X connect 7 0 3 0;
#X restore 3476 194 pd osc2;
#N canvas 1118 310 450 300 osc2 0;
#X obj 174 144 r \$0-reset;
#X obj 167 166 pack f 10;
#X obj 167 188 line~;
#X obj 110 204 *~;
#X obj 110 97 inlet;
#X obj 167 108 inlet;
#X obj 110 226 outlet~;
#X obj 110 167 osc~;
#X connect 0 0 1 0;
#X connect 1 0 2 0;
#X connect 2 0 3 1;
#X connect 3 0 6 0;
#X connect 4 0 7 0;
#X connect 5 0 1 0;
#X connect 7 0 3 0;
#X restore 3526 194 pd osc2;
#N canvas 1118 310 450 300 osc2 0;
#X obj 174 144 r \$0-reset;
#X obj 167 166 pack f 10;
#X obj 167 188 line~;
#X obj 110 204 *~;
#X obj 110 97 inlet;
#X obj 167 108 inlet;
#X obj 110 226 outlet~;
#X obj 110 167 osc~;
#X connect 0 0 1 0;
#X connect 1 0 2 0;
#X connect 2 0 3 1;
#X connect 3 0 6 0;
#X connect 4 0 7 0;
#X connect 5 0 1 0;
#X connect 7 0 3 0;
#X restore 3576 194 pd osc2;
#N canvas 1118 310 450 300 osc2 0;
#X obj 174 144 r \$0-reset;
#X obj 167 166 pack f 10;
#X obj 167 188 line~;
#X obj 110 204 *~;
#X obj 110 97 inlet;
#X obj 167 108 inlet;
#X obj 110 226 outlet~;
#X obj 110 167 osc~;
#X connect 0 0 1 0;
#X connect 1 0 2 0;
#X connect 2 0 3 1;
#X connect 3 0 6 0;
#X connect 4 0 7 0;
#X connect 5 0 1 0;
#X connect 7 0 3 0;
#X restore 3626 194 pd osc2;
#X connect 0 0 1 0;
#X connect 1 0 8 0;
#X connect 1 1 3 0;
#X connect 3 0 2 0;
#X connect 4 0 7 0;
#X connect 5 0 4 0;
#X connect 6 0 5 0;
#X connect 6 1 4 1;
#X connect 7 0 12 0;
#X connect 7 1 13 0;
#X connect 7 2 14 0;
#X connect 7 3 15 0;
#X connect 7 4 16 0;
#X connect 7 5 17 0;
#X connect 7 6 18 0;
#X connect 7 7 19 0;
#X connect 7 8 20 0;
#X connect 7 9 21 0;
#X connect 7 10 22 0;
#X connect 7 11 23 0;
#X connect 7 12 24 0;
#X connect 7 13 25 0;
#X connect 7 14 26 0;
#X connect 7 15 27 0;
#X connect 7 16 28 0;
#X connect 7 17 29 0;
#X connect 7 18 30 0;
#X connect 7 19 31 0;
#X connect 7 20 32 0;
#X connect 7 21 33 0;
#X connect 7 22 34 0;
#X connect 7 23 35 0;
#X connect 7 24 36 0;
#X connect 7 25 37 0;
#X connect 7 26 38 0;
#X connect 7 27 39 0;
#X connect 7 28 40 0;
#X connect 7 29 41 0;
#X connect 7 30 42 0;
#X connect 7 31 43 0;
#X connect 7 32 44 0;
#X connect 7 33 45 0;
#X connect 7 34 46 0;
#X connect 7 35 47 0;
#X connect 7 36 48 0;
#X connect 7 37 49 0;
#X connect 7 38 50 0;
#X connect 7 39 51 0;
#X connect 7 40 52 0;
#X connect 7 41 53 0;
#X connect 7 42 54 0;
#X connect 7 43 55 0;
#X connect 7 44 56 0;
#X connect 7 45 57 0;
#X connect 7 46 58 0;
#X connect 7 47 59 0;
#X connect 7 48 60 0;
#X connect 7 49 61 0;
#X connect 8 0 6 0;
#X connect 8 1 12 1;
#X connect 8 2 13 1;
#X connect 8 3 14 1;
#X connect 8 4 15 1;
#X connect 8 5 16 1;
#X connect 8 6 17 1;
#X connect 8 7 18 1;
#X connect 8 8 19 1;
#X connect 8 9 20 1;
#X connect 8 10 21 1;
#X connect 8 11 22 1;
#X connect 8 12 23 1;
#X connect 8 13 24 1;
#X connect 8 14 25 1;
#X connect 8 15 26 1;
#X connect 8 16 27 1;
#X connect 8 17 28 1;
#X connect 8 18 29 1;
#X connect 8 19 30 1;
#X connect 8 20 31 1;
#X connect 8 21 32 1;
#X connect 8 22 33 1;
#X connect 8 23 34 1;
#X connect 8 24 35 1;
#X connect 8 25 36 1;
#X connect 8 26 37 1;
#X connect 8 27 38 1;
#X connect 8 28 39 1;
#X connect 8 29 40 1;
#X connect 8 30 41 1;
#X connect 8 31 42 1;
#X connect 8 32 43 1;
#X connect 8 33 44 1;
#X connect 8 34 45 1;
#X connect 8 35 46 1;
#X connect 8 36 47 1;
#X connect 8 37 48 1;
#X connect 8 38 49 1;
#X connect 8 39 50 1;
#X connect 8 40 51 1;
#X connect 8 41 52 1;
#X connect 8 42 53 1;
#X connect 8 43 54 1;
#X connect 8 44 55 1;
#X connect 8 45 56 1;
#X connect 8 46 57 1;
#X connect 8 47 58 1;
#X connect 8 48 59 1;
#X connect 8 49 60 1;
#X connect 8 50 61 1;
#X connect 10 0 11 0;
#X connect 11 0 6 0;
#X connect 12 0 9 0;
#X connect 13 0 9 0;
#X connect 14 0 9 0;
#X connect 15 0 9 0;
#X connect 16 0 9 0;
#X connect 17 0 9 0;
#X connect 18 0 9 0;
#X connect 19 0 9 0;
#X connect 20 0 9 0;
#X connect 21 0 9 0;
#X connect 22 0 9 0;
#X connect 23 0 9 0;
#X connect 24 0 9 0;
#X connect 25 0 9 0;
#X connect 26 0 9 0;
#X connect 27 0 9 0;
#X connect 28 0 9 0;
#X connect 29 0 9 0;
#X connect 30 0 9 0;
#X connect 31 0 9 0;
#X connect 32 0 9 0;
#X connect 33 0 9 0;
#X connect 34 0 9 0;
#X connect 35 0 9 0;
#X connect 36 0 9 0;
#X connect 37 0 9 0;
#X connect 38 0 9 0;
#X connect 39 0 9 0;
#X connect 40 0 9 0;
#X connect 41 0 9 0;
#X connect 42 0 9 0;
#X connect 43 0 9 0;
#X connect 44 0 9 0;
#X connect 45 0 9 0;
#X connect 46 0 9 0;
#X connect 47 0 9 0;
#X connect 48 0 9 0;
#X connect 49 0 9 0;
#X connect 50 0 9 0;
#X connect 51 0 9 0;
#X connect 52 0 9 0;
#X connect 53 0 9 0;
#X connect 54 0 9 0;
#X connect 55 0 9 0;
#X connect 56 0 9 0;
#X connect 57 0 9 0;
#X connect 58 0 9 0;
#X connect 59 0 9 0;
#X connect 60 0 9 0;
#X connect 61 0 9 0;
