#N canvas 758 294 566 355 10;
#X msg 89 177 shift -1;
#X obj 62 155 t f b;
#X obj 191 221 loadbang;
#X obj 62 132 i;
#X obj 62 13 ii 1;
#X obj 470 65 vsl 18 135 100 1 1 0 \$0-zoomS \$0-zoomR empty 0 -9 0
10 -262144 -1 -1 6700 1;
#X obj 184 37 s \$0-zoomR;
#X obj 107 13 r \$0-zoomS;
#X obj 77 58 inlet;
#X text 381 311 by Gilberto Agostinho;
#X obj 77 103 t b f;
#X obj 77 81 stripnote;
#N canvas 1 80 450 300 (subpatch) 0;
#X array \$0-piano_roll 200 float 2;
#X coords 0 127 200 0 200 140 1;
#X restore 270 63 graph;
#X msg 191 242 200;
#X obj 89 198 tabletool \$0-piano_roll;
#X obj 62 263 tabwrite \$0-piano_roll;
#X obj 184 14 ii 10;
#X obj 62 36 metro 10;
#X connect 0 0 14 0;
#X connect 1 0 15 0;
#X connect 1 1 0 0;
#X connect 2 0 13 0;
#X connect 3 0 1 0;
#X connect 4 0 17 0;
#X connect 7 0 17 1;
#X connect 8 0 11 0;
#X connect 10 0 3 0;
#X connect 10 1 3 1;
#X connect 11 0 10 0;
#X connect 13 0 15 1;
#X connect 16 0 6 0;
#X connect 17 0 3 0;
#X coords 0 -1 1 1 218 140 2 270 63;
