#N canvas 792 278 566 355 10;
#N canvas 0 0 450 300 (subpatch) 0;
#X array \$0-pianoroll 128 float 2;
#X coords 0 127 128 0 200 140 1;
#X restore 270 63 graph;
#X msg 89 177 shift -1;
#X obj 62 155 t f b;
#X obj 185 221 loadbang;
#X obj 89 198 tabletool \$0-pianoroll;
#X obj 62 263 tabwrite \$0-pianoroll;
#X msg 185 242 128;
#X obj 62 132 i;
#X obj 62 13 ii 1;
#X obj 62 36 metro 50;
#X obj 470 65 vsl 18 135 100 1 0 0 \$0-zoomS \$0-zoomR empty 0 -9 0
10 -262144 -1 -1 6768 1;
#X obj 184 14 ii 50;
#X obj 184 37 s \$0-zoomR;
#X obj 107 13 r \$0-zoomS;
#X obj 77 58 inlet;
#X text 381 311 by Gilberto Agostinho;
#X obj 77 103 t b f;
#X obj 77 81 stripnote;
#X connect 1 0 4 0;
#X connect 2 0 5 0;
#X connect 2 1 1 0;
#X connect 3 0 6 0;
#X connect 6 0 5 1;
#X connect 7 0 2 0;
#X connect 8 0 9 0;
#X connect 9 0 7 0;
#X connect 11 0 12 0;
#X connect 13 0 9 1;
#X connect 14 0 17 0;
#X connect 16 0 7 0;
#X connect 16 1 7 1;
#X connect 17 0 16 0;
#X coords 0 -1 1 1 218 140 2 270 63;
