#N canvas 445 169 1008 463 10;
#X obj 103 103 cnv 11 11 11 empty empty empty 20 12 0 14 -654 -66577
0;
#X obj 103 116 cnv 11 11 11 empty empty empty 20 12 0 14 -4945 -66577
0;
#X obj 103 129 cnv 11 11 11 empty empty empty 20 12 0 14 -91870 -66577
0;
#X obj 103 142 cnv 11 11 11 empty empty empty 20 12 0 14 -104353 -66577
0;
#X obj 103 155 cnv 11 11 11 empty empty empty 20 12 0 14 -133478 -66577
0;
#X obj 103 168 cnv 11 11 11 empty empty empty 20 12 0 14 -150057 -66577
0;
#X obj 103 181 cnv 11 11 11 empty empty empty 20 12 0 14 -245430 -66577
0;
#X obj 103 194 cnv 11 11 11 empty empty empty 20 12 0 14 -262009 -66577
0;
#X obj 103 207 cnv 11 11 11 empty empty empty 20 12 0 14 -186497 -66577
0;
#X obj 103 220 cnv 11 11 11 empty empty empty 20 12 0 14 -205958 -66577
0;
#X obj 103 233 cnv 11 11 11 empty empty empty 20 12 0 14 -226060 -66577
0;
#X obj 103 246 cnv 11 11 11 empty empty empty 20 12 0 14 -213857 -66577
0;
#X obj 103 259 cnv 11 11 11 empty empty empty 20 12 0 14 -112434 -66577
0;
#X obj 103 272 cnv 11 11 11 empty empty empty 20 12 0 14 -39093 -66577
0;
#X obj 103 285 cnv 11 11 11 empty empty empty 20 12 0 14 -43559 -66577
0;
#X obj 103 298 cnv 11 11 11 empty empty empty 20 12 0 14 -137601 -66577
0;
#X text 182 100 #002b36;
#X text 182 113 #073642;
#X text 182 126 #586e75;
#X text 182 139 #657b83;
#X text 182 152 #839496;
#X text 182 165 #93a1a1;
#X text 182 178 #eee8d5;
#X text 182 191 #fdf6e3;
#X text 182 204 #b58900;
#X text 182 217 #cb4b16;
#X text 182 230 #dc322f;
#X text 182 243 #d33682;
#X text 182 256 #6c71c4;
#X text 182 269 #268bd2;
#X text 182 282 #2aa198;
#X text 182 295 #859900;
#X text 122 113 base02;
#X text 122 126 base01;
#X text 122 139 base00;
#X text 121 153 base0;
#X text 122 165 base1;
#X text 121 179 base2;
#X text 122 191 base3;
#X text 122 204 yellow;
#X text 122 217 orange;
#X text 122 230 red;
#X text 122 243 magenta;
#X text 122 256 violet;
#X text 122 269 blue;
#X text 122 282 cyan;
#X text 122 295 green;
#X text 122 100 base03;
#X obj 653 76 select 1 2 3 4 5 6 7 8 9 10 11 12 13 14 15 16;
#X obj 283 12 inlet;
#X msg 903 351 base00;
#X obj 903 324 t b a;
#X msg 653 266 set base03;
#X msg 669 243 set base02;
#X msg 686 221 set base01;
#X msg 703 198 set base00;
#X msg 719 176 set base0;
#X msg 736 153 set base1;
#X msg 753 131 set base2;
#X msg 769 108 set base3;
#X msg 786 262 set yellow;
#X msg 802 239 set orange;
#X msg 819 217 set red;
#X msg 836 194 set magenta;
#X msg 853 172 set violet;
#X msg 869 149 set blue;
#X msg 886 127 set cyan;
#X msg 903 104 set green;
#X obj 283 76 select 1 2 3 4 5 6 7 8 9 10 11 12 13 14 15 16;
#X msg 316 221 set #586e75;
#X msg 333 198 set #657b83;
#X msg 349 176 set #839496;
#X msg 366 153 set #93a1a1;
#X msg 383 131 set #eee8d5;
#X msg 399 108 set #fdf6e3;
#X msg 416 262 set #b58900;
#X msg 432 239 set #cb4b16;
#X msg 449 217 set #dc322f;
#X msg 466 194 set #d33682;
#X msg 483 172 set #6c71c4;
#X msg 499 149 set #268bd2;
#X msg 516 127 set #2aa198;
#X msg 533 104 set #859900;
#X msg 533 351 #657b83;
#X msg 299 243 set #073642;
#X msg 283 266 set #002b36;
#X obj 533 324 t b a;
#X obj 533 377 print;
#X obj 903 377 print;
#X obj 283 36 t f f;
#X connect 48 0 52 0;
#X connect 48 1 53 0;
#X connect 48 2 54 0;
#X connect 48 3 55 0;
#X connect 48 4 56 0;
#X connect 48 5 57 0;
#X connect 48 6 58 0;
#X connect 48 7 59 0;
#X connect 48 8 60 0;
#X connect 48 9 61 0;
#X connect 48 10 62 0;
#X connect 48 11 63 0;
#X connect 48 12 64 0;
#X connect 48 13 65 0;
#X connect 48 14 66 0;
#X connect 48 15 67 0;
#X connect 49 0 89 0;
#X connect 50 0 88 0;
#X connect 51 0 50 0;
#X connect 51 1 50 0;
#X connect 52 0 51 0;
#X connect 53 0 51 0;
#X connect 54 0 51 0;
#X connect 55 0 51 0;
#X connect 56 0 51 0;
#X connect 58 0 51 0;
#X connect 59 0 51 0;
#X connect 60 0 51 0;
#X connect 61 0 51 0;
#X connect 62 0 51 0;
#X connect 63 0 51 0;
#X connect 64 0 51 0;
#X connect 65 0 51 0;
#X connect 66 0 51 0;
#X connect 67 0 51 0;
#X connect 68 0 85 0;
#X connect 68 1 84 0;
#X connect 68 2 69 0;
#X connect 68 3 70 0;
#X connect 68 4 71 0;
#X connect 68 5 72 0;
#X connect 68 6 73 0;
#X connect 68 7 74 0;
#X connect 68 8 75 0;
#X connect 68 9 76 0;
#X connect 68 10 77 0;
#X connect 68 11 78 0;
#X connect 68 12 79 0;
#X connect 68 13 80 0;
#X connect 68 14 81 0;
#X connect 68 15 82 0;
#X connect 69 0 86 0;
#X connect 70 0 86 0;
#X connect 71 0 86 0;
#X connect 73 0 86 0;
#X connect 74 0 86 0;
#X connect 75 0 86 0;
#X connect 76 0 86 0;
#X connect 77 0 86 0;
#X connect 78 0 86 0;
#X connect 79 0 86 0;
#X connect 80 0 86 0;
#X connect 81 0 86 0;
#X connect 82 0 86 0;
#X connect 83 0 87 0;
#X connect 84 0 86 0;
#X connect 85 0 86 0;
#X connect 86 0 83 0;
#X connect 86 1 83 0;
#X connect 89 0 68 0;
#X connect 89 1 48 0;
#X coords 0 -1 1 1 130 212 2 100 100;
