#N canvas 342 226 671 512 10;
#X obj 276 268 spigot;
#X obj 303 237 t f f;
#X obj 227 268 sel 0;
#X obj 276 186 t f f;
#X obj 276 58 inlet;
#X obj 321 100 inlet;
#X obj 321 122 \$1;
#X obj 276 145 random 2;
#X obj 276 320 outlet;
#X obj 227 290 delay 0;
#X obj 303 211 != -1;
#X obj 363 103 loadbang;
#X text 297 426 adapted from chaosmoon patch from: http://forum.pdpatchrepo.info/topic/683/random-that-doesn-t-repeat
;
#X connect 0 0 8 0;
#X connect 0 0 10 1;
#X connect 1 0 2 0;
#X connect 1 1 0 1;
#X connect 2 0 9 0;
#X connect 3 0 0 0;
#X connect 3 1 10 0;
#X connect 4 0 7 0;
#X connect 5 0 6 0;
#X connect 6 0 7 1;
#X connect 7 0 3 0;
#X connect 9 0 7 0;
#X connect 10 0 1 0;
#X connect 11 0 6 0;
