#N canvas 648 402 449 382 10;
#X obj 103 16 loadbang;
#X obj 103 101 image 0.gif;
#X msg 103 53 open 0.gif;
#X msg 192 53 size 2 2;
#X obj 218 83 inlet~;
#X obj 218 107 outlet~;
#X connect 0 0 2 0;
#X connect 0 0 3 0;
#X connect 2 0 1 0;
#X connect 3 0 1 0;
#X connect 4 0 5 0;
#X coords 0 -1 1 1 6 3 2 100 100;
