#N canvas 382 264 309 536 10;
#X obj 74 28 inlet~;
#X obj 74 94 cartopol~;
#X obj 74 235 *~;
#X obj 74 474 outlet~;
#X obj 74 370 *~;
#X obj 74 395 poltocar~;
#X obj 169 311 <~;
#X obj 74 451 /~ 64;
#X obj 159 171 >~;
#X obj 184 209 loadbang;
#X obj 224 232 inlet;
#X obj 184 265 pack 0 40;
#X obj 184 288 line~;
#X obj 174 69 loadbang;
#X obj 204 92 inlet;
#X obj 174 92 \$1;
#X obj 174 125 pack 0 40;
#X obj 174 148 line~;
#X obj 184 232 \$2;
#X obj 74 61 rfft~;
#X obj 74 428 rifft~;
#X connect 0 0 19 0;
#X connect 1 0 2 0;
#X connect 1 0 8 0;
#X connect 1 1 5 1;
#X connect 2 0 6 0;
#X connect 2 0 4 0;
#X connect 4 0 5 0;
#X connect 5 0 20 0;
#X connect 5 1 20 1;
#X connect 6 0 4 1;
#X connect 7 0 3 0;
#X connect 8 0 2 1;
#X connect 9 0 18 0;
#X connect 10 0 11 0;
#X connect 11 0 12 0;
#X connect 12 0 6 1;
#X connect 13 0 15 0;
#X connect 14 0 16 0;
#X connect 15 0 16 0;
#X connect 16 0 17 0;
#X connect 17 0 8 1;
#X connect 18 0 11 0;
#X connect 19 0 1 0;
#X connect 19 1 1 1;
#X connect 20 0 7 0;
