#N canvas 674 429 619 385 10;
#X msg 261 122 open \$1.gif;
#X msg 102 65 0;
#X obj 102 37 loadbang;
#X obj 141 66 inlet;
#X obj 102 147 outlet;
#X obj 102 103 hradio 14 1 0 3 empty empty empty 0 -8 0 10 -262144 -1 -1 0;
#X obj 102 118 hradio 14 1 0 3 empty empty empty 0 -8 0 10 -262144 -1 -1 0;
#X obj 123 118 image 0.gif;
#X connect 0 0 7 0;
#X connect 1 0 5 0;
#X connect 2 0 1 0;
#X connect 3 0 5 0;
#X connect 5 0 6 0;
#X connect 6 0 4 0;
#X connect 6 0 0 0;
#X coords 0 -1 1 1 46 36 2 100 100;
