#N canvas 1 80 1911 300 10;
#X obj 48 -50 inlet;
#X obj 1097 193 outlet~;
#X obj 48 -28 t l b;
#X obj 75 13 s \$0-reset;
#N canvas 1449 503 450 300 osc~ 0;
#X obj 102 141 osc~ \$1;
#X obj 226 118 r \$0-reset;
#X obj 219 140 pack f 10;
#X obj 159 162 line~;
#X obj 102 178 *~;
#X obj 159 118 loadbang;
#X obj 159 140 \$2;
#X obj 102 81 inlet;
#X obj 219 82 inlet;
#X obj 102 200 outlet~;
#X connect 0 0 4 0;
#X connect 1 0 2 0;
#X connect 2 0 3 0;
#X connect 3 0 4 1;
#X connect 4 0 9 0;
#X connect 5 0 6 0;
#X connect 6 0 3 0;
#X connect 7 0 0 0;
#X connect 8 0 2 0;
#X restore 48 70 pd osc~;
#N canvas 1449 503 450 300 osc~ 0;
#X obj 226 118 r \$0-reset;
#X obj 219 140 pack f 10;
#X obj 159 162 line~;
#X obj 102 178 *~;
#X obj 159 118 loadbang;
#X obj 102 81 inlet;
#X obj 219 82 inlet;
#X obj 102 200 outlet~;
#X obj 102 141 osc~ \$3;
#X obj 159 140 \$4;
#X connect 0 0 1 0;
#X connect 1 0 2 0;
#X connect 2 0 3 1;
#X connect 3 0 7 0;
#X connect 4 0 9 0;
#X connect 5 0 8 0;
#X connect 6 0 1 0;
#X connect 8 0 3 0;
#X connect 9 0 2 0;
#X restore 98 70 pd osc~;
#N canvas 1449 503 450 300 osc~ 0;
#X obj 226 118 r \$0-reset;
#X obj 219 140 pack f 10;
#X obj 159 162 line~;
#X obj 102 178 *~;
#X obj 159 118 loadbang;
#X obj 102 81 inlet;
#X obj 219 82 inlet;
#X obj 102 200 outlet~;
#X obj 102 141 osc~ \$5;
#X obj 159 140 \$6;
#X connect 0 0 1 0;
#X connect 1 0 2 0;
#X connect 2 0 3 1;
#X connect 3 0 7 0;
#X connect 4 0 9 0;
#X connect 5 0 8 0;
#X connect 6 0 1 0;
#X connect 8 0 3 0;
#X connect 9 0 2 0;
#X restore 148 70 pd osc~;
#N canvas 1449 503 450 300 osc~ 0;
#X obj 226 118 r \$0-reset;
#X obj 219 140 pack f 10;
#X obj 159 162 line~;
#X obj 102 178 *~;
#X obj 159 118 loadbang;
#X obj 102 81 inlet;
#X obj 219 82 inlet;
#X obj 102 200 outlet~;
#X obj 102 141 osc~ \$7;
#X obj 159 140 \$8;
#X connect 0 0 1 0;
#X connect 1 0 2 0;
#X connect 2 0 3 1;
#X connect 3 0 7 0;
#X connect 4 0 9 0;
#X connect 5 0 8 0;
#X connect 6 0 1 0;
#X connect 8 0 3 0;
#X connect 9 0 2 0;
#X restore 198 70 pd osc~;
#N canvas 1449 503 450 300 osc~ 0;
#X obj 226 118 r \$0-reset;
#X obj 219 140 pack f 10;
#X obj 159 162 line~;
#X obj 102 178 *~;
#X obj 159 118 loadbang;
#X obj 102 81 inlet;
#X obj 219 82 inlet;
#X obj 102 200 outlet~;
#X obj 102 141 osc~ \$9;
#X obj 159 140 \$10;
#X connect 0 0 1 0;
#X connect 1 0 2 0;
#X connect 2 0 3 1;
#X connect 3 0 7 0;
#X connect 4 0 9 0;
#X connect 5 0 8 0;
#X connect 6 0 1 0;
#X connect 8 0 3 0;
#X connect 9 0 2 0;
#X restore 248 70 pd osc~;
#N canvas 1449 503 450 300 osc~ 0;
#X obj 226 118 r \$0-reset;
#X obj 219 140 pack f 10;
#X obj 159 162 line~;
#X obj 102 178 *~;
#X obj 159 118 loadbang;
#X obj 102 81 inlet;
#X obj 219 82 inlet;
#X obj 102 200 outlet~;
#X obj 102 141 osc~ \$11;
#X obj 159 140 \$12;
#X connect 0 0 1 0;
#X connect 1 0 2 0;
#X connect 2 0 3 1;
#X connect 3 0 7 0;
#X connect 4 0 9 0;
#X connect 5 0 8 0;
#X connect 6 0 1 0;
#X connect 8 0 3 0;
#X connect 9 0 2 0;
#X restore 298 70 pd osc~;
#N canvas 1449 503 450 300 osc~ 0;
#X obj 226 118 r \$0-reset;
#X obj 219 140 pack f 10;
#X obj 159 162 line~;
#X obj 102 178 *~;
#X obj 159 118 loadbang;
#X obj 102 81 inlet;
#X obj 219 82 inlet;
#X obj 102 200 outlet~;
#X obj 102 141 osc~ \$13;
#X obj 159 140 \$14;
#X connect 0 0 1 0;
#X connect 1 0 2 0;
#X connect 2 0 3 1;
#X connect 3 0 7 0;
#X connect 4 0 9 0;
#X connect 5 0 8 0;
#X connect 6 0 1 0;
#X connect 8 0 3 0;
#X connect 9 0 2 0;
#X restore 348 70 pd osc~;
#N canvas 1449 503 450 300 osc~ 0;
#X obj 226 118 r \$0-reset;
#X obj 219 140 pack f 10;
#X obj 159 162 line~;
#X obj 102 178 *~;
#X obj 159 118 loadbang;
#X obj 102 81 inlet;
#X obj 219 82 inlet;
#X obj 102 200 outlet~;
#X obj 159 140 \$16;
#X obj 102 141 osc~ \$15;
#X connect 0 0 1 0;
#X connect 1 0 2 0;
#X connect 2 0 3 1;
#X connect 3 0 7 0;
#X connect 4 0 8 0;
#X connect 5 0 9 0;
#X connect 6 0 1 0;
#X connect 8 0 2 0;
#X connect 9 0 3 0;
#X restore 398 70 pd osc~;
#N canvas 1449 503 450 300 osc~ 0;
#X obj 226 118 r \$0-reset;
#X obj 219 140 pack f 10;
#X obj 159 162 line~;
#X obj 102 178 *~;
#X obj 159 118 loadbang;
#X obj 102 81 inlet;
#X obj 219 82 inlet;
#X obj 102 200 outlet~;
#X obj 159 140 \$18;
#X obj 102 141 osc~ \$17;
#X connect 0 0 1 0;
#X connect 1 0 2 0;
#X connect 2 0 3 1;
#X connect 3 0 7 0;
#X connect 4 0 8 0;
#X connect 5 0 9 0;
#X connect 6 0 1 0;
#X connect 8 0 2 0;
#X connect 9 0 3 0;
#X restore 448 70 pd osc~;
#N canvas 1449 503 450 300 osc~ 0;
#X obj 226 118 r \$0-reset;
#X obj 219 140 pack f 10;
#X obj 159 162 line~;
#X obj 102 178 *~;
#X obj 159 118 loadbang;
#X obj 102 81 inlet;
#X obj 219 82 inlet;
#X obj 102 200 outlet~;
#X obj 159 140 \$20;
#X obj 102 141 osc~ \$19;
#X connect 0 0 1 0;
#X connect 1 0 2 0;
#X connect 2 0 3 1;
#X connect 3 0 7 0;
#X connect 4 0 8 0;
#X connect 5 0 9 0;
#X connect 6 0 1 0;
#X connect 8 0 2 0;
#X connect 9 0 3 0;
#X restore 498 70 pd osc~;
#X msg 75 -8 0;
#N canvas 1449 503 450 300 osc2 0;
#X obj 166 117 r \$0-reset;
#X obj 159 139 pack f 10;
#X obj 159 162 line~;
#X obj 102 178 *~;
#X obj 102 81 inlet;
#X obj 159 81 inlet;
#X obj 102 200 outlet~;
#X obj 102 141 osc~ 0;
#X connect 0 0 1 0;
#X connect 1 0 2 0;
#X connect 2 0 3 1;
#X connect 3 0 6 0;
#X connect 4 0 7 0;
#X connect 5 0 1 0;
#X connect 7 0 3 0;
#X restore 548 70 pd osc2;
#N canvas 1449 503 450 300 osc2 0;
#X obj 166 117 r \$0-reset;
#X obj 159 139 pack f 10;
#X obj 159 162 line~;
#X obj 102 178 *~;
#X obj 102 81 inlet;
#X obj 159 81 inlet;
#X obj 102 200 outlet~;
#X obj 102 141 osc~ 0;
#X connect 0 0 1 0;
#X connect 1 0 2 0;
#X connect 2 0 3 1;
#X connect 3 0 6 0;
#X connect 4 0 7 0;
#X connect 5 0 1 0;
#X connect 7 0 3 0;
#X restore 598 70 pd osc2;
#N canvas 1449 503 450 300 osc2 0;
#X obj 166 117 r \$0-reset;
#X obj 159 139 pack f 10;
#X obj 159 162 line~;
#X obj 102 178 *~;
#X obj 102 81 inlet;
#X obj 159 81 inlet;
#X obj 102 200 outlet~;
#X obj 102 141 osc~ 0;
#X connect 0 0 1 0;
#X connect 1 0 2 0;
#X connect 2 0 3 1;
#X connect 3 0 6 0;
#X connect 4 0 7 0;
#X connect 5 0 1 0;
#X connect 7 0 3 0;
#X restore 648 70 pd osc2;
#N canvas 1449 503 450 300 osc2 0;
#X obj 166 117 r \$0-reset;
#X obj 159 139 pack f 10;
#X obj 159 162 line~;
#X obj 102 178 *~;
#X obj 102 81 inlet;
#X obj 159 81 inlet;
#X obj 102 200 outlet~;
#X obj 102 141 osc~ 0;
#X connect 0 0 1 0;
#X connect 1 0 2 0;
#X connect 2 0 3 1;
#X connect 3 0 6 0;
#X connect 4 0 7 0;
#X connect 5 0 1 0;
#X connect 7 0 3 0;
#X restore 698 70 pd osc2;
#N canvas 1449 503 450 300 osc2 0;
#X obj 166 117 r \$0-reset;
#X obj 159 139 pack f 10;
#X obj 159 162 line~;
#X obj 102 178 *~;
#X obj 102 81 inlet;
#X obj 159 81 inlet;
#X obj 102 200 outlet~;
#X obj 102 141 osc~ 0;
#X connect 0 0 1 0;
#X connect 1 0 2 0;
#X connect 2 0 3 1;
#X connect 3 0 6 0;
#X connect 4 0 7 0;
#X connect 5 0 1 0;
#X connect 7 0 3 0;
#X restore 748 70 pd osc2;
#N canvas 1449 503 450 300 osc2 0;
#X obj 166 117 r \$0-reset;
#X obj 159 139 pack f 10;
#X obj 159 162 line~;
#X obj 102 178 *~;
#X obj 102 81 inlet;
#X obj 159 81 inlet;
#X obj 102 200 outlet~;
#X obj 102 141 osc~ 0;
#X connect 0 0 1 0;
#X connect 1 0 2 0;
#X connect 2 0 3 1;
#X connect 3 0 6 0;
#X connect 4 0 7 0;
#X connect 5 0 1 0;
#X connect 7 0 3 0;
#X restore 798 70 pd osc2;
#N canvas 1449 503 450 300 osc2 0;
#X obj 166 117 r \$0-reset;
#X obj 159 139 pack f 10;
#X obj 159 162 line~;
#X obj 102 178 *~;
#X obj 102 81 inlet;
#X obj 159 81 inlet;
#X obj 102 200 outlet~;
#X obj 102 141 osc~ 0;
#X connect 0 0 1 0;
#X connect 1 0 2 0;
#X connect 2 0 3 1;
#X connect 3 0 6 0;
#X connect 4 0 7 0;
#X connect 5 0 1 0;
#X connect 7 0 3 0;
#X restore 848 70 pd osc2;
#N canvas 1449 503 450 300 osc2 0;
#X obj 166 117 r \$0-reset;
#X obj 159 139 pack f 10;
#X obj 159 162 line~;
#X obj 102 178 *~;
#X obj 102 81 inlet;
#X obj 159 81 inlet;
#X obj 102 200 outlet~;
#X obj 102 141 osc~ 0;
#X connect 0 0 1 0;
#X connect 1 0 2 0;
#X connect 2 0 3 1;
#X connect 3 0 6 0;
#X connect 4 0 7 0;
#X connect 5 0 1 0;
#X connect 7 0 3 0;
#X restore 898 70 pd osc2;
#N canvas 1449 503 450 300 osc2 0;
#X obj 166 117 r \$0-reset;
#X obj 159 139 pack f 10;
#X obj 159 162 line~;
#X obj 102 178 *~;
#X obj 102 81 inlet;
#X obj 159 81 inlet;
#X obj 102 200 outlet~;
#X obj 102 141 osc~ 0;
#X connect 0 0 1 0;
#X connect 1 0 2 0;
#X connect 2 0 3 1;
#X connect 3 0 6 0;
#X connect 4 0 7 0;
#X connect 5 0 1 0;
#X connect 7 0 3 0;
#X restore 948 70 pd osc2;
#N canvas 1449 503 450 300 osc2 0;
#X obj 166 117 r \$0-reset;
#X obj 159 139 pack f 10;
#X obj 159 162 line~;
#X obj 102 178 *~;
#X obj 102 81 inlet;
#X obj 159 81 inlet;
#X obj 102 200 outlet~;
#X obj 102 141 osc~ 0;
#X connect 0 0 1 0;
#X connect 1 0 2 0;
#X connect 2 0 3 1;
#X connect 3 0 6 0;
#X connect 4 0 7 0;
#X connect 5 0 1 0;
#X connect 7 0 3 0;
#X restore 998 70 pd osc2;
#N canvas 1449 503 450 300 osc2 0;
#X obj 166 117 r \$0-reset;
#X obj 159 139 pack f 10;
#X obj 159 162 line~;
#X obj 102 178 *~;
#X obj 102 81 inlet;
#X obj 159 81 inlet;
#X obj 102 200 outlet~;
#X obj 102 141 osc~ 0;
#X connect 0 0 1 0;
#X connect 1 0 2 0;
#X connect 2 0 3 1;
#X connect 3 0 6 0;
#X connect 4 0 7 0;
#X connect 5 0 1 0;
#X connect 7 0 3 0;
#X restore 1048 70 pd osc2;
#N canvas 1449 503 450 300 osc2 0;
#X obj 166 117 r \$0-reset;
#X obj 159 139 pack f 10;
#X obj 159 162 line~;
#X obj 102 178 *~;
#X obj 102 81 inlet;
#X obj 159 81 inlet;
#X obj 102 200 outlet~;
#X obj 102 141 osc~ 0;
#X connect 0 0 1 0;
#X connect 1 0 2 0;
#X connect 2 0 3 1;
#X connect 3 0 6 0;
#X connect 4 0 7 0;
#X connect 5 0 1 0;
#X connect 7 0 3 0;
#X restore 1098 70 pd osc2;
#N canvas 1449 503 450 300 osc2 0;
#X obj 166 117 r \$0-reset;
#X obj 159 139 pack f 10;
#X obj 159 162 line~;
#X obj 102 178 *~;
#X obj 102 81 inlet;
#X obj 159 81 inlet;
#X obj 102 200 outlet~;
#X obj 102 141 osc~ 0;
#X connect 0 0 1 0;
#X connect 1 0 2 0;
#X connect 2 0 3 1;
#X connect 3 0 6 0;
#X connect 4 0 7 0;
#X connect 5 0 1 0;
#X connect 7 0 3 0;
#X restore 1148 70 pd osc2;
#N canvas 1449 503 450 300 osc2 0;
#X obj 166 117 r \$0-reset;
#X obj 159 139 pack f 10;
#X obj 159 162 line~;
#X obj 102 178 *~;
#X obj 102 81 inlet;
#X obj 159 81 inlet;
#X obj 102 200 outlet~;
#X obj 102 141 osc~ 0;
#X connect 0 0 1 0;
#X connect 1 0 2 0;
#X connect 2 0 3 1;
#X connect 3 0 6 0;
#X connect 4 0 7 0;
#X connect 5 0 1 0;
#X connect 7 0 3 0;
#X restore 1198 70 pd osc2;
#N canvas 1449 503 450 300 osc2 0;
#X obj 166 117 r \$0-reset;
#X obj 159 139 pack f 10;
#X obj 159 162 line~;
#X obj 102 178 *~;
#X obj 102 81 inlet;
#X obj 159 81 inlet;
#X obj 102 200 outlet~;
#X obj 102 141 osc~ 0;
#X connect 0 0 1 0;
#X connect 1 0 2 0;
#X connect 2 0 3 1;
#X connect 3 0 6 0;
#X connect 4 0 7 0;
#X connect 5 0 1 0;
#X connect 7 0 3 0;
#X restore 1248 70 pd osc2;
#N canvas 1449 503 450 300 osc2 0;
#X obj 166 117 r \$0-reset;
#X obj 159 139 pack f 10;
#X obj 159 162 line~;
#X obj 102 178 *~;
#X obj 102 81 inlet;
#X obj 159 81 inlet;
#X obj 102 200 outlet~;
#X obj 102 141 osc~ 0;
#X connect 0 0 1 0;
#X connect 1 0 2 0;
#X connect 2 0 3 1;
#X connect 3 0 6 0;
#X connect 4 0 7 0;
#X connect 5 0 1 0;
#X connect 7 0 3 0;
#X restore 1298 70 pd osc2;
#N canvas 1449 503 450 300 osc2 0;
#X obj 166 117 r \$0-reset;
#X obj 159 139 pack f 10;
#X obj 159 162 line~;
#X obj 102 178 *~;
#X obj 102 81 inlet;
#X obj 159 81 inlet;
#X obj 102 200 outlet~;
#X obj 102 141 osc~ 0;
#X connect 0 0 1 0;
#X connect 1 0 2 0;
#X connect 2 0 3 1;
#X connect 3 0 6 0;
#X connect 4 0 7 0;
#X connect 5 0 1 0;
#X connect 7 0 3 0;
#X restore 1348 70 pd osc2;
#N canvas 1449 503 450 300 osc2 0;
#X obj 166 117 r \$0-reset;
#X obj 159 139 pack f 10;
#X obj 159 162 line~;
#X obj 102 178 *~;
#X obj 102 81 inlet;
#X obj 159 81 inlet;
#X obj 102 200 outlet~;
#X obj 102 141 osc~ 0;
#X connect 0 0 1 0;
#X connect 1 0 2 0;
#X connect 2 0 3 1;
#X connect 3 0 6 0;
#X connect 4 0 7 0;
#X connect 5 0 1 0;
#X connect 7 0 3 0;
#X restore 1398 70 pd osc2;
#N canvas 1449 503 450 300 osc2 0;
#X obj 166 117 r \$0-reset;
#X obj 159 139 pack f 10;
#X obj 159 162 line~;
#X obj 102 178 *~;
#X obj 102 81 inlet;
#X obj 159 81 inlet;
#X obj 102 200 outlet~;
#X obj 102 141 osc~ 0;
#X connect 0 0 1 0;
#X connect 1 0 2 0;
#X connect 2 0 3 1;
#X connect 3 0 6 0;
#X connect 4 0 7 0;
#X connect 5 0 1 0;
#X connect 7 0 3 0;
#X restore 1448 70 pd osc2;
#N canvas 1449 503 450 300 osc2 0;
#X obj 166 117 r \$0-reset;
#X obj 159 139 pack f 10;
#X obj 159 162 line~;
#X obj 102 178 *~;
#X obj 102 81 inlet;
#X obj 159 81 inlet;
#X obj 102 200 outlet~;
#X obj 102 141 osc~ 0;
#X connect 0 0 1 0;
#X connect 1 0 2 0;
#X connect 2 0 3 1;
#X connect 3 0 6 0;
#X connect 4 0 7 0;
#X connect 5 0 1 0;
#X connect 7 0 3 0;
#X restore 1498 70 pd osc2;
#N canvas 1449 503 450 300 osc2 0;
#X obj 166 117 r \$0-reset;
#X obj 159 139 pack f 10;
#X obj 159 162 line~;
#X obj 102 178 *~;
#X obj 102 81 inlet;
#X obj 159 81 inlet;
#X obj 102 200 outlet~;
#X obj 102 141 osc~ 0;
#X connect 0 0 1 0;
#X connect 1 0 2 0;
#X connect 2 0 3 1;
#X connect 3 0 6 0;
#X connect 4 0 7 0;
#X connect 5 0 1 0;
#X connect 7 0 3 0;
#X restore 1548 70 pd osc2;
#N canvas 1449 503 450 300 osc2 0;
#X obj 166 117 r \$0-reset;
#X obj 159 139 pack f 10;
#X obj 159 162 line~;
#X obj 102 178 *~;
#X obj 102 81 inlet;
#X obj 159 81 inlet;
#X obj 102 200 outlet~;
#X obj 102 141 osc~ 0;
#X connect 0 0 1 0;
#X connect 1 0 2 0;
#X connect 2 0 3 1;
#X connect 3 0 6 0;
#X connect 4 0 7 0;
#X connect 5 0 1 0;
#X connect 7 0 3 0;
#X restore 1598 70 pd osc2;
#N canvas 1449 503 450 300 osc2 0;
#X obj 166 117 r \$0-reset;
#X obj 159 139 pack f 10;
#X obj 159 162 line~;
#X obj 102 178 *~;
#X obj 102 81 inlet;
#X obj 159 81 inlet;
#X obj 102 200 outlet~;
#X obj 102 141 osc~ 0;
#X connect 0 0 1 0;
#X connect 1 0 2 0;
#X connect 2 0 3 1;
#X connect 3 0 6 0;
#X connect 4 0 7 0;
#X connect 5 0 1 0;
#X connect 7 0 3 0;
#X restore 1648 70 pd osc2;
#N canvas 1449 503 450 300 osc2 0;
#X obj 166 117 r \$0-reset;
#X obj 159 139 pack f 10;
#X obj 159 162 line~;
#X obj 102 178 *~;
#X obj 102 81 inlet;
#X obj 159 81 inlet;
#X obj 102 200 outlet~;
#X obj 102 141 osc~ 0;
#X connect 0 0 1 0;
#X connect 1 0 2 0;
#X connect 2 0 3 1;
#X connect 3 0 6 0;
#X connect 4 0 7 0;
#X connect 5 0 1 0;
#X connect 7 0 3 0;
#X restore 1698 70 pd osc2;
#N canvas 1449 503 450 300 osc2 0;
#X obj 166 117 r \$0-reset;
#X obj 159 139 pack f 10;
#X obj 159 162 line~;
#X obj 102 178 *~;
#X obj 102 81 inlet;
#X obj 159 81 inlet;
#X obj 102 200 outlet~;
#X obj 102 141 osc~ 0;
#X connect 0 0 1 0;
#X connect 1 0 2 0;
#X connect 2 0 3 1;
#X connect 3 0 6 0;
#X connect 4 0 7 0;
#X connect 5 0 1 0;
#X connect 7 0 3 0;
#X restore 1748 70 pd osc2;
#N canvas 1449 503 450 300 osc2 0;
#X obj 166 117 r \$0-reset;
#X obj 159 139 pack f 10;
#X obj 159 162 line~;
#X obj 102 178 *~;
#X obj 102 81 inlet;
#X obj 159 81 inlet;
#X obj 102 200 outlet~;
#X obj 102 141 osc~ 0;
#X connect 0 0 1 0;
#X connect 1 0 2 0;
#X connect 2 0 3 1;
#X connect 3 0 6 0;
#X connect 4 0 7 0;
#X connect 5 0 1 0;
#X connect 7 0 3 0;
#X restore 1798 70 pd osc2;
#N canvas 1449 503 450 300 osc2 0;
#X obj 166 117 r \$0-reset;
#X obj 159 139 pack f 10;
#X obj 159 162 line~;
#X obj 102 178 *~;
#X obj 102 81 inlet;
#X obj 159 81 inlet;
#X obj 102 200 outlet~;
#X obj 102 141 osc~ 0;
#X connect 0 0 1 0;
#X connect 1 0 2 0;
#X connect 2 0 3 1;
#X connect 3 0 6 0;
#X connect 4 0 7 0;
#X connect 5 0 1 0;
#X connect 7 0 3 0;
#X restore 1848 70 pd osc2;
#N canvas 1449 503 450 300 osc2 0;
#X obj 166 117 r \$0-reset;
#X obj 159 139 pack f 10;
#X obj 159 162 line~;
#X obj 102 178 *~;
#X obj 102 81 inlet;
#X obj 159 81 inlet;
#X obj 102 200 outlet~;
#X obj 102 141 osc~ 0;
#X connect 0 0 1 0;
#X connect 1 0 2 0;
#X connect 2 0 3 1;
#X connect 3 0 6 0;
#X connect 4 0 7 0;
#X connect 5 0 1 0;
#X connect 7 0 3 0;
#X restore 1898 70 pd osc2;
#N canvas 1449 503 450 300 osc2 0;
#X obj 166 117 r \$0-reset;
#X obj 159 139 pack f 10;
#X obj 159 162 line~;
#X obj 102 178 *~;
#X obj 102 81 inlet;
#X obj 159 81 inlet;
#X obj 102 200 outlet~;
#X obj 102 141 osc~ 0;
#X connect 0 0 1 0;
#X connect 1 0 2 0;
#X connect 2 0 3 1;
#X connect 3 0 6 0;
#X connect 4 0 7 0;
#X connect 5 0 1 0;
#X connect 7 0 3 0;
#X restore 1948 70 pd osc2;
#N canvas 1449 503 450 300 osc2 0;
#X obj 166 117 r \$0-reset;
#X obj 159 139 pack f 10;
#X obj 159 162 line~;
#X obj 102 178 *~;
#X obj 102 81 inlet;
#X obj 159 81 inlet;
#X obj 102 200 outlet~;
#X obj 102 141 osc~ 0;
#X connect 0 0 1 0;
#X connect 1 0 2 0;
#X connect 2 0 3 1;
#X connect 3 0 6 0;
#X connect 4 0 7 0;
#X connect 5 0 1 0;
#X connect 7 0 3 0;
#X restore 1998 70 pd osc2;
#X obj 48 34 unpack f f f f f f f f f f f f f f f f f f f f f f f f
f f f f f f f f f f f f f f f f f f f f f f f f f f f f f f f f f f
f f f f f f f f f f f f f f f f f f f f f f f f f f f f f f f f f f
f f f f f f f f, f 415;
#N canvas 1449 503 450 300 osc2 0;
#X obj 166 117 r \$0-reset;
#X obj 159 139 pack f 10;
#X obj 159 162 line~;
#X obj 102 178 *~;
#X obj 102 81 inlet;
#X obj 159 81 inlet;
#X obj 102 200 outlet~;
#X obj 102 141 osc~ 0;
#X connect 0 0 1 0;
#X connect 1 0 2 0;
#X connect 2 0 3 1;
#X connect 3 0 6 0;
#X connect 4 0 7 0;
#X connect 5 0 1 0;
#X connect 7 0 3 0;
#X restore 2048 70 pd osc2;
#N canvas 1449 503 450 300 osc2 0;
#X obj 166 117 r \$0-reset;
#X obj 159 139 pack f 10;
#X obj 159 162 line~;
#X obj 102 178 *~;
#X obj 102 81 inlet;
#X obj 159 81 inlet;
#X obj 102 200 outlet~;
#X obj 102 141 osc~ 0;
#X connect 0 0 1 0;
#X connect 1 0 2 0;
#X connect 2 0 3 1;
#X connect 3 0 6 0;
#X connect 4 0 7 0;
#X connect 5 0 1 0;
#X connect 7 0 3 0;
#X restore 2098 70 pd osc2;
#N canvas 1449 503 450 300 osc2 0;
#X obj 166 117 r \$0-reset;
#X obj 159 139 pack f 10;
#X obj 159 162 line~;
#X obj 102 178 *~;
#X obj 102 81 inlet;
#X obj 159 81 inlet;
#X obj 102 200 outlet~;
#X obj 102 141 osc~ 0;
#X connect 0 0 1 0;
#X connect 1 0 2 0;
#X connect 2 0 3 1;
#X connect 3 0 6 0;
#X connect 4 0 7 0;
#X connect 5 0 1 0;
#X connect 7 0 3 0;
#X restore 2148 70 pd osc2;
#N canvas 1449 503 450 300 osc2 0;
#X obj 166 117 r \$0-reset;
#X obj 159 139 pack f 10;
#X obj 159 162 line~;
#X obj 102 178 *~;
#X obj 102 81 inlet;
#X obj 159 81 inlet;
#X obj 102 200 outlet~;
#X obj 102 141 osc~ 0;
#X connect 0 0 1 0;
#X connect 1 0 2 0;
#X connect 2 0 3 1;
#X connect 3 0 6 0;
#X connect 4 0 7 0;
#X connect 5 0 1 0;
#X connect 7 0 3 0;
#X restore 2198 70 pd osc2;
#N canvas 1449 503 450 300 osc2 0;
#X obj 166 117 r \$0-reset;
#X obj 159 139 pack f 10;
#X obj 159 162 line~;
#X obj 102 178 *~;
#X obj 102 81 inlet;
#X obj 159 81 inlet;
#X obj 102 200 outlet~;
#X obj 102 141 osc~ 0;
#X connect 0 0 1 0;
#X connect 1 0 2 0;
#X connect 2 0 3 1;
#X connect 3 0 6 0;
#X connect 4 0 7 0;
#X connect 5 0 1 0;
#X connect 7 0 3 0;
#X restore 2248 70 pd osc2;
#N canvas 1449 503 450 300 osc2 0;
#X obj 166 117 r \$0-reset;
#X obj 159 139 pack f 10;
#X obj 159 162 line~;
#X obj 102 178 *~;
#X obj 102 81 inlet;
#X obj 159 81 inlet;
#X obj 102 200 outlet~;
#X obj 102 141 osc~ 0;
#X connect 0 0 1 0;
#X connect 1 0 2 0;
#X connect 2 0 3 1;
#X connect 3 0 6 0;
#X connect 4 0 7 0;
#X connect 5 0 1 0;
#X connect 7 0 3 0;
#X restore 2298 70 pd osc2;
#N canvas 1449 503 450 300 osc2 0;
#X obj 166 117 r \$0-reset;
#X obj 159 139 pack f 10;
#X obj 159 162 line~;
#X obj 102 178 *~;
#X obj 102 81 inlet;
#X obj 159 81 inlet;
#X obj 102 200 outlet~;
#X obj 102 141 osc~ 0;
#X connect 0 0 1 0;
#X connect 1 0 2 0;
#X connect 2 0 3 1;
#X connect 3 0 6 0;
#X connect 4 0 7 0;
#X connect 5 0 1 0;
#X connect 7 0 3 0;
#X restore 2348 70 pd osc2;
#N canvas 1449 503 450 300 osc2 0;
#X obj 166 117 r \$0-reset;
#X obj 159 139 pack f 10;
#X obj 159 162 line~;
#X obj 102 178 *~;
#X obj 102 81 inlet;
#X obj 159 81 inlet;
#X obj 102 200 outlet~;
#X obj 102 141 osc~ 0;
#X connect 0 0 1 0;
#X connect 1 0 2 0;
#X connect 2 0 3 1;
#X connect 3 0 6 0;
#X connect 4 0 7 0;
#X connect 5 0 1 0;
#X connect 7 0 3 0;
#X restore 2398 70 pd osc2;
#N canvas 1449 503 450 300 osc2 0;
#X obj 166 117 r \$0-reset;
#X obj 159 139 pack f 10;
#X obj 159 162 line~;
#X obj 102 178 *~;
#X obj 102 81 inlet;
#X obj 159 81 inlet;
#X obj 102 200 outlet~;
#X obj 102 141 osc~ 0;
#X connect 0 0 1 0;
#X connect 1 0 2 0;
#X connect 2 0 3 1;
#X connect 3 0 6 0;
#X connect 4 0 7 0;
#X connect 5 0 1 0;
#X connect 7 0 3 0;
#X restore 2448 70 pd osc2;
#N canvas 1449 503 450 300 osc2 0;
#X obj 166 117 r \$0-reset;
#X obj 159 139 pack f 10;
#X obj 159 162 line~;
#X obj 102 178 *~;
#X obj 102 81 inlet;
#X obj 159 81 inlet;
#X obj 102 200 outlet~;
#X obj 102 141 osc~ 0;
#X connect 0 0 1 0;
#X connect 1 0 2 0;
#X connect 2 0 3 1;
#X connect 3 0 6 0;
#X connect 4 0 7 0;
#X connect 5 0 1 0;
#X connect 7 0 3 0;
#X restore 2498 70 pd osc2;
#X connect 0 0 2 0;
#X connect 2 0 45 0;
#X connect 2 1 14 0;
#X connect 4 0 1 0;
#X connect 5 0 1 0;
#X connect 6 0 1 0;
#X connect 7 0 1 0;
#X connect 8 0 1 0;
#X connect 9 0 1 0;
#X connect 10 0 1 0;
#X connect 11 0 1 0;
#X connect 12 0 1 0;
#X connect 13 0 1 0;
#X connect 14 0 3 0;
#X connect 15 0 1 0;
#X connect 16 0 1 0;
#X connect 17 0 1 0;
#X connect 18 0 1 0;
#X connect 19 0 1 0;
#X connect 20 0 1 0;
#X connect 21 0 1 0;
#X connect 22 0 1 0;
#X connect 23 0 1 0;
#X connect 24 0 1 0;
#X connect 25 0 1 0;
#X connect 26 0 1 0;
#X connect 27 0 1 0;
#X connect 28 0 1 0;
#X connect 29 0 1 0;
#X connect 30 0 1 0;
#X connect 31 0 1 0;
#X connect 32 0 1 0;
#X connect 33 0 1 0;
#X connect 34 0 1 0;
#X connect 35 0 1 0;
#X connect 36 0 1 0;
#X connect 37 0 1 0;
#X connect 38 0 1 0;
#X connect 39 0 1 0;
#X connect 40 0 1 0;
#X connect 41 0 1 0;
#X connect 42 0 1 0;
#X connect 43 0 1 0;
#X connect 44 0 1 0;
#X connect 45 0 4 0;
#X connect 45 1 4 1;
#X connect 45 2 5 0;
#X connect 45 3 5 1;
#X connect 45 4 6 0;
#X connect 45 5 6 1;
#X connect 45 6 7 0;
#X connect 45 7 7 1;
#X connect 45 8 8 0;
#X connect 45 9 8 1;
#X connect 45 10 9 0;
#X connect 45 11 9 1;
#X connect 45 12 10 0;
#X connect 45 13 10 1;
#X connect 45 14 11 0;
#X connect 45 15 11 1;
#X connect 45 16 12 0;
#X connect 45 17 12 1;
#X connect 45 18 13 0;
#X connect 45 19 13 1;
#X connect 45 20 15 0;
#X connect 45 21 15 1;
#X connect 45 22 16 0;
#X connect 45 23 16 1;
#X connect 45 24 17 0;
#X connect 45 25 17 1;
#X connect 45 26 18 0;
#X connect 45 27 18 1;
#X connect 45 28 19 0;
#X connect 45 29 19 1;
#X connect 45 30 20 0;
#X connect 45 31 20 1;
#X connect 45 32 21 0;
#X connect 45 33 21 1;
#X connect 45 34 22 0;
#X connect 45 35 22 1;
#X connect 45 36 23 0;
#X connect 45 37 23 1;
#X connect 45 38 24 0;
#X connect 45 39 24 1;
#X connect 45 40 25 0;
#X connect 45 41 25 1;
#X connect 45 42 26 0;
#X connect 45 43 26 1;
#X connect 45 44 27 0;
#X connect 45 45 27 1;
#X connect 45 46 28 0;
#X connect 45 47 28 1;
#X connect 45 48 29 0;
#X connect 45 49 29 1;
#X connect 45 50 30 0;
#X connect 45 51 30 1;
#X connect 45 52 31 0;
#X connect 45 53 31 1;
#X connect 45 54 32 0;
#X connect 45 55 32 1;
#X connect 45 56 33 0;
#X connect 45 57 33 1;
#X connect 45 58 34 0;
#X connect 45 59 34 1;
#X connect 45 60 35 0;
#X connect 45 61 35 1;
#X connect 45 62 36 0;
#X connect 45 63 36 1;
#X connect 45 64 37 0;
#X connect 45 65 37 1;
#X connect 45 66 38 0;
#X connect 45 67 38 1;
#X connect 45 68 39 0;
#X connect 45 69 39 1;
#X connect 45 70 40 0;
#X connect 45 71 40 1;
#X connect 45 72 41 0;
#X connect 45 73 41 1;
#X connect 45 74 42 0;
#X connect 45 75 42 1;
#X connect 45 76 43 0;
#X connect 45 77 43 1;
#X connect 45 78 44 0;
#X connect 45 79 44 1;
#X connect 45 80 46 0;
#X connect 45 81 46 1;
#X connect 45 82 47 0;
#X connect 45 83 47 1;
#X connect 45 84 48 0;
#X connect 45 85 48 1;
#X connect 45 86 49 0;
#X connect 45 87 49 1;
#X connect 45 88 50 0;
#X connect 45 89 50 1;
#X connect 45 90 51 0;
#X connect 45 91 51 1;
#X connect 45 92 52 0;
#X connect 45 93 52 1;
#X connect 45 94 53 0;
#X connect 45 95 53 1;
#X connect 45 96 54 0;
#X connect 45 97 54 1;
#X connect 45 98 55 0;
#X connect 45 99 55 1;
#X connect 46 0 1 0;
#X connect 47 0 1 0;
#X connect 48 0 1 0;
#X connect 49 0 1 0;
#X connect 50 0 1 0;
#X connect 51 0 1 0;
#X connect 52 0 1 0;
#X connect 53 0 1 0;
#X connect 54 0 1 0;
#X connect 55 0 1 0;
