#N canvas 1132 501 619 385 10;
#X obj 223 119 loadbang;
#X obj 101 66 inlet;
#X obj 101 164 outlet;
#X obj 286 117 delay 250;
#X obj 101 101 bng 13 250 50 0 empty empty empty 17 7 0 10 -262144 -1 -1;
#X msg 286 64 open 1.gif;
#X msg 286 147 open 0.gif;
#X obj 108 108 image 0.gif;
#X obj 286 91 t b;
#X msg 185 51 size 0 0;
#X obj 185 24 loadbang;
#X connect 0 0 6 0;
#X connect 1 0 4 0;
#X connect 3 0 6 0;
#X connect 4 0 5 0;
#X connect 4 0 2 0;
#X connect 5 0 7 0;
#X connect 5 0 8 0;
#X connect 6 0 7 0;
#X connect 8 0 3 0;
#X connect 9 0 7 0;
#X connect 10 0 9 0;
#X coords 0 -1 1 1 15 15 2 100 100;
