#N canvas 666 433 619 385 10;
#X obj 101 101 tgl 13 0 empty empty empty 17 7 0 10 -262144 -1 -1 0 1;
#X msg 159 160 open \$1.gif;
#X obj 151 16 loadbang;
#X obj 101 54 inlet;
#X obj 108 108 image 0.gif;
#X obj 101 207 outlet;
#X msg 190 55 size 0 0;
#X msg 151 54 0;
#X connect 0 0 1 0;
#X connect 0 0 5 0;
#X connect 1 0 4 0;
#X connect 2 0 7 0;
#X connect 2 0 6 0;
#X connect 3 0 0 0;
#X connect 6 0 4 0;
#X connect 7 0 0 0;
#X coords 0 -1 1 1 15 15 2 100 100;
