#N canvas 551 503 449 382 10;
#X obj 101 289 outlet;
#X obj 101 103 vsl 15 128 0 1 0 0 empty empty empty 0 -9 0 10 -200231
-1 -1 0 1;
#X obj 189 18 inlet;
#X obj 189 51 route max min;
#X obj 101 257 expr ($f1 * ($f2 - $f3)) + $f3;
#X obj 278 118 loadbang;
#X msg 278 164 0;
#X msg 217 164 1;
#X connect 1 0 4 0;
#X connect 2 0 3 0;
#X connect 3 0 4 1;
#X connect 3 1 4 2;
#X connect 3 2 1 0;
#X connect 4 0 0 0;
#X connect 5 0 6 0;
#X connect 5 0 7 0;
#X connect 6 0 4 2;
#X connect 7 0 4 1;
#X coords 0 -1 1 1 17 135 2 100 100;
