#N canvas 797 132 871 798 10;
#X obj 53 65 inlet;
#X obj 605 65 inlet;
#X obj 605 156 * 12;
#X obj 605 125 + 1;
#X obj 53 115 - 60;
#X obj 74 87 r keyboard-abs-transposition-\$0;
#X obj 605 183 s keyboard-abs-transposition-\$0;
#X obj 63 690 outlet;
#X obj 63 660 + 60;
#X obj 63 591 r keyboard-abs-pitch-class-\$0;
#X obj 84 624 r keyboard-abs-transposition-\$0;
#X obj 296 65 inlet;
#X obj 579 733 outlet;
#X obj 579 567 r keyboard-abs-pitch-class-\$0;
#X obj 647 401 > 0;
#X obj 478 406 tgl 15 0 empty empty empty 17 7 0 10 -262144 -1 -1 0
1;
#X obj 647 365 r keyboard-abs-velocity-\$0;
#X obj 647 463 s keyboard-abs-tgl1-\$0;
#X obj 53 151 s keyboard-abs-pitch-class-\$0;
#X obj 52 530 s keyboard-abs-pitch-class-\$0;
#N canvas 973 423 344 434 white-keys 0;
#X obj 96 26 r keyboard-abs-pitch-class-\$0;
#X obj 96 365 outlet;
#X obj 96 53 sel 0 2 4 5 7 9 11;
#X obj 111 325 outlet;
#X obj 126 285 outlet;
#X obj 141 245 outlet;
#X obj 156 205 outlet;
#X obj 171 165 outlet;
#X obj 186 125 outlet;
#N canvas 1234 649 542 300 white-keys-sub 0;
#X obj 106 46 inlet;
#X obj 106 199 outlet;
#X obj 276 67 tgl 15 0 empty empty empty 17 7 0 10 -262144 -1 -1 0
1;
#X obj 106 119 spigot;
#X obj 139 96 == 1;
#X obj 371 117 loadbang;
#X obj 276 38 r keyboard-abs-tgl1-\$0;
#X obj 106 145 openPath images/EB1.gif;
#X obj 276 145 openPath images/EB0.gif;
#X obj 276 96 sel 0;
#X connect 0 0 3 0;
#X connect 2 0 4 0;
#X connect 2 0 9 0;
#X connect 3 0 7 0;
#X connect 4 0 3 1;
#X connect 5 0 8 0;
#X connect 6 0 2 0;
#X connect 7 0 1 0;
#X connect 8 0 1 0;
#X connect 9 0 8 0;
#X restore 186 105 pd white-keys-sub;
#N canvas 1234 649 542 300 white-keys-sub 0;
#X obj 106 46 inlet;
#X obj 106 199 outlet;
#X obj 276 67 tgl 15 0 empty empty empty 17 7 0 10 -262144 -1 -1 0
1;
#X obj 106 119 spigot;
#X obj 139 96 == 1;
#X obj 371 117 loadbang;
#X obj 276 38 r keyboard-abs-tgl1-\$0;
#X obj 276 96 sel 0;
#X obj 106 145 openPath images/DGA1.gif;
#X obj 276 145 openPath images/DGA0.gif;
#X connect 0 0 3 0;
#X connect 2 0 4 0;
#X connect 2 0 7 0;
#X connect 3 0 8 0;
#X connect 4 0 3 1;
#X connect 5 0 9 0;
#X connect 6 0 2 0;
#X connect 7 0 9 0;
#X connect 8 0 1 0;
#X connect 9 0 1 0;
#X restore 171 145 pd white-keys-sub;
#N canvas 1234 649 542 300 white-keys-sub 0;
#X obj 106 46 inlet;
#X obj 106 199 outlet;
#X obj 276 67 tgl 15 0 empty empty empty 17 7 0 10 -262144 -1 -1 0
1;
#X obj 106 119 spigot;
#X obj 139 96 == 1;
#X obj 371 117 loadbang;
#X obj 276 38 r keyboard-abs-tgl1-\$0;
#X obj 276 96 sel 0;
#X obj 106 145 openPath images/DGA1.gif;
#X obj 276 145 openPath images/DGA0.gif;
#X connect 0 0 3 0;
#X connect 2 0 4 0;
#X connect 2 0 7 0;
#X connect 3 0 8 0;
#X connect 4 0 3 1;
#X connect 5 0 9 0;
#X connect 6 0 2 0;
#X connect 7 0 9 0;
#X connect 8 0 1 0;
#X connect 9 0 1 0;
#X restore 156 185 pd white-keys-sub;
#N canvas 1234 649 542 300 white-keys-sub 0;
#X obj 106 46 inlet;
#X obj 106 199 outlet;
#X obj 276 67 tgl 15 0 empty empty empty 17 7 0 10 -262144 -1 -1 0
1;
#X obj 106 119 spigot;
#X obj 139 96 == 1;
#X obj 371 117 loadbang;
#X obj 276 38 r keyboard-abs-tgl1-\$0;
#X obj 276 96 sel 0;
#X obj 106 145 openPath images/CF1.gif;
#X obj 276 145 openPath images/CF0.gif;
#X connect 0 0 3 0;
#X connect 2 0 4 0;
#X connect 2 0 7 0;
#X connect 3 0 8 0;
#X connect 4 0 3 1;
#X connect 5 0 9 0;
#X connect 6 0 2 0;
#X connect 7 0 9 0;
#X connect 8 0 1 0;
#X connect 9 0 1 0;
#X restore 141 225 pd white-keys-sub;
#N canvas 1234 649 542 300 white-keys-sub 0;
#X obj 106 46 inlet;
#X obj 106 199 outlet;
#X obj 276 67 tgl 15 0 empty empty empty 17 7 0 10 -262144 -1 -1 0
1;
#X obj 106 119 spigot;
#X obj 139 96 == 1;
#X obj 371 117 loadbang;
#X obj 276 38 r keyboard-abs-tgl1-\$0;
#X obj 106 145 openPath images/EB1.gif;
#X obj 276 145 openPath images/EB0.gif;
#X obj 276 96 sel 0;
#X connect 0 0 3 0;
#X connect 2 0 4 0;
#X connect 2 0 9 0;
#X connect 3 0 7 0;
#X connect 4 0 3 1;
#X connect 5 0 8 0;
#X connect 6 0 2 0;
#X connect 7 0 1 0;
#X connect 8 0 1 0;
#X connect 9 0 8 0;
#X restore 126 265 pd white-keys-sub;
#N canvas 1234 649 542 300 white-keys-sub 0;
#X obj 106 46 inlet;
#X obj 106 199 outlet;
#X obj 276 67 tgl 15 0 empty empty empty 17 7 0 10 -262144 -1 -1 0
1;
#X obj 106 119 spigot;
#X obj 139 96 == 1;
#X obj 371 117 loadbang;
#X obj 276 38 r keyboard-abs-tgl1-\$0;
#X obj 276 96 sel 0;
#X obj 106 145 openPath images/DGA1.gif;
#X obj 276 145 openPath images/DGA0.gif;
#X connect 0 0 3 0;
#X connect 2 0 4 0;
#X connect 2 0 7 0;
#X connect 3 0 8 0;
#X connect 4 0 3 1;
#X connect 5 0 9 0;
#X connect 6 0 2 0;
#X connect 7 0 9 0;
#X connect 8 0 1 0;
#X connect 9 0 1 0;
#X restore 111 305 pd white-keys-sub;
#N canvas 1234 649 542 300 white-keys-sub 0;
#X obj 106 46 inlet;
#X obj 106 199 outlet;
#X obj 276 67 tgl 15 0 empty empty empty 17 7 0 10 -262144 -1 -1 0
1;
#X obj 106 119 spigot;
#X obj 139 96 == 1;
#X obj 371 117 loadbang;
#X obj 276 38 r keyboard-abs-tgl1-\$0;
#X obj 276 96 sel 0;
#X obj 106 145 openPath images/CF1.gif;
#X obj 276 145 openPath images/CF0.gif;
#X connect 0 0 3 0;
#X connect 2 0 4 0;
#X connect 2 0 7 0;
#X connect 3 0 8 0;
#X connect 4 0 3 1;
#X connect 5 0 9 0;
#X connect 6 0 2 0;
#X connect 7 0 9 0;
#X connect 8 0 1 0;
#X connect 9 0 1 0;
#X restore 96 345 pd white-keys-sub;
#X connect 0 0 2 0;
#X connect 2 0 15 0;
#X connect 2 1 14 0;
#X connect 2 2 13 0;
#X connect 2 3 12 0;
#X connect 2 4 11 0;
#X connect 2 5 10 0;
#X connect 2 6 9 0;
#X connect 9 0 8 0;
#X connect 10 0 7 0;
#X connect 11 0 6 0;
#X connect 12 0 5 0;
#X connect 13 0 4 0;
#X connect 14 0 3 0;
#X connect 15 0 1 0;
#X restore 52 198 pd white-keys;
#N canvas 435 439 344 434 black-keys 0;
#X obj 96 26 r keyboard-abs-pitch-class-\$0;
#X obj 96 275 outlet;
#X obj 112 235 outlet;
#X obj 128 195 outlet;
#X obj 144 155 outlet;
#X obj 160 115 outlet;
#X obj 96 53 sel 1 3 6 8 10;
#N canvas 204 638 514 300 black-keys-sub 0;
#X obj 86 56 inlet;
#X obj 86 209 outlet;
#X obj 273 48 r keyboard-abs-tgl1-\$0;
#X obj 273 77 tgl 15 0 empty empty empty 17 7 0 10 -262144 -1 -1 0
1;
#X obj 86 129 spigot;
#X obj 119 106 == 1;
#X obj 371 127 loadbang;
#X obj 273 167 openPath images/sharps0.gif;
#X obj 86 167 openPath images/sharps1.gif;
#X obj 273 106 sel 0;
#X connect 0 0 4 0;
#X connect 2 0 3 0;
#X connect 3 0 5 0;
#X connect 3 0 9 0;
#X connect 4 0 8 0;
#X connect 5 0 4 1;
#X connect 6 0 7 0;
#X connect 7 0 1 0;
#X connect 8 0 1 0;
#X connect 9 0 7 0;
#X restore 160 95 pd black-keys-sub;
#N canvas 204 638 514 300 black-keys-sub 0;
#X obj 86 56 inlet;
#X obj 86 209 outlet;
#X obj 273 48 r keyboard-abs-tgl1-\$0;
#X obj 273 77 tgl 15 0 empty empty empty 17 7 0 10 -262144 -1 -1 0
1;
#X obj 86 129 spigot;
#X obj 119 106 == 1;
#X obj 371 127 loadbang;
#X obj 273 167 openPath images/sharps0.gif;
#X obj 86 167 openPath images/sharps1.gif;
#X obj 273 106 sel 0;
#X connect 0 0 4 0;
#X connect 2 0 3 0;
#X connect 3 0 5 0;
#X connect 3 0 9 0;
#X connect 4 0 8 0;
#X connect 5 0 4 1;
#X connect 6 0 7 0;
#X connect 7 0 1 0;
#X connect 8 0 1 0;
#X connect 9 0 7 0;
#X restore 144 135 pd black-keys-sub;
#N canvas 204 638 514 300 black-keys-sub 0;
#X obj 86 56 inlet;
#X obj 86 209 outlet;
#X obj 273 48 r keyboard-abs-tgl1-\$0;
#X obj 273 77 tgl 15 0 empty empty empty 17 7 0 10 -262144 -1 -1 0
1;
#X obj 86 129 spigot;
#X obj 119 106 == 1;
#X obj 371 127 loadbang;
#X obj 273 167 openPath images/sharps0.gif;
#X obj 86 167 openPath images/sharps1.gif;
#X obj 273 106 sel 0;
#X connect 0 0 4 0;
#X connect 2 0 3 0;
#X connect 3 0 5 0;
#X connect 3 0 9 0;
#X connect 4 0 8 0;
#X connect 5 0 4 1;
#X connect 6 0 7 0;
#X connect 7 0 1 0;
#X connect 8 0 1 0;
#X connect 9 0 7 0;
#X restore 128 175 pd black-keys-sub;
#N canvas 204 638 514 300 black-keys-sub 0;
#X obj 86 56 inlet;
#X obj 86 209 outlet;
#X obj 273 48 r keyboard-abs-tgl1-\$0;
#X obj 273 77 tgl 15 0 empty empty empty 17 7 0 10 -262144 -1 -1 0
1;
#X obj 86 129 spigot;
#X obj 119 106 == 1;
#X obj 371 127 loadbang;
#X obj 273 167 openPath images/sharps0.gif;
#X obj 86 167 openPath images/sharps1.gif;
#X obj 273 106 sel 0;
#X connect 0 0 4 0;
#X connect 2 0 3 0;
#X connect 3 0 5 0;
#X connect 3 0 9 0;
#X connect 4 0 8 0;
#X connect 5 0 4 1;
#X connect 6 0 7 0;
#X connect 7 0 1 0;
#X connect 8 0 1 0;
#X connect 9 0 7 0;
#X restore 112 215 pd black-keys-sub;
#N canvas 204 638 514 300 black-keys-sub 0;
#X obj 86 56 inlet;
#X obj 86 209 outlet;
#X obj 273 48 r keyboard-abs-tgl1-\$0;
#X obj 273 77 tgl 15 0 empty empty empty 17 7 0 10 -262144 -1 -1 0
1;
#X obj 86 129 spigot;
#X obj 119 106 == 1;
#X obj 371 127 loadbang;
#X obj 273 167 openPath images/sharps0.gif;
#X obj 86 167 openPath images/sharps1.gif;
#X obj 273 106 sel 0;
#X connect 0 0 4 0;
#X connect 2 0 3 0;
#X connect 3 0 5 0;
#X connect 3 0 9 0;
#X connect 4 0 8 0;
#X connect 5 0 4 1;
#X connect 6 0 7 0;
#X connect 7 0 1 0;
#X connect 8 0 1 0;
#X connect 9 0 7 0;
#X restore 96 255 pd black-keys-sub;
#X connect 0 0 6 0;
#X connect 6 0 11 0;
#X connect 6 1 10 0;
#X connect 6 2 9 0;
#X connect 6 3 8 0;
#X connect 6 4 7 0;
#X connect 7 0 5 0;
#X connect 8 0 4 0;
#X connect 9 0 3 0;
#X connect 10 0 2 0;
#X connect 11 0 1 0;
#X restore 154 198 pd black-keys;
#X obj 59 273 image /home/gilberto/.pd/extra-objects/keyboards-pd-l2ork/abstractions/images/CF0.gif
0;
#X obj 70 273 image /home/gilberto/.pd/extra-objects/keyboards-pd-l2ork/abstractions/images/DGA0.gif
0;
#X obj 82 273 image /home/gilberto/.pd/extra-objects/keyboards-pd-l2ork/abstractions/images/EB0.gif
0;
#X obj 95 273 image /home/gilberto/.pd/extra-objects/keyboards-pd-l2ork/abstractions/images/CF0.gif
0;
#X obj 106 273 image /home/gilberto/.pd/extra-objects/keyboards-pd-l2ork/abstractions/images/DGA0.gif
0;
#X obj 130 273 image /home/gilberto/.pd/extra-objects/keyboards-pd-l2ork/abstractions/images/EB0.gif
0;
#X obj 118 273 image /home/gilberto/.pd/extra-objects/keyboards-pd-l2ork/abstractions/images/DGA0.gif
0;
#X obj 64 262 image /home/gilberto/.pd/extra-objects/keyboards-pd-l2ork/abstractions/images/sharps0.gif
0;
#X obj 76 262 image /home/gilberto/.pd/extra-objects/keyboards-pd-l2ork/abstractions/images/sharps0.gif
0;
#X obj 100 262 image /home/gilberto/.pd/extra-objects/keyboards-pd-l2ork/abstractions/images/sharps0.gif
0;
#X obj 124 262 image /home/gilberto/.pd/extra-objects/keyboards-pd-l2ork/abstractions/images/sharps0.gif
0;
#X obj 112 262 image /home/gilberto/.pd/extra-objects/keyboards-pd-l2ork/abstractions/images/sharps0.gif
0;
#X obj 647 442 tgl 15 0 empty empty empty 17 7 0 10 -262144 -1 -1 0
1;
#X obj 478 500 *;
#X msg 508 468 127;
#X obj 508 442 loadbang;
#X obj 493 65 inlet;
#N canvas 770 200 954 300 toggles 0;
#X obj 31 88 inlet;
#X obj 31 131 outlet;
#X obj 101 88 inlet;
#X obj 101 131 outlet;
#X obj 171 88 inlet;
#X obj 171 131 outlet;
#X obj 241 88 inlet;
#X obj 241 131 outlet;
#X obj 311 88 inlet;
#X obj 311 131 outlet;
#X obj 381 88 inlet;
#X obj 381 131 outlet;
#X obj 451 88 inlet;
#X obj 451 131 outlet;
#X obj 521 88 inlet;
#X obj 521 131 outlet;
#X obj 591 88 inlet;
#X obj 591 131 outlet;
#X obj 661 88 inlet;
#X obj 661 131 outlet;
#X obj 731 88 inlet;
#X obj 731 131 outlet;
#X obj 801 88 inlet;
#X obj 801 131 outlet;
#X obj 31 109 tglclick;
#X obj 101 109 tglclick;
#X obj 171 109 tglclick;
#X obj 241 109 tglclick;
#X obj 311 109 tglclick;
#X obj 381 109 tglclick;
#X obj 451 109 tglclick;
#X obj 521 109 tglclick;
#X obj 591 109 tglclick;
#X obj 661 109 tglclick;
#X obj 731 109 tglclick;
#X obj 801 109 tglclick;
#X connect 0 0 24 0;
#X connect 2 0 25 0;
#X connect 4 0 26 0;
#X connect 6 0 27 0;
#X connect 8 0 28 0;
#X connect 10 0 29 0;
#X connect 12 0 30 0;
#X connect 14 0 31 0;
#X connect 16 0 32 0;
#X connect 18 0 33 0;
#X connect 20 0 34 0;
#X connect 22 0 35 0;
#X connect 24 0 1 0;
#X connect 25 0 3 0;
#X connect 26 0 5 0;
#X connect 27 0 7 0;
#X connect 28 0 9 0;
#X connect 29 0 11 0;
#X connect 30 0 13 0;
#X connect 31 0 15 0;
#X connect 32 0 17 0;
#X connect 33 0 19 0;
#X connect 34 0 21 0;
#X connect 35 0 23 0;
#X restore 323 365 pd toggles;
#X msg 382 486 11;
#X msg 352 486 10;
#X msg 52 486 0;
#X msg 112 486 2;
#X msg 172 486 4;
#X msg 202 486 5;
#X msg 322 486 9;
#X msg 262 486 7;
#X msg 82 486 1;
#X msg 142 486 3;
#X msg 232 486 6;
#X msg 292 486 8;
#X obj 597 632 t f f, f 8;
#X obj 597 653 sel 0;
#X obj 579 710 i, f 11;
#X obj 676 673 ii 127;
#X obj 619 92 ii 4;
#X obj 579 588 t b;
#X obj 597 674 t b b;
#X obj 296 148 s keyboard-abs-velocity-\$0;
#X obj 478 529 s keyboard-abs-velocity-click-\$0;
#X obj 663 652 r keyboard-abs-velocity-\$0;
#X obj 597 611 r keyboard-abs-velocity-click-\$0;
#X connect 0 0 4 0;
#X connect 1 0 3 0;
#X connect 2 0 6 0;
#X connect 3 0 2 0;
#X connect 4 0 18 0;
#X connect 5 0 4 1;
#X connect 8 0 7 0;
#X connect 9 0 8 0;
#X connect 10 0 8 1;
#X connect 11 0 59 0;
#X connect 13 0 57 0;
#X connect 14 0 34 0;
#X connect 15 0 34 0;
#X connect 15 0 35 0;
#X connect 16 0 14 0;
#X connect 20 0 22 0;
#X connect 20 1 23 0;
#X connect 20 2 24 0;
#X connect 20 3 25 0;
#X connect 20 4 26 0;
#X connect 20 5 28 0;
#X connect 20 6 27 0;
#X connect 21 0 29 0;
#X connect 21 1 30 0;
#X connect 21 2 31 0;
#X connect 21 3 33 0;
#X connect 21 4 32 0;
#X connect 22 0 39 0;
#X connect 22 0 42 0;
#X connect 23 0 39 2;
#X connect 23 0 43 0;
#X connect 24 0 39 4;
#X connect 24 0 44 0;
#X connect 25 0 39 5;
#X connect 25 0 45 0;
#X connect 26 0 39 7;
#X connect 26 0 47 0;
#X connect 27 0 39 11;
#X connect 27 0 40 0;
#X connect 28 0 39 9;
#X connect 28 0 46 0;
#X connect 29 0 39 1;
#X connect 29 0 48 0;
#X connect 30 0 39 3;
#X connect 30 0 49 0;
#X connect 31 0 39 6;
#X connect 31 0 50 0;
#X connect 32 0 39 10;
#X connect 32 0 41 0;
#X connect 33 0 39 8;
#X connect 33 0 51 0;
#X connect 34 0 17 0;
#X connect 35 0 60 0;
#X connect 36 0 35 1;
#X connect 37 0 36 0;
#X connect 38 0 35 1;
#X connect 39 0 15 0;
#X connect 39 1 15 0;
#X connect 39 2 15 0;
#X connect 39 3 15 0;
#X connect 39 4 15 0;
#X connect 39 5 15 0;
#X connect 39 6 15 0;
#X connect 39 7 15 0;
#X connect 39 8 15 0;
#X connect 39 9 15 0;
#X connect 39 10 15 0;
#X connect 39 11 15 0;
#X connect 40 0 19 0;
#X connect 41 0 19 0;
#X connect 42 0 19 0;
#X connect 43 0 19 0;
#X connect 44 0 19 0;
#X connect 45 0 19 0;
#X connect 46 0 19 0;
#X connect 47 0 19 0;
#X connect 48 0 19 0;
#X connect 49 0 19 0;
#X connect 50 0 19 0;
#X connect 51 0 19 0;
#X connect 52 0 53 0;
#X connect 52 1 54 1;
#X connect 53 0 58 0;
#X connect 54 0 12 0;
#X connect 55 0 54 1;
#X connect 56 0 3 0;
#X connect 57 0 54 0;
#X connect 58 0 8 0;
#X connect 58 1 54 0;
#X connect 61 0 54 1;
#X connect 62 0 52 0;
#X coords 0 -1 1 1 84 52 2 52 247;
