#N canvas 517 268 450 300 10;
#X obj 148 80 bng 15 250 50 0 empty empty empty 17 7 0 10 -262144 -1
-1;
#X obj 148 182 outlet;
#X obj 148 55 inlet;
#X obj 148 104 symbol \$1;
#X obj 148 131 moonlib/absolutepath;
#X msg 148 157 click 1 \, open \$1;
#X connect 0 0 3 0;
#X connect 2 0 0 0;
#X connect 3 0 4 0;
#X connect 4 0 5 0;
#X connect 5 0 1 0;
