#N canvas 681 406 450 330 10;
#X obj 223 43 MouseState;
#X obj 223 65 tgl 15 0 empty empty empty 17 7 0 10 -262144 -1 -1 0
1;
#X obj 153 205 bng 15 250 50 0 empty empty empty 17 7 0 10 -262144
-1 -1;
#X obj 223 205 bng 15 250 50 0 empty empty empty 17 7 0 10 -262144
-1 -1;
#X msg 153 228 1;
#X msg 223 228 0;
#X obj 153 102 inlet;
#X obj 223 87 change;
#X obj 223 108 sel 0;
#X obj 223 179 spigot;
#X obj 292 142 ii 0;
#X msg 257 142 1;
#X obj 153 264 outlet;
#X connect 0 0 1 0;
#X connect 1 0 7 0;
#X connect 2 0 4 0;
#X connect 3 0 5 0;
#X connect 4 0 12 0;
#X connect 5 0 9 1;
#X connect 5 0 12 0;
#X connect 6 0 2 0;
#X connect 6 0 11 0;
#X connect 7 0 8 0;
#X connect 8 0 9 0;
#X connect 9 0 3 0;
#X connect 10 0 9 1;
#X connect 11 0 9 1;
#X coords 0 0 1 1 8 8 0;
