#N canvas 456 323 605 300 10;
#X obj 301 215 outlet;
#X obj 301 101 hradio 15 1 0 32 empty empty empty 0 -8 0 10 -179712 -1 -1 0;
#X obj 196 23 inlet;
#X obj 301 188 + 0;
#X obj 301 147 * 1;
#X obj 196 56 route min stepsize;
#X obj 167 84 t b;
#X connect 1 0 4 0;
#X connect 2 0 5 0;
#X connect 3 0 0 0;
#X connect 4 0 3 0;
#X connect 5 0 3 1;
#X connect 5 0 6 0;
#X connect 5 1 4 1;
#X connect 5 2 1 0;
#X connect 6 0 1 0;
#X coords 0 -1 1 1 482 17 2 300 100;
