#N canvas 387 309 929 550 10;
#X obj 144 365 outlet~;
#X obj 194 181 * 32;
#X obj 194 243 /;
#X obj 144 275 *~ 1;
#X obj 194 139 loadbang;
#X obj 194 160 \$1;
#X obj 530 130 samplerate~;
#X obj 530 183 osc~;
#X obj 530 203 *~ -0.5;
#X obj 530 227 +~ 0.5;
#X obj 418 51 loadbang;
#X obj 530 161 /;
#X msg 563 163 0;
#N canvas 710 340 450 300 (subpatch) 0;
#X array \$0-hanning 1 float 1 black black;
#A 0 0;
#X coords 0 1 1 -1 200 140 1;
#X restore 454 350 graph;
#X obj 529 278 tabwrite~ \$0-hanning;
#X obj 709 129 \$1;
#X msg 709 226 \; \$1-hanning resize \$2;
#X obj 709 181 \$0;
#X obj 709 202 pack f f;
#X obj 418 76 t b b b b b;
#X obj 709 160 t b f;
#X obj 418 257 \$1;
#X obj 418 278 s \$0-window-size;
#N canvas 710 340 509 463 fft-stuff 0;
#X obj 144 239 *~;
#X obj 144 260 rfft~;
#X obj 159 215 inlet~;
#X obj 334 239 *~;
#X obj 334 260 rfft~;
#X obj 349 215 inlet~;
#X obj 104 429 *~;
#X obj 144 351 *~;
#X obj 171 351 *~;
#X obj 294 351 *~;
#X obj 321 351 *~;
#X obj 144 372 -~;
#X obj 294 372 +~;
#X obj 144 393 rifft~;
#X obj 104 168 tabreceive~ \$0-hanning;
#X obj 104 450 outlet~;
#X msg 383 476 set \$1 4;
#X obj 383 497 block~ 1024 4;
#X obj 383 455 r \$0-window-size;
#X connect 0 0 1 0;
#X connect 1 0 7 0;
#X connect 1 0 9 0;
#X connect 1 1 8 0;
#X connect 1 1 10 0;
#X connect 2 0 0 1;
#X connect 3 0 4 0;
#X connect 4 0 10 1;
#X connect 4 0 7 1;
#X connect 4 1 9 1;
#X connect 4 1 8 1;
#X connect 5 0 3 1;
#X connect 6 0 15 0;
#X connect 7 0 11 0;
#X connect 8 0 11 1;
#X connect 9 0 12 0;
#X connect 10 0 12 1;
#X connect 11 0 13 0;
#X connect 12 0 13 1;
#X connect 13 0 6 1;
#X connect 14 0 0 0;
#X connect 14 0 3 0;
#X connect 14 0 6 0;
#X connect 16 0 17 0;
#X connect 18 0 16 0;
#X restore 145 112 pd fft-stuff;
#X obj 145 89 inlet~;
#X obj 214 89 inlet~;
#X text 293 281 gain;
#X obj 144 336 *~ 1;
#X obj 287 304 inlet;
#X obj 194 202 t b f;
#X msg 194 223 1;
#X connect 1 0 29 0;
#X connect 2 0 3 1;
#X connect 3 0 27 0;
#X connect 4 0 5 0;
#X connect 5 0 1 0;
#X connect 6 0 11 0;
#X connect 7 0 8 0;
#X connect 8 0 9 0;
#X connect 9 0 14 0;
#X connect 10 0 19 0;
#X connect 11 0 7 0;
#X connect 12 0 7 1;
#X connect 15 0 11 1;
#X connect 15 0 20 0;
#X connect 17 0 18 0;
#X connect 18 0 16 0;
#X connect 19 0 21 0;
#X connect 19 1 14 0;
#X connect 19 2 12 0;
#X connect 19 3 6 0;
#X connect 19 4 15 0;
#X connect 20 0 17 0;
#X connect 20 1 18 1;
#X connect 21 0 22 0;
#X connect 23 0 3 0;
#X connect 24 0 23 0;
#X connect 25 0 23 1;
#X connect 27 0 0 0;
#X connect 28 0 27 1;
#X connect 29 0 30 0;
#X connect 29 1 2 1;
#X connect 30 0 2 0;
