#N canvas 842 341 480 555 10;
#X obj 683 -402 bng 15 250 50 0 empty empty empty 17 7 0 10 -262144
-1 -1;
#X obj 683 -382 openpanel;
#X msg 683 -361 open \$1 \, 1;
#X obj 683 -340 readsf~;
#X obj 789 -339 multiplex~;
#X obj 866 -360 noise~;
#X obj 769 -361 tgl 15 0 empty empty empty 17 7 0 10 -262144 -1 -1
0 1;
#X obj 683 -168 output~;
#X obj 788 -219 tgl 15 0 empty empty empty 17 7 0 10 -262144 -1 -1
1 1;
#X obj 788 -241 ii 1;
#X obj 896 -307 hsl 48 15 0 1 0 1 empty empty empty -2 -8 0 10 -262144
-1 -1 3900 1;
#X obj 683 -264 convol~ 8192, f 36;
#X obj 789 -360 phasor~ 170;
#X text 953 -308 gain;
#X text 736 52 by Gilberto Agostinho \, based on https://vimeo.com/42305687
;
#N canvas 0 0 450 300 (subpatch) 0;
#X array array 1000 float 0 black black;
#X coords 0 1 999 -1 160 100 1;
#X restore 699 -96 graph;
#X obj 788 -158 tabwrite~ array;
#X obj 788 -199 metro 40;
#X connect 0 0 1 0;
#X connect 1 0 2 0;
#X connect 2 0 3 0;
#X connect 3 0 11 0;
#X connect 4 0 11 1;
#X connect 5 0 4 1;
#X connect 6 0 4 0;
#X connect 8 0 17 0;
#X connect 9 0 8 0;
#X connect 10 0 11 2;
#X connect 11 0 7 0;
#X connect 11 0 7 1;
#X connect 11 0 16 0;
#X connect 12 0 4 0;
#X connect 17 0 16 0;
