#N canvas 358 301 805 550 10;
#X obj 21 142 B;
#X obj 233 262 BL;
#X obj 54 68 BXL;
#X obj 135 462 N;
#X obj 112 266 N~;
#X obj 135 430 T;
#X obj 311 64 TL;
#X obj 157 69 TXL;
#X obj 92 207 zadc~;
#X obj 20 465 zdac~;
#X obj 311 353 zled;
#X obj 311 262 zspigot;
#X obj 21 366 zspigot~;
#X obj 311 409 zswitch2;
#X obj 311 457 zswitch2color;
#X obj 382 409 zswitch3;
#X obj 382 457 zswitch3color;
#X obj 458 303 zvslider;
#X obj 106 386 zhslider;
#X obj 20 428 *~ 0.2;
#X obj 106 300 loadbang;
#X obj 21 209 osc~;
#X obj 20 268 +~;
#X msg 54 170 440;
#X obj 92 188 N;
#X obj 157 185 N;
#X obj 311 329 counter 1;
#X obj 311 145 metro 2000;
#X obj 382 329 counter 2;
#X obj 458 270 line;
#X msg 458 197 0 \, 1 2000;
#X msg 106 331 max 0.85 \, min 0.1;
#X obj 106 367 N;
#X obj 233 364 N;
#X msg 233 331 0.66;
#X msg 21 170 237;
#X obj 73 428 *~ 0.3;
#X obj 752 420 zdac~;
#X obj 752 472 zadc~;
#X obj 294 109 N;
#X obj 12 20 cnv 20 770 20 empty empty PD-alternative-themes 8 12 0
14 -262144 -1 0;
#X text 653 44 by Gilberto Agostinho;
#X obj 294 259 N;
#X obj 543 297 zsolarized;
#X obj 543 261 zhradio16;
#X obj 543 193 loadbang;
#X msg 543 226 min 1;
#X obj 350 196 loadbang;
#X msg 350 223 1;
#X msg 636 119 min 1 \, stepsize 3;
#X obj 636 149 zvradio4;
#X floatatom 636 221 5 0 0 0 - - -;
#X obj 636 90 loadbang;
#X text 628 58 gilbertohasnofb@gmail.com;
#X connect 0 0 35 0;
#X connect 1 0 34 0;
#X connect 2 0 23 0;
#X connect 3 0 9 2;
#X connect 4 0 22 1;
#X connect 5 0 3 0;
#X connect 6 0 27 0;
#X connect 6 0 39 0;
#X connect 7 0 25 0;
#X connect 8 0 4 0;
#X connect 8 1 4 0;
#X connect 10 0 13 0;
#X connect 11 0 26 0;
#X connect 11 0 28 0;
#X connect 12 0 19 0;
#X connect 12 1 36 0;
#X connect 13 0 14 0;
#X connect 15 0 16 0;
#X connect 18 0 36 1;
#X connect 19 0 9 0;
#X connect 20 0 31 0;
#X connect 21 0 22 0;
#X connect 22 0 12 0;
#X connect 23 0 21 0;
#X connect 24 0 8 0;
#X connect 25 0 24 0;
#X connect 26 0 10 0;
#X connect 27 0 11 0;
#X connect 27 0 30 0;
#X connect 28 0 15 0;
#X connect 29 0 17 0;
#X connect 30 0 29 0;
#X connect 31 0 32 0;
#X connect 32 0 18 0;
#X connect 33 0 32 0;
#X connect 34 0 33 0;
#X connect 35 0 21 0;
#X connect 36 0 9 1;
#X connect 39 0 42 0;
#X connect 42 0 11 0;
#X connect 44 0 43 0;
#X connect 45 0 46 0;
#X connect 46 0 44 0;
#X connect 47 0 48 0;
#X connect 48 0 11 1;
#X connect 49 0 50 0;
#X connect 50 0 51 0;
#X connect 52 0 49 0;
