#N canvas 710 311 831 663 10;
#X obj 161 439 outlet;
#X obj 238 439 outlet;
#X text 159 459 MIDI note;
#X text 234 457 velocity;
#X obj 11 1 inlet;
#X obj 161 122 list-len;
#X obj 134 98 t l l;
#X obj 403 316 + 4;
#X obj 424 264 loadbang;
#X msg 424 286 0;
#X obj -90 71 s keyboard-user-transp-\$0;
#X obj 403 237 r keyboard-user-transp-\$0;
#X obj 161 237 switch 2;
#X obj 161 280 unpack 0 0;
#X obj 213 204 pack 0 0;
#X msg 284 175 127;
#X obj 284 148 loadbang;
#X obj 213 176 unpack 0 0;
#X obj 161 359 abstractions/keyboard-abs-mini;
#X obj 11 26 route transpose flush;
#X obj 72 71 abstractions/keyboardFlush;
#X obj 72 48 t b;
#X obj 473 31 clip 0 127;
#X obj 473 10 inlet;
#X connect 4 0 19 0;
#X connect 5 0 12 0;
#X connect 6 0 12 2;
#X connect 6 0 17 0;
#X connect 6 1 5 0;
#X connect 7 0 18 3;
#X connect 8 0 9 0;
#X connect 9 0 7 0;
#X connect 11 0 7 0;
#X connect 12 0 13 0;
#X connect 13 0 18 0;
#X connect 13 1 18 1;
#X connect 14 0 12 1;
#X connect 15 0 14 1;
#X connect 16 0 15 0;
#X connect 17 0 14 0;
#X connect 18 0 0 0;
#X connect 18 1 1 0;
#X connect 19 0 10 0;
#X connect 19 1 21 0;
#X connect 19 2 6 0;
#X connect 20 0 6 0;
#X connect 21 0 20 0;
#X connect 22 0 18 2;
#X connect 23 0 22 0;
#X coords 0 -1 1 1 84 52 2 161 359;
