#N canvas 255 90 1033 833 10;
#X obj 161 579 outlet;
#X obj 574 579 outlet;
#X text 159 599 MIDI note;
#X text 570 597 velocity;
#X obj 245 459 abstractions/keyboard-abs;
#X obj 413 459 abstractions/keyboard-abs;
#X obj 161 459 abstractions/keyboard-abs-inoutC;
#X obj 754 416 + 6;
#X obj 710 416 + 5;
#X obj 578 416 + 2;
#X obj 622 416 + 3;
#X obj 666 416 + 4;
#X obj 754 349 loadbang;
#X msg 754 371 0;
#X obj 497 459 abstractions/keyboard-abs-inoutB;
#X obj 578 372 r keyboard-user-transp-\$0;
#X obj 11 -169 inlet;
#X obj 161 -40 list-len;
#X obj 134 -64 t l l;
#X obj -87 -98 s keyboard-user-transp-\$0;
#X obj 161 67 switch 2;
#X obj 213 34 pack 0 0;
#X msg 284 5 127;
#X obj 284 -22 loadbang;
#X obj 213 6 unpack 0 0;
#X obj 329 459 abstractions/keyboard-abs;
#X obj 11 -144 route transpose flush;
#X obj 72 -99 abstractions/keyboardFlush;
#X obj 72 -122 t b;
#X obj 548 341 clip 0 127;
#X obj 548 -176 inlet;
#X obj 206 172 * 12;
#X obj 251 172 * 12;
#X obj 206 124 r keyboard-user-transp-\$0;
#X obj 161 98 unpack f f;
#X obj 161 316 pack f f;
#X obj 161 337 unpack f f;
#X obj 296 172 * 12;
#X obj 341 172 * 12;
#X obj 341 151 + 4;
#X obj 296 151 + 3;
#X obj 251 151 + 2;
#X obj 206 151 + 1;
#X obj 161 195 moses 48;
#X obj 206 217 moses 60;
#X obj 251 238 moses 72;
#X obj 296 260 moses 84;
#X obj 231 316 pack f f;
#X obj 231 337 unpack f f;
#X obj 301 316 pack f f;
#X obj 301 337 unpack f f;
#X obj 371 316 pack f f;
#X obj 371 337 unpack f f;
#X obj 441 316 pack f f;
#X obj 441 337 unpack f f;
#X connect 4 0 0 0;
#X connect 4 1 1 0;
#X connect 5 0 0 0;
#X connect 5 1 1 0;
#X connect 6 0 0 0;
#X connect 6 1 1 0;
#X connect 7 0 14 3;
#X connect 8 0 5 3;
#X connect 9 0 6 3;
#X connect 10 0 4 3;
#X connect 11 0 25 3;
#X connect 12 0 13 0;
#X connect 13 0 7 0;
#X connect 13 0 8 0;
#X connect 13 0 11 0;
#X connect 13 0 10 0;
#X connect 13 0 9 0;
#X connect 14 0 0 0;
#X connect 14 1 1 0;
#X connect 15 0 9 0;
#X connect 15 0 10 0;
#X connect 15 0 11 0;
#X connect 15 0 8 0;
#X connect 15 0 7 0;
#X connect 16 0 26 0;
#X connect 17 0 20 0;
#X connect 18 0 20 2;
#X connect 18 0 24 0;
#X connect 18 1 17 0;
#X connect 20 0 34 0;
#X connect 21 0 20 1;
#X connect 22 0 21 1;
#X connect 23 0 22 0;
#X connect 24 0 21 0;
#X connect 25 0 0 0;
#X connect 25 1 1 0;
#X connect 26 0 19 0;
#X connect 26 1 28 0;
#X connect 26 2 18 0;
#X connect 27 0 18 0;
#X connect 28 0 27 0;
#X connect 29 0 6 2;
#X connect 29 0 4 2;
#X connect 29 0 5 2;
#X connect 29 0 14 2;
#X connect 29 0 25 2;
#X connect 30 0 29 0;
#X connect 31 0 43 1;
#X connect 32 0 44 1;
#X connect 33 0 41 0;
#X connect 33 0 42 0;
#X connect 33 0 40 0;
#X connect 33 0 39 0;
#X connect 34 0 43 0;
#X connect 34 1 35 1;
#X connect 34 1 53 1;
#X connect 34 1 51 1;
#X connect 34 1 49 1;
#X connect 34 1 47 1;
#X connect 35 0 36 0;
#X connect 36 0 6 0;
#X connect 36 1 6 1;
#X connect 37 0 45 1;
#X connect 38 0 46 1;
#X connect 39 0 38 0;
#X connect 40 0 37 0;
#X connect 41 0 32 0;
#X connect 42 0 31 0;
#X connect 43 0 35 0;
#X connect 43 1 44 0;
#X connect 44 0 47 0;
#X connect 44 1 45 0;
#X connect 45 0 49 0;
#X connect 45 1 46 0;
#X connect 46 0 51 0;
#X connect 46 1 53 0;
#X connect 47 0 48 0;
#X connect 48 0 4 0;
#X connect 48 1 4 1;
#X connect 49 0 50 0;
#X connect 50 0 25 0;
#X connect 50 1 25 1;
#X connect 51 0 52 0;
#X connect 52 0 5 0;
#X connect 52 1 5 1;
#X connect 53 0 54 0;
#X connect 54 0 14 0;
#X connect 54 1 14 1;
#X coords 0 -1 1 1 420 52 2 161 459;
