#N canvas 425 466 605 321 10;
#X obj 301 101 vradio 15 1 0 20 empty empty empty 0 -8 0 10 -262144 -1 -1 0;
#X obj 233 508 outlet;
#X obj 196 41 inlet;
#X obj 233 440 * 1;
#X obj 233 481 + 1;
#X obj 196 74 route min stepsize;
#X obj 172 118 t b;
#X connect 0 0 3 0;
#X connect 2 0 5 0;
#X connect 3 0 4 0;
#X connect 4 0 1 0;
#X connect 5 0 4 1;
#X connect 5 0 6 0;
#X connect 5 1 3 1;
#X connect 5 2 0 0;
#X connect 6 0 0 0;
#X coords 0 -1 1 1 17 302 2 300 100;
