#N canvas 701 332 672 389 10;
#X obj 185 102 inlet;
#X obj 231 242 i;
#X obj 231 266 outlet;
#X obj 185 126 route bang float;
#X obj 312 102 inlet;
#X obj 258 188 moses 0;
#X obj 231 155 t b f;
#X obj 297 212 + 0.5;
#X obj 258 212 - 0.5;
#X text 352 212 <- these 0.5 are actually 0.499999999...;
#X connect 0 0 3 0;
#X connect 1 0 2 0;
#X connect 3 0 1 0;
#X connect 3 1 6 0;
#X connect 4 0 5 0;
#X connect 5 0 8 0;
#X connect 5 1 7 0;
#X connect 6 0 1 0;
#X connect 6 1 5 0;
#X connect 7 0 1 1;
#X connect 8 0 1 1;
