#N canvas 675 493 292 251 10;
#X obj 100 25 MouseState;
#X obj 100 49 tgl 15 0 empty empty empty 17 7 0 10 -262144 -1 -1 0
1;
#X obj 100 78 sel 0;
#X msg 100 104 0;
#X obj 100 160 outlet;
#X obj 100 130 tgl 15 0 empty empty empty 17 7 0 10 -262144 -1 -1 0
1;
#X obj 100 130 tgl 15 0 empty \$0-no-inlet-please empty 17 7 0 10 -262144
-1 -1 0 1;
#X obj 144 160 s \$0-no-inlet-please;
#X connect 0 0 1 0;
#X connect 1 0 2 0;
#X connect 2 0 3 0;
#X connect 3 0 5 0;
#X connect 5 0 4 0;
#X connect 5 0 7 0;
#X coords 0 -1 1 1 15 15 2 100 130;
