#N canvas 682 425 619 385 10;
#X obj 101 101 tgl 44 0 empty empty empty 17 7 0 10 -262144 -1 -1 0 1;
#X msg 261 106 open \$1.gif;
#X msg 62 34 0;
#X obj 62 187 dsp dsp~;
#X obj 62 -4 loadbang;
#X obj -86 33 inlet~;
#X obj -29 34 inlet~;
#X obj -87 104 dac~;
#X obj 101 35 inlet;
#X obj 123 123 image 0.gif;
#X obj 261 40 r pd;
#X obj 261 74 route dsp;
#X connect 0 0 3 0;
#X connect 1 0 9 0;
#X connect 2 0 0 0;
#X connect 2 0 3 0;
#X connect 4 0 2 0;
#X connect 5 0 7 0;
#X connect 6 0 7 1;
#X connect 8 0 0 0;
#X connect 10 0 11 0;
#X connect 11 0 1 0;
#X coords 0 -1 1 1 46 46 2 100 100;
